<svg width="84" height="34" viewBox="0 0 84 34" fill="none" xmlns="http://www.w3.org/2000/svg">
<g clip-path="url(#clip0)">
<path fill-rule="evenodd" clip-rule="evenodd" d="M58.557 16.334C58.557 16.334 55.8681 17.3111 57.397 18.5954C58.9259 19.8796 61.4655 16.0355 66.3678 18.8574C66.3678 18.8574 64.0648 14.588 58.557 16.334Z" fill="#D507D3"/>
<path fill-rule="evenodd" clip-rule="evenodd" d="M13.0843 17.2104C13.5813 17.1635 14.0787 17.2961 14.4877 17.5844C14.8967 17.8728 15.1905 18.2981 15.3168 18.7846C15.3702 19.0509 15.3697 19.3253 15.3153 19.5913C15.2609 19.8574 15.1538 20.1097 15.0003 20.3331C14.8468 20.5565 14.6501 20.7463 14.422 20.8913C14.1939 21.0363 13.939 21.1335 13.6728 21.177C12.3593 21.439 11.2056 20.5327 11.131 19.3429C11.0585 18.2176 11.9669 17.2963 13.0843 17.2104Z" fill="#6622CC"/>
<path fill-rule="evenodd" clip-rule="evenodd" d="M0 6.69172C0.0191912 11.1092 3.32221 13.3148 6.58899 13.3148C8.95591 13.3148 11.3975 12.2732 12.3144 9.57373C12.7558 8.31741 12.7558 7.07827 12.6811 5.78545H6.61031V8.65028H9.34186C8.75333 9.88942 7.91105 10.2395 6.58899 10.2395C4.64428 10.2395 3.39045 8.83497 3.39045 6.69172C3.39045 4.71382 4.50994 3.08598 6.58899 3.08598C7.88973 3.08598 8.74267 3.53052 9.26936 4.63866H12.4978C11.8751 1.42378 9.16914 0.0729684 6.58899 0.055788C3.32221 0.055788 0.0191912 2.27421 0 6.69172ZM22.9954 13.1601H26.2088V12.6705L20.4088 0.055788H18.9951L13.2206 12.6705V13.1515H16.4192L17.1719 11.5258H22.2384L22.9954 13.1601ZM21.1786 8.70612H18.2423L19.6923 5.3044L21.1786 8.70612ZM29.708 9.20435H26.5372C26.4647 14.8975 36.9261 14.8052 36.9261 9.37186C36.9261 6.1355 34.4291 5.74894 31.8788 5.47191C30.723 5.34091 29.7677 5.13904 29.8424 4.15761C29.9511 2.62426 33.4013 2.47608 33.4013 4.19626H36.523C36.5955 -1.38736 26.6118 -1.38736 26.7142 4.19626C26.7526 7.00526 28.5864 7.96521 31.3777 8.16923C32.6571 8.24439 33.7232 8.44626 33.7232 9.35253C33.7318 10.8687 29.7123 10.8494 29.7123 9.20435H29.708ZM46.3404 8.96382V6.01309H42.2207V3.17832H46.882V0.214707H38.8708V13.1601H42.2207V8.96382H46.3404ZM61.3352 6.7089C61.3352 -2.23565 48.1572 -2.23565 48.1572 6.7089C48.1572 15.6534 61.3352 15.6749 61.3352 6.7089ZM51.5263 6.7089C51.5263 2.05086 57.9682 2.05086 57.9682 6.7089C57.9682 11.4034 51.5263 11.4034 51.5263 6.7089ZM71.6771 8.57726C74.9332 6.35884 74.0163 0.240477 68.969 0.214707H63.331V13.1601H66.617V9.35253H68.3229L70.5256 13.1601H74.2061V12.6705L71.6771 8.57726ZM68.969 6.41468H66.6234V3.17832C67.3932 3.17832 68.2014 3.16114 68.969 3.17832C70.8412 3.19765 70.7495 6.41253 68.969 6.41253V6.41468ZM77.6179 3.17832V13.1601H80.8654V3.17832H84.0043V0.214707H74.4577V3.17832H77.6179Z" fill="white"/>
<path fill-rule="evenodd" clip-rule="evenodd" d="M81.9612 18.0671C81.9612 18.0671 80.9505 32.3612 59.7655 28.4162C33.3243 23.4918 37.1625 18.9884 21.3212 24.469C3.90413 30.495 2.53516 19.8861 2.53516 19.8861C2.53516 19.8861 8.719 26.1784 19.5407 22.0959C23.9952 20.4165 29.7206 15.7392 36.9045 15.8551C46.7667 16.0162 45.6109 25.2356 58.0149 25.3559C65.3246 25.4246 73.2505 19.128 73.4808 19.1688C73.515 19.1731 81.8013 16.9654 81.9612 18.0671Z" fill="url(#paint0_linear)"/>
<path fill-rule="evenodd" clip-rule="evenodd" d="M6.5074 27.6563C6.5074 27.6563 13.9536 32.5334 23.3935 28.0021C31.5818 24.0678 35.2409 25.0492 38.8126 25.9641C46.1415 27.841 50.6643 34.769 60.665 31.4532C64.6291 30.1389 65.2112 24.2718 65.2112 24.2718C65.2112 24.2718 55.8928 16.6523 46.2332 22.586L35.9467 21.8236L27.5069 23.4214C27.5069 23.4214 11.1048 29.7674 3.41121 20.0175C3.11482 19.6417 2.24695 19.588 1.99533 19.3475C1.26606 18.6302 0.967531 17.9687 0.905692 18.3059C0.472824 20.6618 2.0529 24.8753 6.5074 27.6563Z" fill="url(#paint1_linear)"/>
<path fill-rule="evenodd" clip-rule="evenodd" d="M3.90177 23.4789C3.90177 23.4789 9.7359 28.822 19.404 26.013C28.716 23.3028 31.7717 22.0658 38.414 23.1052C46.3037 24.3379 49.4042 32.1249 55.8993 32.2151C61.5479 32.2967 63.804 30.0675 68.4333 24.7094C71.3184 21.3485 74.3186 18.3677 80.8159 18.1723C83.0826 18.1035 81.8501 17.543 78.9608 17.4056C75.5149 17.2402 69.4227 17.7599 63.9575 22.3449C54.3363 30.4026 48.6045 15.1335 26.6583 22.4244C12.299 27.192 7.17707 23.2362 1.66919 18.5588C0.253303 17.3626 1.25764 19.5961 1.25764 19.5961C1.25764 19.5961 2.5264 22.2676 3.90177 23.4789Z" fill="url(#paint2_linear)"/>
<path fill-rule="evenodd" clip-rule="evenodd" d="M73.592 29.5241C74.1417 29.5029 74.6795 29.6894 75.0996 30.047C75.5198 30.4046 75.7921 30.9075 75.863 31.4569C75.9307 32.0013 75.8002 32.5521 75.4955 33.007C75.1909 33.4619 74.7327 33.7902 74.2061 33.9309C73.9283 34.0055 73.6387 34.0242 73.3537 33.986C73.0687 33.9478 72.794 33.8534 72.5453 33.7082C72.2965 33.563 72.0787 33.3699 71.9041 33.1398C71.7295 32.9097 71.6017 32.6473 71.5279 32.3674C71.5062 32.287 71.4898 32.2052 71.4788 32.1226C71.4311 31.831 71.4411 31.5328 71.5084 31.2451C71.5756 30.9575 71.6987 30.686 71.8705 30.4465C72.0424 30.2069 72.2596 30.004 72.5097 29.8494C72.7597 29.6948 73.0377 29.5915 73.3276 29.5456C73.4151 29.532 73.5035 29.5249 73.592 29.5241Z" fill="#FADD2E"/>
<path fill-rule="evenodd" clip-rule="evenodd" d="M27.7676 28.719C27.7676 28.719 25.2557 31.1457 27.9957 31.8609C30.9661 32.634 32.591 27.4391 41.3251 31.6461C41.3251 31.6461 33.7318 23.8376 27.7676 28.719Z" fill="#781ECD"/>
</g>
<defs>
<linearGradient id="paint0_linear" x1="41.1052" y1="15.5287" x2="45.4358" y2="28.761" gradientUnits="userSpaceOnUse">
<stop stop-color="#F9C540"/>
<stop offset="1" stop-color="#FAE925"/>
</linearGradient>
<linearGradient id="paint1_linear" x1="36.2964" y1="17.376" x2="27.0979" y2="31.4386" gradientUnits="userSpaceOnUse">
<stop stop-color="#811CCE"/>
<stop offset="0.68" stop-color="#F500D5"/>
<stop offset="1" stop-color="#F500D5"/>
</linearGradient>
<linearGradient id="paint2_linear" x1="81.9951" y1="25.0616" x2="0.950237" y2="23.6578" gradientUnits="userSpaceOnUse">
<stop stop-color="#5409EA"/>
<stop offset="0.49" stop-color="#FD00F7"/>
<stop offset="1" stop-color="#FD00F7"/>
</linearGradient>
<clipPath id="clip0">
<rect width="84" height="34" fill="white"/>
</clipPath>
</defs>
</svg>
