<svg width="619" height="281" viewBox="0 0 619 281" fill="none" xmlns="http://www.w3.org/2000/svg">
<path d="M726.537 14.1135L725.687 7.57539C725.565 6.48 725.212 5.42302 724.651 4.47462C724.089 3.52621 723.332 2.70807 722.43 2.07452C719.701 0.102026 714.854 0 712.065 0C710.841 0 709.319 0 707.593 0.0680169L502.949 0.0595148C501.532 -0.0120153 500.111 0.0192409 498.698 0.153038C481.87 1.84496 470.757 20.0565 472.747 39.9089C474.736 59.7614 487.338 72.268 504.157 70.5676C507.419 70.3214 510.596 69.408 513.49 67.8841C516.385 66.3602 518.935 64.2582 520.984 61.7084C527.345 53.9544 526.316 43.4458 526.316 43.4458L525.755 31.0922C525.755 30.9307 525.636 30.8117 525.517 30.8287L498.732 32.5291C498.668 32.5471 498.613 32.5886 498.578 32.6454C498.544 32.7022 498.532 32.77 498.545 32.8352L499.659 45.3078C499.659 45.4693 499.786 45.5883 499.905 45.5713L510.186 44.7721C510.806 50.9277 506.716 53.6654 504.505 54.031C495.05 55.5273 488.792 46.7616 489.166 35.2583C489.413 27.3428 493.928 18.7557 500.467 18.101C504.284 17.7184 506.92 19.2658 509.182 21.4423C510.466 22.4201 512.158 24.8432 513.136 26.144C513.153 26.1722 513.176 26.1957 513.205 26.2119C513.233 26.2282 513.265 26.2368 513.298 26.2368C513.33 26.2368 513.362 26.2282 513.391 26.2119C513.419 26.1957 513.443 26.1722 513.459 26.144L524.743 12.192C524.774 12.1331 524.79 12.0674 524.79 12.0007C524.79 11.934 524.774 11.8684 524.743 11.8094C523.216 9.33428 521.189 7.2057 518.791 5.56038H528.365C528.314 6.03799 528.314 6.51963 528.365 6.99724L530.797 66.5716L539.496 66.0019L548.33 65.1517L547.344 43.4288L552.582 42.9782L563.262 63.3153L579.928 61.3343L568.976 41.0992C571.464 39.976 573.65 38.277 575.353 36.1425C578.244 31.5684 579.851 26.8412 578.882 19.0362C578.151 13.0848 576.05 8.63815 572.7 5.56038H586.007C584.613 7.71732 583.954 10.2673 584.128 12.8297L586.39 60.5691L623.642 56.114L626.193 45.4183L603.949 47.1187L603.592 39.5944L628.438 37.7409L631.388 23.1513L602.843 25.0982L602.554 17.0127L632.851 16.4346L635.699 5.52638H643.139L632.145 55.0937L649.814 52.9937L650.818 48.292L666.217 46.3705L668.087 50.8597L685.391 48.8022L667.28 5.56038H673.835L678.172 15.6099L692.712 15.1848L696.53 47.4928L714.548 45.3503L711.513 14.6236L726.537 14.1135ZM555.107 28.7287L546.23 29.3663L545.643 14.9722L552.539 14.4536C554.488 14.2857 556.425 14.8948 557.927 16.1481C559.429 17.4014 560.374 19.1974 560.558 21.1448C561.093 25.5574 557.76 28.4991 555.107 28.7287ZM653.36 35.8109L656.013 17.9565L661.812 35.0457L653.36 35.8109Z" fill="#ED0677"/>
<path d="M799.033 279.858C805.094 279.715 821.218 278.086 829.652 268.794C834.938 262.646 837.786 254.773 837.657 246.666V222.908L771.158 228.883L770.786 197.263L830.595 191.545L830.224 140.256L769.014 147.289L767.927 117.098L839.115 109.551V54.373L701.886 68.0674L707.604 263.476H690.965L684.732 69.068L620.349 75.9581L581.839 125.075L540.927 83.5629L475.772 90.1956L484.892 263.476H477.115L417.078 96.9427L330.938 105.52L295.115 263.362H288.539L261.494 217.619C291.141 205.383 292.942 178.537 291.427 163.042C289.083 137.311 262.409 114.439 222.812 117.298L154.855 123.874L131.583 126.733L132.269 140.227L139.788 263.305H63.2545L61.4534 241.92L101.736 237.631L98.877 198.292L58.5658 202.581L56.7075 182.425L120.834 176.021L117.975 127.791L15.7674 137.883C11.4218 138.451 7.39389 140.465 4.33165 143.601C1.36458 147.304 -0.168098 151.953 0.0146431 156.695L8.27699 280.001L799.033 279.858ZM586.413 204.439L625.981 167.444L628.84 263.476H548.017L543.386 171.79L586.413 204.439ZM375.623 148.118L376.08 147.632L393.634 196.72L363.558 200.065L375.623 148.118ZM356.868 243.807L404.384 238.718L411.217 263.476H353.609L356.868 243.807ZM191.85 263.476L188.991 230.799L211.862 227.625L231.389 263.476H191.85ZM214.321 159.554C225.757 158.124 232.447 164.099 233.019 169.989C233.221 171.86 233.033 173.753 232.468 175.549C231.902 177.344 230.971 179.003 229.733 180.421C228.495 181.839 226.977 182.986 225.274 183.788C223.571 184.59 221.721 185.032 219.839 185.084L185.189 189.773L183.216 163.327L214.321 159.554Z" fill="white"/>
</svg>
