<svg width="110" height="54" viewBox="0 0 110 54" fill="none" xmlns="http://www.w3.org/2000/svg">
<path d="M109.971 6.11069L109.602 3.2799C109.55 2.80563 109.397 2.34799 109.154 1.93736C108.911 1.52673 108.583 1.17251 108.193 0.898198C107.011 0.0441737 104.913 0 103.705 0C103.175 0 102.516 0 101.769 0.0294491L13.175 0.025768C12.5613 -0.00520224 11.9461 0.0083307 11.3344 0.0662605C4.04941 0.798808 -0.761839 8.68381 0.0995479 17.2793C0.960935 25.8747 6.41639 31.2897 13.6977 30.5535C15.1099 30.4469 16.4851 30.0514 17.7382 29.3916C18.9913 28.7318 20.0956 27.8217 20.9827 26.7177C23.7362 23.3605 23.2907 18.8106 23.2907 18.8106L23.0478 13.4619C23.0478 13.392 22.9962 13.3405 22.9447 13.3478L11.3491 14.084C11.3214 14.0918 11.2976 14.1098 11.2826 14.1344C11.2676 14.159 11.2624 14.1883 11.2681 14.2166L11.7504 19.6168C11.7504 19.6867 11.8056 19.7383 11.8571 19.7309L16.3076 19.3849C16.5763 22.05 14.8057 23.2354 13.8486 23.3937C9.75518 24.0415 7.04586 20.2463 7.20783 15.2657C7.31458 11.8385 9.26927 8.1206 12.1001 7.83715C13.7529 7.6715 14.8941 8.34146 15.8732 9.28384C16.4291 9.70717 17.1616 10.7563 17.585 11.3195C17.5921 11.3317 17.6023 11.3419 17.6146 11.3489C17.6269 11.356 17.6408 11.3597 17.6549 11.3597C17.6691 11.3597 17.683 11.356 17.6952 11.3489C17.7075 11.3419 17.7177 11.3317 17.7249 11.3195L22.6097 5.27876C22.6233 5.25325 22.6303 5.22481 22.6303 5.19593C22.6303 5.16705 22.6233 5.13861 22.6097 5.1131C21.9488 4.04144 21.0711 3.11983 20.0329 2.40747H24.1779C24.1559 2.61426 24.1559 2.82279 24.1779 3.02958L25.2307 28.8233L28.9965 28.5767L32.8212 28.2086L32.3942 18.8033L34.6618 18.6082L39.2853 27.4135L46.5003 26.5557L41.759 17.7946C42.8365 17.3083 43.7828 16.5727 44.5199 15.6485C45.7715 13.6681 46.4672 11.6214 46.0475 8.24207C45.731 5.66528 44.8217 3.74004 43.3714 2.40747H49.1323C48.5287 3.34135 48.2433 4.44542 48.3188 5.55484L49.298 26.2244L65.4251 24.2955L66.5294 19.6647L56.8996 20.4009L56.7449 17.1431L67.5012 16.3406L68.7786 10.0237L56.421 10.8667L56.2958 7.36596L69.4118 7.11565L70.6449 2.39274H73.8659L69.1062 23.8538L76.7556 22.9446L77.19 20.9089L83.8565 20.0769L84.6664 22.0206L92.1575 21.1297L84.3167 2.40747H87.1548L89.0322 6.75857L95.327 6.57452L96.9798 20.5629L104.78 19.6352L103.466 6.33156L109.971 6.11069ZM35.7551 12.4386L31.912 12.7147L31.658 6.48249L34.6434 6.25794C35.4871 6.18525 36.3254 6.44895 36.9756 6.99159C37.6259 7.53423 38.0353 8.31184 38.1147 9.155C38.3466 11.0655 36.9036 12.3392 35.7551 12.4386ZM78.2907 15.505L79.4392 7.77457L81.9497 15.1737L78.2907 15.505Z" fill="#ED0677"/>
<path d="M104.839 53.038C105.619 53.0196 107.696 52.8098 108.782 51.6134C109.462 50.8218 109.829 49.8081 109.812 48.7642V45.7052L101.25 46.4746L101.202 42.4032L108.903 41.667L108.855 35.063L100.974 35.9686L100.834 32.0813L110 31.1095V24.0049L92.3306 25.7681L93.0668 50.9287H90.9244L90.1219 25.897L81.8319 26.7841L76.8735 33.1083L71.6057 27.7633L63.2164 28.6174L64.3907 50.9287H63.3894L55.659 29.4861L44.5678 30.5904L39.9553 50.914H39.1086L35.6263 45.0242C39.4436 43.4487 39.6755 39.9921 39.4804 37.9969C39.1786 34.6839 35.7441 31.739 30.6457 32.1071L21.8956 32.9537L18.8992 33.3218L18.9875 35.0593L19.9556 50.9067H10.1012L9.86932 48.1532L15.0561 47.601L14.6879 42.5357L9.49753 43.0879L9.25825 40.4927L17.5151 39.6681L17.1469 33.4581L3.98686 34.7575C3.42733 34.8307 2.90869 35.09 2.5144 35.4937C2.13237 35.9706 1.93502 36.5691 1.95855 37.1797L3.0224 53.0564L104.839 53.038ZM77.4624 43.3272L82.5571 38.5638L82.9252 50.9287H72.5187L71.9223 39.1233L77.4624 43.3272ZM50.3214 36.0753L50.3803 36.0128L52.6405 42.3333L48.7679 42.764L50.3214 36.0753ZM47.9065 48.3961L54.0246 47.7409L54.9044 50.9287H47.4869L47.9065 48.3961ZM26.659 50.9287L26.2909 46.7212L29.2358 46.3126L31.75 50.9287H26.659ZM29.5524 37.5478C31.0248 37.3637 31.8862 38.1331 31.9598 38.8914C31.9859 39.1324 31.9617 39.3761 31.8889 39.6073C31.8161 39.8385 31.6962 40.0521 31.5368 40.2347C31.3774 40.4173 31.1819 40.5649 30.9626 40.6682C30.7434 40.7715 30.5051 40.8283 30.2628 40.8351L25.8013 41.4388L25.5473 38.0337L29.5524 37.5478Z" fill="#64aee4"/>
</svg>
