<svg width="1920" height="624" viewBox="0 0 1920 624" fill="none" xmlns="http://www.w3.org/2000/svg">
<path d="M1935.38 547.799C1950.95 547.451 1992.37 543.492 2014.04 520.919C2027.62 505.982 2034.93 486.856 2034.6 467.16V409.442L1863.77 423.959L1862.81 347.141L2016.46 333.249L2015.51 208.645L1858.26 225.732L1855.47 152.386L2038.35 134.05V0L1685.8 33.2694L1700.49 508H1657.75L1641.74 35.7003L1476.33 52.4392L1377.4 171.764L1272.3 70.9144L1104.91 87.0282L1128.34 508H1108.37L954.128 103.42L732.833 124.257L640.805 507.723H623.912L554.431 396.593C630.596 366.866 635.223 301.647 631.33 264.002C625.308 201.492 556.782 145.927 455.058 152.872L280.475 168.847L220.69 175.793L222.452 208.576L241.769 507.584H45.1521L40.525 455.631L144.011 445.212L136.667 349.641L33.1068 360.059L28.3328 311.093L193.074 295.535L185.729 178.363L-76.8429 202.881C-88.0067 204.262 -98.3546 209.155 -106.222 216.772C-113.844 225.769 -117.781 237.063 -117.312 248.583L-96.0859 548.146L1935.38 547.799ZM1389.15 364.574L1490.8 274.698L1498.15 508H1290.51L1278.62 285.255L1389.15 364.574ZM847.631 227.746L848.806 226.565L893.902 345.821L816.636 353.947L847.631 227.746ZM799.45 460.215L921.518 447.852L939.072 508H791.077L799.45 460.215ZM375.515 508L368.171 428.612L426.928 420.903L477.092 508H375.515ZM433.244 255.528C462.623 252.055 479.81 266.572 481.279 280.88C481.797 285.426 481.315 290.025 479.863 294.387C478.41 298.749 476.018 302.78 472.837 306.224C469.657 309.669 465.756 312.454 461.382 314.404C457.008 316.353 452.254 317.425 447.42 317.552L358.402 328.943L353.334 264.696L433.244 255.528Z" fill="#193FA0"/>
<path d="M839.92 482.509L839.749 465.913C839.775 463.138 839.178 460.391 837.998 457.852C836.818 455.313 835.081 453.041 832.903 451.188C826.328 445.439 813.577 443.732 806.221 442.896C802.992 442.529 798.977 442.073 794.403 441.726L254.656 380.379C250.94 379.776 247.183 379.428 243.413 379.339C198.494 378.525 163.412 420.714 162.369 470.931C161.327 521.148 190.601 556.184 235.5 556.974C244.182 557.336 252.85 556.005 260.967 553.064C269.084 550.122 276.478 545.633 282.69 539.873C301.922 522.399 302.539 495.824 302.539 495.824L304.973 464.779C305.024 464.375 304.748 464.042 304.428 464.049L233.244 460.272C233.07 460.298 232.912 460.385 232.802 460.517C232.693 460.648 232.64 460.814 232.654 460.981L231.64 492.49C231.589 492.894 231.888 493.23 232.207 493.223L259.574 494.306C259.261 509.877 247.606 515.494 241.659 515.746C216.246 516.652 202.518 492.867 207.149 464.227C210.308 444.517 224.937 424.406 242.391 424.73C252.582 424.917 259.044 429.575 264.32 435.693C267.397 438.522 271.092 445.085 273.259 448.629C273.293 448.705 273.348 448.771 273.418 448.82C273.487 448.869 273.569 448.9 273.656 448.91C273.742 448.92 273.829 448.908 273.909 448.876C273.989 448.843 274.059 448.792 274.111 448.726L308.292 417.235C308.394 417.097 308.458 416.938 308.479 416.771C308.5 416.604 308.477 416.435 308.414 416.279C305.171 409.635 300.498 403.707 294.695 398.876L319.948 401.745C319.662 402.923 319.51 404.127 319.492 405.336L307.03 554.969L330.153 556.152L353.724 556.675L358.006 502.083L371.964 502.527L393.688 556.559L438.272 556.602L415.798 502.743C422.718 500.681 429.022 497.09 434.189 492.265C443.263 481.698 449 470.364 448.916 450.566C448.873 435.471 444.743 423.728 436.882 415.031L471.98 419.019C467.619 423.992 465.072 430.168 464.72 436.625L455.559 556.626L555.223 556.654L565.341 530.685L506.133 528.269L507.575 509.355L573.694 512.168L586.099 476.586L510.195 472.898L511.994 452.602L592.084 460.236L603.054 433.825L622.677 436.054L577.974 556.652L625.242 556.698L629.378 545.247L670.603 545.059L674.114 556.84L720.405 556.882L686.337 443.373L703.628 445.338L711.881 471.756L750.366 475.051L750.199 556.948L798.401 556.992L800.13 479.282L839.92 482.509ZM383.139 467.667L359.524 466.601L362.537 430.447L380.89 431.218C386.083 431.382 390.998 433.485 394.562 437.067C398.126 440.65 400.051 445.422 399.918 450.345C399.933 461.534 390.209 467.888 383.139 467.667ZM640.039 514.812L652.693 470.981L662.574 515.433L640.039 514.812Z" fill="#ED0677"/>
</svg>
