<svg width="1788" height="1295" viewBox="0 0 1788 1295" fill="none" xmlns="http://www.w3.org/2000/svg">
<path d="M18.0828 374.936C20.1933 369.978 26.8796 369.164 30.1182 373.471L39.4871 385.93C42.7257 390.237 40.0876 396.434 34.7385 397.085L19.2643 398.97C13.9152 399.621 9.86697 394.238 11.9775 389.279L18.0828 374.936Z" fill="#042A8C"/>
<path d="M1334.75 1184.53L1335.58 1184.45C1342.74 1183.79 1349.37 1180.4 1354.1 1174.98L1354.65 1174.35C1358.91 1169.48 1366.61 1169.87 1370.35 1175.16L1370.83 1175.83C1374.98 1181.7 1381.23 1185.75 1388.29 1187.14L1389.1 1187.3C1395.46 1188.55 1398.97 1195.41 1396.26 1201.29L1395.91 1202.05C1392.9 1208.58 1392.52 1216.02 1394.85 1222.82L1395.12 1223.61C1397.22 1229.74 1393.03 1236.21 1386.58 1236.8L1385.75 1236.88C1378.59 1237.54 1371.96 1240.93 1367.23 1246.35L1366.68 1246.98C1362.42 1251.85 1354.72 1251.46 1350.99 1246.18L1350.5 1245.5C1346.35 1239.63 1340.1 1235.58 1333.04 1234.19L1332.23 1234.03C1325.87 1232.78 1322.36 1225.92 1325.07 1220.04L1325.42 1219.28C1328.43 1212.75 1328.81 1205.31 1326.48 1198.51L1326.21 1197.72C1324.11 1191.6 1328.31 1185.12 1334.75 1184.53Z" stroke="#ED0677" stroke-width="18"/>
<path d="M1782.25 26.0108C1785.38 17.1566 1795.08 12.5105 1803.94 15.6335C1812.79 18.7565 1817.44 28.466 1814.32 37.3202L1794.03 94.8467C1790.9 103.701 1781.19 108.347 1772.34 105.224C1763.49 102.101 1758.84 92.3916 1761.96 83.5374L1782.25 26.0108Z" fill="#14B1E7"/>
<path d="M1754.19 66.4819C1745.34 63.3589 1740.69 53.6495 1743.82 44.7953C1746.94 35.941 1756.65 31.295 1765.5 34.418L1823.03 54.7083C1831.88 57.8313 1836.53 67.5407 1833.41 76.3949C1830.28 85.2492 1820.57 89.8952 1811.72 86.7723L1754.19 66.4819Z" fill="#14B1E7"/>
</svg>
