<svg width="289" height="386" viewBox="0 0 289 386" fill="none" xmlns="http://www.w3.org/2000/svg">
<path d="M64.344 182.115L63.626 180.249L63.5605 180.274L63.4969 180.304L64.344 182.115ZM19.992 202.851L20.8378 204.664L20.8391 204.663L19.992 202.851ZM38.712 245.763L39.5243 247.591L39.5372 247.585L39.5501 247.579L38.712 245.763ZM49.944 240.579H51.944V237.453L49.1059 238.763L49.944 240.579ZM74.712 177.811C71.1982 177.811 67.4818 178.766 63.626 180.249L65.062 183.982C68.6942 182.585 71.8898 181.811 74.712 181.811V177.811ZM63.4969 180.304L19.1449 201.04L20.8391 204.663L65.1911 183.927L63.4969 180.304ZM19.1462 201.039C9.84934 205.377 4.168 213.831 4.168 223.875H8.168C8.168 215.487 12.8547 208.389 20.8378 204.664L19.1462 201.039ZM4.168 223.875C4.168 237.859 15.0647 249.779 29.496 249.779V245.779C17.4313 245.779 8.168 235.811 8.168 223.875H4.168ZM29.496 249.779C33.5831 249.779 36.7415 248.828 39.5243 247.591L37.8997 243.936C35.4985 245.003 32.8969 245.779 29.496 245.779V249.779ZM39.5501 247.579L50.7821 242.395L49.1059 238.763L37.8739 243.947L39.5501 247.579ZM47.944 240.579V351.747H51.944V240.579H47.944ZM47.944 351.747C47.944 360.154 50.1998 366.991 54.8538 371.725C59.5132 376.465 66.2873 378.803 74.712 378.803V374.803C67.0087 374.803 61.3988 372.677 57.7062 368.921C54.0082 365.159 51.944 359.468 51.944 351.747H47.944ZM74.712 378.803C83.1367 378.803 89.9108 376.465 94.5703 371.725C99.2242 366.991 101.48 360.154 101.48 351.747H97.48C97.48 359.468 95.4158 365.159 91.7178 368.921C88.0252 372.677 82.4153 374.803 74.712 374.803V378.803ZM101.48 351.747V204.579H97.48V351.747H101.48ZM101.48 204.579C101.48 189.939 89.3526 177.811 74.712 177.811V181.811C87.1434 181.811 97.48 192.148 97.48 204.579H101.48ZM228.227 252.963L226.963 251.414L223.981 253.848L227.686 254.889L228.227 252.963ZM256.451 229.923L257.716 231.473L257.726 231.464L256.451 229.923ZM197.987 227.907L199.248 229.46L203.624 225.907H197.987V227.907ZM173.507 247.779L172.247 246.226L172.241 246.231L173.507 247.779ZM167.459 317.475L165.954 318.792L165.978 318.82L166.003 318.846L167.459 317.475ZM133.187 346.275L131.543 347.414L131.564 347.445L131.587 347.475L133.187 346.275ZM229.492 254.513L257.716 231.473L255.187 228.374L226.963 251.414L229.492 254.513ZM257.726 231.464C266.374 224.308 270.547 217.167 270.547 208.035H266.547C266.547 215.607 263.233 221.715 255.176 228.382L257.726 231.464ZM270.547 208.035C270.547 193.395 258.42 181.267 243.779 181.267V185.267C256.211 185.267 266.547 195.604 266.547 208.035H270.547ZM243.779 181.267H157.379V185.267H243.779V181.267ZM157.379 181.267C143.366 181.267 132.627 191.616 132.627 205.443H136.627C136.627 193.926 145.473 185.267 157.379 185.267V181.267ZM132.627 205.443C132.627 219.541 143.349 229.907 157.379 229.907V225.907C145.49 225.907 136.627 217.265 136.627 205.443H132.627ZM157.379 229.907H197.987V225.907H157.379V229.907ZM196.727 226.355L172.247 246.226L174.768 249.332L199.248 229.46L196.727 226.355ZM172.241 246.231C167.43 250.167 164.056 253.577 161.901 257.104C159.703 260.7 158.835 264.311 158.835 268.515H162.835C162.835 264.943 163.551 262.075 165.314 259.19C167.118 256.238 170.08 253.167 174.774 249.327L172.241 246.231ZM158.835 268.515C158.835 282.326 169.269 292.691 183.587 292.691V288.691C171.41 288.691 162.835 280.049 162.835 268.515H158.835ZM183.587 292.691H187.907V288.691H183.587V292.691ZM187.907 292.691C199.039 292.691 206.8 294.204 211.727 297.127C214.151 298.566 215.874 300.337 217.005 302.449C218.141 304.571 218.739 307.147 218.739 310.275H222.739C222.739 306.635 222.041 303.38 220.531 300.561C219.016 297.732 216.743 295.453 213.768 293.687C207.894 290.202 199.24 288.691 187.907 288.691V292.691ZM218.739 310.275C218.739 316.189 216.463 320.862 212.492 324.097C208.477 327.367 202.558 329.299 195.107 329.299V333.299C203.209 333.299 210.105 331.2 215.018 327.198C219.976 323.16 222.739 317.321 222.739 310.275H218.739ZM195.107 329.299C185.442 329.299 177.872 325.621 168.916 316.105L166.003 318.846C175.479 328.914 184.036 333.299 195.107 333.299V329.299ZM168.964 316.158C164.538 311.099 158.797 308.563 151.907 308.563V312.563C157.689 312.563 162.317 314.635 165.954 318.792L168.964 316.158ZM151.907 308.563C138.147 308.563 127.155 319.522 127.155 333.027H131.155C131.155 321.764 140.323 312.563 151.907 312.563V308.563ZM127.155 333.027C127.155 338.315 128.711 343.323 131.543 347.414L134.832 345.137C132.48 341.74 131.155 337.532 131.155 333.027H127.155ZM131.587 347.475C146.686 367.607 170.343 378.803 197.123 378.803V374.803C171.488 374.803 149.065 364.112 134.787 345.075L131.587 347.475ZM197.123 378.803C240.36 378.803 273.427 349.301 273.427 309.987H269.427C269.427 346.705 238.559 374.803 197.123 374.803V378.803ZM273.427 309.987C273.427 281.423 255.244 258.475 228.768 251.038L227.686 254.889C252.475 261.852 269.427 283.256 269.427 309.987H273.427Z" fill="#ED0677"/>
<path d="M70.344 185.484L69.626 183.617L69.5605 183.642L69.4969 183.672L70.344 185.484ZM25.992 206.22L26.8378 208.032L26.8391 208.031L25.992 206.22ZM44.712 249.132L45.5243 250.959L45.5372 250.953L45.5501 250.947L44.712 249.132ZM55.944 243.948H57.944V240.822L55.1059 242.132L55.944 243.948ZM80.712 181.18C77.1982 181.18 73.4818 182.134 69.626 183.617L71.062 187.35C74.6942 185.953 77.8898 185.18 80.712 185.18V181.18ZM69.4969 183.672L25.1449 204.408L26.8391 208.031L71.1911 187.295L69.4969 183.672ZM25.1462 204.407C15.8493 208.746 10.168 217.2 10.168 227.244H14.168C14.168 218.855 18.8547 211.757 26.8378 208.032L25.1462 204.407ZM10.168 227.244C10.168 241.228 21.0647 253.148 35.496 253.148V249.148C23.4313 249.148 14.168 239.179 14.168 227.244H10.168ZM35.496 253.148C39.5831 253.148 42.7415 252.196 45.5243 250.959L43.8997 247.304C41.4985 248.371 38.8969 249.148 35.496 249.148V253.148ZM45.5501 250.947L56.7821 245.763L55.1059 242.132L43.8739 247.316L45.5501 250.947ZM53.944 243.948V355.116H57.944V243.948H53.944ZM53.944 355.116C53.944 363.522 56.1998 370.359 60.8538 375.094C65.5132 379.833 72.2873 382.172 80.712 382.172V378.172C73.0087 378.172 67.3988 376.046 63.7062 372.29C60.0082 368.528 57.944 362.837 57.944 355.116H53.944ZM80.712 382.172C89.1367 382.172 95.9108 379.833 100.57 375.094C105.224 370.359 107.48 363.522 107.48 355.116H103.48C103.48 362.837 101.416 368.528 97.7178 372.29C94.0252 376.046 88.4153 378.172 80.712 378.172V382.172ZM107.48 355.116V207.948H103.48V355.116H107.48ZM107.48 207.948C107.48 193.307 95.3526 181.18 80.712 181.18V185.18C93.1434 185.18 103.48 195.516 103.48 207.948H107.48ZM234.227 256.332L232.963 254.782L229.981 257.216L233.686 258.257L234.227 256.332ZM262.451 233.292L263.716 234.841L263.726 234.832L262.451 233.292ZM203.987 231.276L205.248 232.828L209.624 229.276H203.987V231.276ZM179.507 251.148L178.247 249.595L178.241 249.6L179.507 251.148ZM173.459 320.844L171.954 322.161L171.978 322.188L172.003 322.214L173.459 320.844ZM139.187 349.644L137.543 350.782L137.564 350.813L137.587 350.844L139.187 349.644ZM235.492 257.881L263.716 234.841L261.187 231.742L232.963 254.782L235.492 257.881ZM263.726 234.832C272.374 227.676 276.547 220.536 276.547 211.404H272.547C272.547 218.975 269.233 225.083 261.176 231.751L263.726 234.832ZM276.547 211.404C276.547 196.763 264.42 184.636 249.779 184.636V188.636C262.211 188.636 272.547 198.972 272.547 211.404H276.547ZM249.779 184.636H163.379V188.636H249.779V184.636ZM163.379 184.636C149.366 184.636 138.627 194.985 138.627 208.812H142.627C142.627 197.295 151.473 188.636 163.379 188.636V184.636ZM138.627 208.812C138.627 222.91 149.349 233.276 163.379 233.276V229.276C151.49 229.276 142.627 220.633 142.627 208.812H138.627ZM163.379 233.276H203.987V229.276H163.379V233.276ZM202.727 229.723L178.247 249.595L180.768 252.7L205.248 232.828L202.727 229.723ZM178.241 249.6C173.43 253.535 170.056 256.945 167.901 260.473C165.703 264.068 164.835 267.679 164.835 271.884H168.835C168.835 268.312 169.551 265.443 171.314 262.558C173.118 259.606 176.08 256.536 180.774 252.695L178.241 249.6ZM164.835 271.884C164.835 285.694 175.269 296.06 189.587 296.06V292.06C177.41 292.06 168.835 283.417 168.835 271.884H164.835ZM189.587 296.06H193.907V292.06H189.587V296.06ZM193.907 296.06C205.039 296.06 212.8 297.573 217.727 300.496C220.151 301.934 221.874 303.705 223.005 305.817C224.141 307.939 224.739 310.516 224.739 313.644H228.739C228.739 310.003 228.041 306.748 226.531 303.929C225.016 301.1 222.743 298.821 219.768 297.056C213.894 293.571 205.24 292.06 193.907 292.06V296.06ZM224.739 313.644C224.739 319.558 222.463 324.231 218.492 327.465C214.477 330.735 208.558 332.668 201.107 332.668V336.668C209.209 336.668 216.105 334.568 221.018 330.566C225.976 326.529 228.739 320.689 228.739 313.644H224.739ZM201.107 332.668C191.442 332.668 183.872 328.989 174.916 319.473L172.003 322.214C181.479 332.282 190.036 336.668 201.107 336.668V332.668ZM174.964 319.527C170.538 314.468 164.797 311.932 157.907 311.932V315.932C163.689 315.932 168.317 318.004 171.954 322.161L174.964 319.527ZM157.907 311.932C144.147 311.932 133.155 322.89 133.155 336.396H137.155C137.155 325.133 146.323 315.932 157.907 315.932V311.932ZM133.155 336.396C133.155 341.683 134.711 346.691 137.543 350.782L140.832 348.505C138.48 345.108 137.155 340.9 137.155 336.396H133.155ZM137.587 350.844C152.686 370.975 176.343 382.172 203.123 382.172V378.172C177.488 378.172 155.065 367.48 140.787 348.444L137.587 350.844ZM203.123 382.172C246.36 382.172 279.427 352.67 279.427 313.356H275.427C275.427 350.073 244.559 378.172 203.123 378.172V382.172ZM279.427 313.356C279.427 284.791 261.244 261.843 234.768 254.406L233.686 258.257C258.475 265.22 275.427 286.624 275.427 313.356H279.427Z" fill="#ED0677"/>
<path d="M71.712 178.464C68.544 178.464 65.088 179.328 61.344 180.768L16.992 201.504C8.352 205.536 3.168 213.312 3.168 222.528C3.168 235.488 13.248 246.432 26.496 246.432C30.24 246.432 33.12 245.568 35.712 244.416L46.944 239.232V350.4C46.944 366.528 55.584 375.456 71.712 375.456C87.84 375.456 96.48 366.528 96.48 350.4V203.232C96.48 189.696 85.248 178.464 71.712 178.464ZM225.227 251.616L253.451 228.576C261.803 221.664 265.547 215.04 265.547 206.688C265.547 193.152 254.315 181.92 240.779 181.92H154.379C141.419 181.92 131.627 191.424 131.627 204.096C131.627 217.056 141.419 226.56 154.379 226.56H194.987L170.507 246.432C161.003 254.208 157.835 259.392 157.835 267.168C157.835 279.84 167.339 289.344 180.587 289.344H184.907C207.371 289.344 217.739 295.392 217.739 308.928C217.739 321.888 207.659 329.952 192.107 329.952C181.739 329.952 173.675 325.92 164.459 316.128C160.427 311.52 155.243 309.216 148.907 309.216C136.235 309.216 126.155 319.296 126.155 331.68C126.155 336.576 127.595 341.184 130.187 344.928C144.875 364.512 167.915 375.456 194.123 375.456C236.459 375.456 268.427 346.656 268.427 308.64C268.427 280.992 250.859 258.816 225.227 251.616Z" fill="#ED0677"/>
</svg>
