<svg width="92" height="99" viewBox="0 0 92 99" fill="none" xmlns="http://www.w3.org/2000/svg">
<path d="M55.841 14.8341L63.1883 9.63637L55.841 14.8341C59.9938 20.7043 66.2457 24.7519 73.3014 26.1381L74.1176 26.2984C80.471 27.5467 83.9812 34.4118 81.2732 40.2932L80.9253 41.0487C77.918 47.5802 77.5387 55.0183 79.866 61.8219L80.1352 62.6088L88.6508 59.6958L80.1352 62.6088C82.2309 68.7352 78.0406 75.2076 71.5932 75.8031L70.765 75.8796C63.6049 76.5409 56.9736 79.9315 52.2452 85.3488L51.6983 85.9755C47.4406 90.8536 39.7401 90.4609 36.0007 85.175L35.5203 84.496C31.3676 78.6258 25.1156 74.5782 18.0599 73.192L17.2438 73.0317L15.5087 81.8628L17.2437 73.0317C10.8903 71.7834 7.38016 64.9183 10.0882 59.0369L2.51528 55.5501L10.0882 59.0369L10.436 58.2814C13.4434 51.7499 13.8227 44.3118 11.4953 37.5082L3.10113 40.3797L11.4953 37.5082L11.2261 36.7213C9.13042 30.5949 13.3207 24.1225 19.7681 23.527L18.9577 14.7523L19.7682 23.527L20.5964 23.4505C27.7565 22.7892 34.3878 19.3986 39.1161 13.9813L39.663 13.3546L32.8826 7.43645L39.6631 13.3546C43.9208 8.47653 51.6212 8.8692 55.3606 14.1551L55.841 14.8341Z" stroke="#ED0677" stroke-width="18"/>
</svg>
