<svg width="29" height="27" viewBox="0 0 29 27" fill="none" xmlns="http://www.w3.org/2000/svg">
<path d="M27.2512 24.3702C27.1539 24.3702 27.0751 24.4491 27.0751 24.5464C27.0751 24.6437 27.154 24.7226 27.2512 24.7226C27.3485 24.7226 27.4274 24.6437 27.4274 24.5464C27.4274 24.4491 27.3485 24.3702 27.2512 24.3702Z" fill="#14B1E7"/>
<path d="M27.8407 24.9168C27.7434 24.9168 27.6645 24.9957 27.6645 25.093C27.6645 25.1903 27.7434 25.2691 27.8407 25.2691C27.938 25.2691 28.0169 25.1903 28.0169 25.093C28.0169 24.9957 27.938 24.9168 27.8407 24.9168Z" fill="#14B1E7"/>
<path d="M27.2512 25.506C27.1539 25.506 27.0751 25.5849 27.0751 25.6822C27.0751 25.7795 27.154 25.8584 27.2512 25.8584C27.3485 25.8584 27.4274 25.7795 27.4274 25.6822C27.4274 25.5849 27.3485 25.506 27.2512 25.506Z" fill="#14B1E7"/>
<path d="M26.1145 24.3702C26.0172 24.3702 25.9384 24.4491 25.9384 24.5464C25.9384 24.6437 26.0173 24.7226 26.1145 24.7226C26.2118 24.7226 26.2907 24.6437 26.2907 24.5464C26.2907 24.4491 26.2118 24.3702 26.1145 24.3702Z" fill="#14B1E7"/>
<path d="M26.7037 24.9168C26.6064 24.9168 26.5275 24.9957 26.5275 25.093C26.5275 25.1903 26.6064 25.2691 26.7037 25.2691C26.801 25.2691 26.8799 25.1903 26.8799 25.093C26.8799 24.9957 26.801 24.9168 26.7037 24.9168Z" fill="#14B1E7"/>
<path d="M26.1145 25.506C26.0172 25.506 25.9384 25.5849 25.9384 25.6822C25.9384 25.7795 26.0173 25.8584 26.1145 25.8584C26.2118 25.8584 26.2907 25.7795 26.2907 25.6822C26.2907 25.5849 26.2118 25.506 26.1145 25.506Z" fill="#14B1E7"/>
<path d="M24.9789 24.3702C24.8816 24.3702 24.8028 24.4491 24.8028 24.5464C24.8028 24.6437 24.8816 24.7226 24.9789 24.7226C25.0762 24.7226 25.1551 24.6437 25.1551 24.5464C25.1551 24.4491 25.0762 24.3702 24.9789 24.3702Z" fill="#14B1E7"/>
<path d="M25.5683 24.9168C25.471 24.9168 25.3921 24.9957 25.3921 25.093C25.3921 25.1903 25.471 25.2691 25.5683 25.2691C25.6656 25.2691 25.7445 25.1903 25.7445 25.093C25.7445 24.9957 25.6656 24.9168 25.5683 24.9168Z" fill="#14B1E7"/>
<path d="M24.9789 25.506C24.8816 25.506 24.8028 25.5849 24.8028 25.6822C24.8028 25.7795 24.8816 25.8584 24.9789 25.8584C25.0762 25.8584 25.1551 25.7795 25.1551 25.6822C25.1551 25.5849 25.0762 25.506 24.9789 25.506Z" fill="#14B1E7"/>
<path d="M23.8435 24.3702C23.7462 24.3702 23.6673 24.4491 23.6673 24.5464C23.6673 24.6437 23.7462 24.7226 23.8435 24.7226C23.9408 24.7226 24.0197 24.6437 24.0197 24.5464C24.0197 24.4491 23.9408 24.3702 23.8435 24.3702Z" fill="#14B1E7"/>
<path d="M24.433 24.9168C24.3357 24.9168 24.2568 24.9957 24.2568 25.093C24.2568 25.1903 24.3357 25.2691 24.433 25.2691C24.5302 25.2691 24.6091 25.1903 24.6091 25.093C24.6091 24.9957 24.5302 24.9168 24.433 24.9168Z" fill="#14B1E7"/>
<path d="M23.8435 25.506C23.7462 25.506 23.6673 25.5849 23.6673 25.6822C23.6673 25.7795 23.7462 25.8584 23.8435 25.8584C23.9408 25.8584 24.0197 25.7795 24.0197 25.6822C24.0197 25.5849 23.9408 25.506 23.8435 25.506Z" fill="#14B1E7"/>
<path d="M22.7081 24.3702C22.6108 24.3702 22.5319 24.4491 22.5319 24.5464C22.5319 24.6437 22.6108 24.7226 22.7081 24.7226C22.8054 24.7226 22.8842 24.6437 22.8842 24.5464C22.8842 24.4491 22.8054 24.3702 22.7081 24.3702Z" fill="#14B1E7"/>
<path d="M23.2975 24.9168C23.2003 24.9168 23.1214 24.9957 23.1214 25.093C23.1214 25.1903 23.2003 25.2691 23.2975 25.2691C23.3948 25.2691 23.4737 25.1903 23.4737 25.093C23.4737 24.9957 23.3948 24.9168 23.2975 24.9168Z" fill="#14B1E7"/>
<path d="M22.7081 25.506C22.6108 25.506 22.5319 25.5849 22.5319 25.6822C22.5319 25.7795 22.6108 25.8584 22.7081 25.8584C22.8054 25.8584 22.8842 25.7795 22.8842 25.6822C22.8842 25.5849 22.8054 25.506 22.7081 25.506Z" fill="#14B1E7"/>
<path d="M21.5728 24.3702C21.4754 24.3702 21.3966 24.4491 21.3966 24.5464C21.3966 24.6437 21.4755 24.7226 21.5728 24.7226C21.67 24.7226 21.7489 24.6437 21.7489 24.5464C21.7489 24.4491 21.67 24.3702 21.5728 24.3702Z" fill="#14B1E7"/>
<path d="M22.1621 24.9168C22.0649 24.9168 21.986 24.9957 21.986 25.093C21.986 25.1903 22.0649 25.2691 22.1621 25.2691C22.2594 25.2691 22.3383 25.1903 22.3383 25.093C22.3383 24.9957 22.2594 24.9168 22.1621 24.9168Z" fill="#14B1E7"/>
<path d="M21.5728 25.506C21.4754 25.506 21.3966 25.5849 21.3966 25.6822C21.3966 25.7795 21.4755 25.8584 21.5728 25.8584C21.67 25.8584 21.7489 25.7795 21.7489 25.6822C21.7489 25.5849 21.67 25.506 21.5728 25.506Z" fill="#14B1E7"/>
<path d="M20.4358 24.3702C20.3384 24.3702 20.2596 24.4491 20.2596 24.5464C20.2596 24.6437 20.3385 24.7226 20.4358 24.7226C20.533 24.7226 20.6119 24.6437 20.6119 24.5464C20.6119 24.4491 20.533 24.3702 20.4358 24.3702Z" fill="#14B1E7"/>
<path d="M21.0251 24.9168C20.9279 24.9168 20.849 24.9957 20.849 25.093C20.849 25.1903 20.9279 25.2691 21.0251 25.2691C21.1224 25.2691 21.2013 25.1903 21.2013 25.093C21.2013 24.9957 21.1224 24.9168 21.0251 24.9168Z" fill="#14B1E7"/>
<path d="M20.4358 25.506C20.3384 25.506 20.2596 25.5849 20.2596 25.6822C20.2596 25.7795 20.3385 25.8584 20.4358 25.8584C20.533 25.8584 20.6119 25.7795 20.6119 25.6822C20.6119 25.5849 20.533 25.506 20.4358 25.506Z" fill="#14B1E7"/>
<path d="M19.3004 24.3702C19.203 24.3702 19.1242 24.4491 19.1242 24.5464C19.1242 24.6437 19.2031 24.7226 19.3004 24.7226C19.3976 24.7226 19.4765 24.6437 19.4765 24.5464C19.4765 24.4491 19.3976 24.3702 19.3004 24.3702Z" fill="#14B1E7"/>
<path d="M19.8898 24.9168C19.7925 24.9168 19.7136 24.9957 19.7136 25.093C19.7136 25.1903 19.7925 25.2691 19.8898 25.2691C19.9871 25.2691 20.066 25.1903 20.066 25.093C20.066 24.9957 19.9871 24.9168 19.8898 24.9168Z" fill="#14B1E7"/>
<path d="M19.3004 25.506C19.203 25.506 19.1242 25.5849 19.1242 25.6822C19.1242 25.7795 19.2031 25.8584 19.3004 25.8584C19.3976 25.8584 19.4765 25.7795 19.4765 25.6822C19.4765 25.5849 19.3976 25.506 19.3004 25.506Z" fill="#14B1E7"/>
<path d="M18.165 24.3702C18.0677 24.3702 17.9889 24.4491 17.9889 24.5464C17.9889 24.6437 18.0677 24.7226 18.165 24.7226C18.2623 24.7226 18.3412 24.6437 18.3412 24.5464C18.3412 24.4491 18.2623 24.3702 18.165 24.3702Z" fill="#14B1E7"/>
<path d="M18.7544 24.9168C18.6571 24.9168 18.5782 24.9957 18.5782 25.093C18.5782 25.1903 18.6571 25.2691 18.7544 25.2691C18.8517 25.2691 18.9305 25.1903 18.9305 25.093C18.9305 24.9957 18.8517 24.9168 18.7544 24.9168Z" fill="#14B1E7"/>
<path d="M18.165 25.506C18.0677 25.506 17.9889 25.5849 17.9889 25.6822C17.9889 25.7795 18.0677 25.8584 18.165 25.8584C18.2623 25.8584 18.3412 25.7795 18.3412 25.6822C18.3412 25.5849 18.2623 25.506 18.165 25.506Z" fill="#14B1E7"/>
<path d="M17.0296 24.3702C16.9323 24.3702 16.8534 24.4491 16.8534 24.5464C16.8534 24.6437 16.9323 24.7226 17.0296 24.7226C17.1269 24.7226 17.2058 24.6437 17.2058 24.5464C17.2058 24.4491 17.1269 24.3702 17.0296 24.3702Z" fill="#14B1E7"/>
<path d="M17.619 24.9168C17.5217 24.9168 17.4428 24.9957 17.4428 25.093C17.4428 25.1903 17.5217 25.2691 17.619 25.2691C17.7163 25.2691 17.7951 25.1903 17.7951 25.093C17.7951 24.9957 17.7163 24.9168 17.619 24.9168Z" fill="#14B1E7"/>
<path d="M17.0296 25.506C16.9323 25.506 16.8534 25.5849 16.8534 25.6822C16.8534 25.7795 16.9323 25.8584 17.0296 25.8584C17.1269 25.8584 17.2058 25.7795 17.2058 25.6822C17.2058 25.5849 17.1269 25.506 17.0296 25.506Z" fill="#14B1E7"/>
<path d="M15.8926 24.3702C15.7953 24.3702 15.7165 24.4491 15.7165 24.5464C15.7165 24.6437 15.7953 24.7226 15.8926 24.7226C15.9899 24.7226 16.0688 24.6437 16.0688 24.5464C16.0688 24.4491 15.9899 24.3702 15.8926 24.3702Z" fill="#14B1E7"/>
<path d="M16.482 24.9168C16.3847 24.9168 16.3058 24.9957 16.3058 25.093C16.3058 25.1903 16.3847 25.2691 16.482 25.2691C16.5793 25.2691 16.6582 25.1903 16.6582 25.093C16.6582 24.9957 16.5793 24.9168 16.482 24.9168Z" fill="#14B1E7"/>
<path d="M15.8926 25.506C15.7953 25.506 15.7165 25.5849 15.7165 25.6822C15.7165 25.7795 15.7953 25.8584 15.8926 25.8584C15.9899 25.8584 16.0688 25.7795 16.0688 25.6822C16.0688 25.5849 15.9899 25.506 15.8926 25.506Z" fill="#14B1E7"/>
<path d="M14.7572 24.3702C14.6599 24.3702 14.581 24.4491 14.581 24.5464C14.581 24.6437 14.6599 24.7226 14.7572 24.7226C14.8545 24.7226 14.9334 24.6437 14.9334 24.5464C14.9334 24.4491 14.8545 24.3702 14.7572 24.3702Z" fill="#14B1E7"/>
<path d="M15.3466 24.9168C15.2494 24.9168 15.1705 24.9957 15.1705 25.093C15.1705 25.1903 15.2494 25.2691 15.3466 25.2691C15.4439 25.2691 15.5228 25.1903 15.5228 25.093C15.5228 24.9957 15.4439 24.9168 15.3466 24.9168Z" fill="#14B1E7"/>
<path d="M14.7572 25.506C14.6599 25.506 14.581 25.5849 14.581 25.6822C14.581 25.7795 14.6599 25.8584 14.7572 25.8584C14.8545 25.8584 14.9334 25.7795 14.9334 25.6822C14.9334 25.5849 14.8545 25.506 14.7572 25.506Z" fill="#14B1E7"/>
<path d="M13.6219 24.3702C13.5245 24.3702 13.4457 24.4491 13.4457 24.5464C13.4457 24.6437 13.5246 24.7226 13.6219 24.7226C13.7191 24.7226 13.798 24.6437 13.798 24.5464C13.798 24.4491 13.7191 24.3702 13.6219 24.3702Z" fill="#14B1E7"/>
<path d="M14.2112 24.9168C14.114 24.9168 14.0351 24.9957 14.0351 25.093C14.0351 25.1903 14.114 25.2691 14.2112 25.2691C14.3085 25.2691 14.3874 25.1903 14.3874 25.093C14.3874 24.9957 14.3086 24.9168 14.2112 24.9168Z" fill="#14B1E7"/>
<path d="M13.6219 25.506C13.5245 25.506 13.4457 25.5849 13.4457 25.6822C13.4457 25.7795 13.5246 25.8584 13.6219 25.8584C13.7191 25.8584 13.798 25.7795 13.798 25.6822C13.798 25.5849 13.7191 25.506 13.6219 25.506Z" fill="#14B1E7"/>
<path d="M12.4865 24.3702C12.3891 24.3702 12.3103 24.4491 12.3103 24.5464C12.3103 24.6437 12.3892 24.7226 12.4865 24.7226C12.5837 24.7226 12.6626 24.6437 12.6626 24.5464C12.6626 24.4491 12.5837 24.3702 12.4865 24.3702Z" fill="#14B1E7"/>
<path d="M13.0756 24.9168C12.9783 24.9168 12.8994 24.9957 12.8994 25.093C12.8994 25.1903 12.9783 25.2691 13.0756 25.2691C13.1729 25.2691 13.2518 25.1903 13.2518 25.093C13.2518 24.9957 13.1729 24.9168 13.0756 24.9168Z" fill="#14B1E7"/>
<path d="M12.4865 25.506C12.3891 25.506 12.3103 25.5849 12.3103 25.6822C12.3103 25.7795 12.3892 25.8584 12.4865 25.8584C12.5837 25.8584 12.6626 25.7795 12.6626 25.6822C12.6626 25.5849 12.5837 25.506 12.4865 25.506Z" fill="#14B1E7"/>
<path d="M11.3508 24.3702C11.2535 24.3702 11.1747 24.4491 11.1747 24.5464C11.1747 24.6437 11.2536 24.7226 11.3508 24.7226C11.4481 24.7226 11.527 24.6437 11.527 24.5464C11.527 24.4491 11.4481 24.3702 11.3508 24.3702Z" fill="#14B1E7"/>
<path d="M11.9391 24.9168C11.8419 24.9168 11.763 24.9957 11.763 25.093C11.763 25.1903 11.8419 25.2691 11.9391 25.2691C12.0364 25.2691 12.1153 25.1903 12.1153 25.093C12.1153 24.9957 12.0365 24.9168 11.9391 24.9168Z" fill="#14B1E7"/>
<path d="M11.3508 25.506C11.2535 25.506 11.1747 25.5849 11.1747 25.6822C11.1747 25.7795 11.2536 25.8584 11.3508 25.8584C11.4481 25.8584 11.527 25.7795 11.527 25.6822C11.527 25.5849 11.4481 25.506 11.3508 25.506Z" fill="#14B1E7"/>
<path d="M10.2141 24.3702C10.1167 24.3702 10.0379 24.4491 10.0379 24.5464C10.0379 24.6437 10.1168 24.7226 10.2141 24.7226C10.3114 24.7226 10.3902 24.6437 10.3902 24.5464C10.3902 24.4491 10.3114 24.3702 10.2141 24.3702Z" fill="#14B1E7"/>
<path d="M10.8035 24.9168C10.7062 24.9168 10.6273 24.9957 10.6273 25.093C10.6273 25.1903 10.7062 25.2691 10.8035 25.2691C10.9008 25.2691 10.9797 25.1903 10.9797 25.093C10.9797 24.9957 10.9008 24.9168 10.8035 24.9168Z" fill="#14B1E7"/>
<path d="M10.2141 25.506C10.1167 25.506 10.0379 25.5849 10.0379 25.6822C10.0379 25.7795 10.1168 25.8584 10.2141 25.8584C10.3114 25.8584 10.3902 25.7795 10.3902 25.6822C10.3902 25.5849 10.3114 25.506 10.2141 25.506Z" fill="#14B1E7"/>
<path d="M9.07873 24.3702C8.98139 24.3702 8.90257 24.4491 8.90257 24.5464C8.90257 24.6437 8.98145 24.7226 9.07873 24.7226C9.17601 24.7226 9.25489 24.6437 9.25489 24.5464C9.25489 24.4491 9.17601 24.3702 9.07873 24.3702Z" fill="#14B1E7"/>
<path d="M9.6681 24.9168C9.57082 24.9168 9.49194 24.9957 9.49194 25.093C9.49194 25.1903 9.57082 25.2691 9.6681 25.2691C9.76538 25.2691 9.84426 25.1903 9.84426 25.093C9.84426 24.9957 9.76544 24.9168 9.6681 24.9168Z" fill="#14B1E7"/>
<path d="M9.07873 25.506C8.98139 25.506 8.90257 25.5849 8.90257 25.6822C8.90257 25.7795 8.98145 25.8584 9.07873 25.8584C9.17601 25.8584 9.25489 25.7795 9.25489 25.6822C9.25489 25.5849 9.17601 25.506 9.07873 25.506Z" fill="#14B1E7"/>
<path d="M7.94332 24.3702C7.84598 24.3702 7.76716 24.4491 7.76716 24.5464C7.76716 24.6437 7.84604 24.7226 7.94332 24.7226C8.04059 24.7226 8.11947 24.6437 8.11947 24.5464C8.11947 24.4491 8.04059 24.3702 7.94332 24.3702Z" fill="#14B1E7"/>
<path d="M8.53245 24.9168C8.43517 24.9168 8.35629 24.9957 8.35629 25.093C8.35629 25.1903 8.43517 25.2691 8.53245 25.2691C8.62973 25.2691 8.70861 25.1903 8.70861 25.093C8.70861 24.9957 8.62979 24.9168 8.53245 24.9168Z" fill="#14B1E7"/>
<path d="M7.94332 25.506C7.84598 25.506 7.76716 25.5849 7.76716 25.6822C7.76716 25.7795 7.84604 25.8584 7.94332 25.8584C8.04059 25.8584 8.11947 25.7795 8.11947 25.6822C8.11947 25.5849 8.04059 25.506 7.94332 25.506Z" fill="#14B1E7"/>
<path d="M6.80767 24.3702C6.71034 24.3702 6.63152 24.4491 6.63152 24.5464C6.63152 24.6437 6.71039 24.7226 6.80767 24.7226C6.90495 24.7226 6.98383 24.6437 6.98383 24.5464C6.98383 24.4491 6.90495 24.3702 6.80767 24.3702Z" fill="#14B1E7"/>
<path d="M7.39599 24.9168C7.29872 24.9168 7.21984 24.9957 7.21984 25.093C7.21984 25.1903 7.29872 25.2691 7.39599 25.2691C7.49327 25.2691 7.57215 25.1903 7.57215 25.093C7.57215 24.9957 7.49333 24.9168 7.39599 24.9168Z" fill="#14B1E7"/>
<path d="M6.80767 25.506C6.71034 25.506 6.63152 25.5849 6.63152 25.6822C6.63152 25.7795 6.71039 25.8584 6.80767 25.8584C6.90495 25.8584 6.98383 25.7795 6.98383 25.6822C6.98383 25.5849 6.90495 25.506 6.80767 25.506Z" fill="#14B1E7"/>
<path d="M5.67121 24.3702C5.57387 24.3702 5.49505 24.4491 5.49505 24.5464C5.49505 24.6437 5.57393 24.7226 5.67121 24.7226C5.76849 24.7226 5.84737 24.6437 5.84737 24.5464C5.84737 24.4491 5.76849 24.3702 5.67121 24.3702Z" fill="#14B1E7"/>
<path d="M6.26035 24.9168C6.16307 24.9168 6.08419 24.9957 6.08419 25.093C6.08419 25.1903 6.16307 25.2691 6.26035 25.2691C6.35763 25.2691 6.43651 25.1903 6.43651 25.093C6.43651 24.9957 6.35763 24.9168 6.26035 24.9168Z" fill="#14B1E7"/>
<path d="M5.67121 25.506C5.57387 25.506 5.49505 25.5849 5.49505 25.6822C5.49505 25.7795 5.57393 25.8584 5.67121 25.8584C5.76849 25.8584 5.84737 25.7795 5.84737 25.6822C5.84737 25.5849 5.76849 25.506 5.67121 25.506Z" fill="#14B1E7"/>
<path d="M4.53557 24.3702C4.43823 24.3702 4.35941 24.4491 4.35941 24.5464C4.35941 24.6437 4.43829 24.7226 4.53557 24.7226C4.63284 24.7226 4.71172 24.6437 4.71172 24.5464C4.71172 24.4491 4.63284 24.3702 4.53557 24.3702Z" fill="#14B1E7"/>
<path d="M5.12495 24.9168C5.02767 24.9168 4.94879 24.9957 4.94879 25.093C4.94879 25.1903 5.02767 25.2691 5.12495 25.2691C5.22222 25.2691 5.3011 25.1903 5.3011 25.093C5.3011 24.9957 5.22222 24.9168 5.12495 24.9168Z" fill="#14B1E7"/>
<path d="M4.53557 25.506C4.43823 25.506 4.35941 25.5849 4.35941 25.6822C4.35941 25.7795 4.43829 25.8584 4.53557 25.8584C4.63284 25.8584 4.71172 25.7795 4.71172 25.6822C4.71172 25.5849 4.63284 25.506 4.53557 25.506Z" fill="#14B1E7"/>
<path d="M3.40017 24.3702C3.30283 24.3702 3.22401 24.4491 3.22401 24.5464C3.22401 24.6437 3.30289 24.7226 3.40017 24.7226C3.49745 24.7226 3.57633 24.6437 3.57633 24.5464C3.57633 24.4491 3.49745 24.3702 3.40017 24.3702Z" fill="#14B1E7"/>
<path d="M3.98931 24.9168C3.89203 24.9168 3.81315 24.9957 3.81315 25.093C3.81315 25.1903 3.89203 25.2691 3.98931 25.2691C4.08659 25.2691 4.16547 25.1903 4.16547 25.093C4.16547 24.9957 4.08659 24.9168 3.98931 24.9168Z" fill="#14B1E7"/>
<path d="M3.40017 25.506C3.30283 25.506 3.22401 25.5849 3.22401 25.6822C3.22401 25.7795 3.30289 25.8584 3.40017 25.8584C3.49745 25.8584 3.57633 25.7795 3.57633 25.6822C3.57633 25.5849 3.49745 25.506 3.40017 25.506Z" fill="#14B1E7"/>
<path d="M2.26453 24.3702C2.16719 24.3702 2.08837 24.4491 2.08837 24.5464C2.08837 24.6437 2.16725 24.7226 2.26453 24.7226C2.36181 24.7226 2.44068 24.6437 2.44068 24.5464C2.44068 24.4491 2.36181 24.3702 2.26453 24.3702Z" fill="#14B1E7"/>
<path d="M2.85285 24.9168C2.75557 24.9168 2.67669 24.9957 2.67669 25.093C2.67669 25.1903 2.75557 25.2691 2.85285 25.2691C2.95013 25.2691 3.02901 25.1903 3.02901 25.093C3.02906 24.9957 2.95018 24.9168 2.85285 24.9168Z" fill="#14B1E7"/>
<path d="M2.26453 25.506C2.16719 25.506 2.08837 25.5849 2.08837 25.6822C2.08837 25.7795 2.16725 25.8584 2.26453 25.8584C2.36181 25.8584 2.44068 25.7795 2.44068 25.6822C2.44068 25.5849 2.36181 25.506 2.26453 25.506Z" fill="#14B1E7"/>
<path d="M1.12783 24.3702C1.03055 24.3702 0.951673 24.4491 0.951673 24.5464C0.951673 24.6437 1.03055 24.7226 1.12783 24.7226C1.22511 24.7226 1.30399 24.6437 1.30399 24.5464C1.30399 24.4491 1.22511 24.3702 1.12783 24.3702Z" fill="#14B1E7"/>
<path d="M1.71721 24.9168C1.61993 24.9168 1.54105 24.9957 1.54105 25.093C1.54105 25.1903 1.61993 25.2691 1.71721 25.2691C1.81449 25.2691 1.89337 25.1903 1.89337 25.093C1.89342 24.9957 1.81455 24.9168 1.71721 24.9168Z" fill="#14B1E7"/>
<path d="M27.4698 10.5621H16.4045V9.35267C16.4045 8.83561 15.9839 8.41498 15.4669 8.41498H15.4354V7.57621C15.4354 7.34105 15.6267 7.14979 15.8619 7.14979H18.8731C19.5465 7.14979 20.1777 6.88441 20.6505 6.40251C21.1231 5.92077 21.3763 5.28451 21.3635 4.61083C21.338 3.26381 20.2037 2.16796 18.8352 2.16796H15.9016C15.6664 2.16796 15.4751 1.9767 15.4751 1.74154V0.852398C15.4751 0.726952 15.3734 0.625244 15.2479 0.625244C15.1225 0.625244 15.0208 0.726952 15.0208 0.852398V1.74159C15.0208 2.22725 15.4159 2.62232 15.9016 2.62232H18.8352C19.958 2.62232 20.8884 3.51822 20.9093 4.61952C20.9199 5.17025 20.7127 5.69044 20.3262 6.08438C19.9395 6.47843 19.4235 6.69553 18.8731 6.69553H15.8619C15.3762 6.69553 14.9811 7.09061 14.9811 7.57627V8.41503H14.0884V7.31254C14.0884 6.48014 14.7657 5.80288 15.5981 5.80288H18.8506C19.4809 5.80288 19.9928 5.31972 20.0161 4.703C20.028 4.38941 19.9146 4.09218 19.6969 3.86605C19.479 3.6398 19.1865 3.51515 18.8731 3.51515H15.6377C14.8052 3.51515 14.1279 2.83789 14.1279 2.00543V0.871422C14.1279 0.745976 14.0262 0.644268 13.9008 0.644268C13.7754 0.644268 13.6736 0.745976 13.6736 0.871422V2.00537C13.6736 3.08833 14.5547 3.9694 15.6377 3.9694H18.8731C19.0618 3.9694 19.2382 4.04459 19.3696 4.18111C19.5009 4.31746 19.5693 4.49674 19.5622 4.68579C19.5484 5.05128 19.2291 5.34857 18.8506 5.34857H15.5981C14.5152 5.34857 13.6341 6.22964 13.6341 7.31254V8.41503H13.6252C13.1081 8.41503 12.6876 8.83566 12.6876 9.35272V10.5622H1.53022C0.686459 10.5621 0 11.2486 0 12.0923V24.8441C0 25.6878 0.686459 26.3743 1.53022 26.3743H27.4698C28.3135 26.3743 29 25.6878 29 24.8441V12.0923C29 11.2486 28.3135 10.5621 27.4698 10.5621ZM13.1419 9.35272C13.1419 9.08622 13.3588 8.86934 13.6253 8.86934H15.4669C15.7334 8.86934 15.9503 9.08616 15.9503 9.35272V10.5622H13.142L13.1419 9.35272ZM0.454308 12.0923C0.454308 11.4991 0.936953 11.0165 1.53022 11.0165H27.4698C28.063 11.0165 28.5457 11.4991 28.5457 12.0923V22.7348C28.5457 23.328 28.063 23.8106 27.4698 23.8106H1.53022C0.936953 23.8106 0.454308 23.3279 0.454308 22.7347V12.0923ZM0.461917 23.8287C0.459305 23.8312 0.45675 23.8336 0.454308 23.8361V23.8216C0.456806 23.824 0.459419 23.8263 0.461917 23.8287ZM27.4698 25.9199H1.53022C1.40171 25.9199 1.27893 25.8961 1.16456 25.8545C1.24441 25.8378 1.30443 25.7671 1.30443 25.6822C1.30443 25.5849 1.22555 25.506 1.12827 25.506C1.03099 25.506 0.952116 25.5849 0.952116 25.6822C0.952116 25.7111 0.959725 25.7379 0.972048 25.762C0.780785 25.6452 0.627967 25.4715 0.539547 25.2634C0.553177 25.2668 0.567146 25.2691 0.581798 25.2691C0.679077 25.2691 0.757956 25.1902 0.757956 25.0929C0.757956 24.9956 0.679077 24.9167 0.581798 24.9167C0.535175 24.9167 0.493094 24.9351 0.461577 24.9647C0.45709 24.925 0.454308 24.8848 0.454308 24.844V24.0783C0.486393 24.1121 0.531483 24.1334 0.581741 24.1334C0.648297 24.1334 0.70554 24.0961 0.735468 24.0416C0.967278 24.1831 1.23929 24.265 1.53017 24.265H27.4698C27.8888 24.265 28.269 24.0955 28.5456 23.8216V24.4717C28.5175 24.412 28.4571 24.3704 28.3867 24.3704C28.2893 24.3704 28.2105 24.4493 28.2105 24.5465C28.2105 24.6438 28.2894 24.7227 28.3867 24.7227C28.4572 24.7227 28.5175 24.6811 28.5456 24.6213V24.8441C28.5457 25.4373 28.063 25.9199 27.4698 25.9199Z" fill="#14B1E7"/>
<path d="M19.1676 20.3066H9.68752C9.31011 20.3066 9.003 20.6137 9.003 20.9912V21.9059C9.003 22.2833 9.31011 22.5904 9.68752 22.5904H19.1676C19.545 22.5904 19.8521 22.2834 19.8521 21.9059V20.9912C19.8521 20.6137 19.545 20.3066 19.1676 20.3066ZM19.3978 21.9058C19.3978 22.0328 19.2945 22.1361 19.1676 22.1361H9.68752C9.5606 22.1361 9.4573 22.0328 9.4573 21.9058V20.9912C9.4573 20.8642 9.5606 20.7609 9.68752 20.7609H19.1676C19.2945 20.7609 19.3978 20.8642 19.3978 20.9912V21.9058Z" fill="#14B1E7"/>
<path d="M7.15195 20.3066H4.96826C4.59085 20.3066 4.28373 20.6136 4.28373 20.9912V21.9059C4.28373 22.2833 4.59085 22.5904 4.96826 22.5904H7.15189C7.52937 22.5904 7.83642 22.2834 7.83642 21.9059V20.9912C7.83642 20.6137 7.52937 20.3066 7.15195 20.3066ZM7.38211 21.9058C7.38211 22.0328 7.27887 22.1361 7.15189 22.1361H4.96826C4.84128 22.1361 4.73804 22.0328 4.73804 21.9058V20.9912C4.73804 20.8642 4.84134 20.7609 4.96826 20.7609H7.15189C7.27881 20.7609 7.38211 20.8642 7.38211 20.9912V21.9058Z" fill="#14B1E7"/>
<path d="M22.5064 20.3066H21.5859C21.2084 20.3066 20.9014 20.6136 20.9014 20.9912V21.9059C20.9014 22.2833 21.2084 22.5904 21.5859 22.5904H22.5064C22.8838 22.5904 23.1909 22.2834 23.1909 21.9059V20.9912C23.1908 20.6137 22.8838 20.3066 22.5064 20.3066ZM22.7365 21.9058C22.7365 22.0328 22.6332 22.1361 22.5063 22.1361H21.5858C21.4589 22.1361 21.3556 22.0328 21.3556 21.9058V20.9912C21.3556 20.8642 21.4589 20.7609 21.5858 20.7609H22.5063C22.6332 20.7609 22.7365 20.8642 22.7365 20.9912V21.9058Z" fill="#14B1E7"/>
<path d="M11.5507 15.5387H12.4711C12.8486 15.5387 13.1557 15.2316 13.1557 14.8541V13.9394C13.1557 13.562 12.8486 13.2549 12.4711 13.2549H11.5507C11.1733 13.2549 10.8662 13.5619 10.8662 13.9394V14.8541C10.8662 15.2316 11.1733 15.5387 11.5507 15.5387ZM11.3205 13.9394C11.3205 13.8125 11.4238 13.7092 11.5507 13.7092H12.4711C12.5981 13.7092 12.7014 13.8124 12.7014 13.9394V14.8541C12.7014 14.9811 12.5981 15.0844 12.4711 15.0844H11.5507C11.4238 15.0844 11.3205 14.9811 11.3205 14.8541V13.9394Z" fill="#14B1E7"/>
<path d="M7.84271 15.5387H8.76314C9.14061 15.5387 9.44767 15.2316 9.44767 14.8541V13.9394C9.44767 13.562 9.14061 13.2549 8.76314 13.2549H7.84271C7.46529 13.2549 7.15818 13.5619 7.15818 13.9394V14.8541C7.15818 15.2316 7.46524 15.5387 7.84271 15.5387ZM7.61249 13.9394C7.61249 13.8125 7.71579 13.7092 7.84271 13.7092H8.76314C8.89006 13.7092 8.99336 13.8124 8.99336 13.9394V14.8541C8.99336 14.9811 8.89012 15.0844 8.76314 15.0844H7.84271C7.71579 15.0844 7.61249 14.9811 7.61249 14.8541V13.9394Z" fill="#14B1E7"/>
<path d="M4.13342 15.5387H5.05391C5.43132 15.5387 5.73844 15.2316 5.73844 14.8541V13.9394C5.73844 13.562 5.43138 13.2549 5.05391 13.2549H4.13342C3.75595 13.2549 3.4489 13.5619 3.4489 13.9394V14.8541C3.4489 15.2316 3.75601 15.5387 4.13342 15.5387ZM3.9032 13.9394C3.9032 13.8125 4.0065 13.7092 4.13342 13.7092H5.05391C5.18083 13.7092 5.28413 13.8124 5.28413 13.9394V14.8541C5.28413 14.9811 5.18089 15.0844 5.05391 15.0844H4.13342C4.0065 15.0844 3.9032 14.9811 3.9032 14.8541V13.9394Z" fill="#14B1E7"/>
<path d="M18.9699 15.5387H19.8903C20.2678 15.5387 20.5749 15.2316 20.5749 14.8541V13.9394C20.5749 13.562 20.2678 13.2549 19.8903 13.2549H18.9699C18.5925 13.2549 18.2853 13.5619 18.2853 13.9394V14.8541C18.2853 15.2316 18.5925 15.5387 18.9699 15.5387ZM18.7396 13.9394C18.7396 13.8125 18.8429 13.7092 18.9699 13.7092H19.8903C20.0173 13.7092 20.1206 13.8124 20.1206 13.9394V14.8541C20.1206 14.9811 20.0173 15.0844 19.8903 15.0844H18.9699C18.843 15.0844 18.7396 14.9811 18.7396 14.8541V13.9394Z" fill="#14B1E7"/>
<path d="M15.26 15.5387H16.1804C16.5579 15.5387 16.8649 15.2316 16.8649 14.8541V13.9394C16.8649 13.562 16.5579 13.2549 16.1804 13.2549H15.26C14.8825 13.2549 14.5755 13.5619 14.5755 13.9394V14.8541C14.5755 15.2316 14.8825 15.5387 15.26 15.5387ZM15.0298 13.9394C15.0298 13.8125 15.1331 13.7092 15.26 13.7092H16.1804C16.3074 13.7092 16.4106 13.8124 16.4106 13.9394V14.8541C16.4106 14.9811 16.3074 15.0844 16.1804 15.0844H15.26C15.1331 15.0844 15.0298 14.9811 15.0298 14.8541V13.9394Z" fill="#14B1E7"/>
<path d="M22.6793 15.5387H23.5997C23.9772 15.5387 24.2842 15.2316 24.2842 14.8541V13.9394C24.2842 13.562 23.9772 13.2549 23.5997 13.2549H22.6793C22.3019 13.2549 21.9947 13.5619 21.9947 13.9394V14.8541C21.9947 15.2316 22.3019 15.5387 22.6793 15.5387ZM22.4491 13.9394C22.4491 13.8125 22.5523 13.7092 22.6793 13.7092H23.5998C23.7267 13.7092 23.83 13.8124 23.83 13.9394V14.8541C23.83 14.9811 23.7267 15.0844 23.5998 15.0844H22.6793C22.5524 15.0844 22.4491 14.9811 22.4491 14.8541V13.9394Z" fill="#14B1E7"/>
<path d="M10.2593 19.1546H11.1798C11.5572 19.1546 11.8643 18.8475 11.8643 18.4701V17.5553C11.8643 17.1779 11.5572 16.8708 11.1798 16.8708H10.2593C9.88186 16.8708 9.5748 17.1778 9.5748 17.5553V18.4701C9.57475 18.8475 9.88186 19.1546 10.2593 19.1546ZM10.0291 17.5553C10.0291 17.4284 10.1324 17.3251 10.2593 17.3251H11.1797C11.3066 17.3251 11.4099 17.4283 11.4099 17.5553V18.4701C11.4099 18.597 11.3067 18.7003 11.1797 18.7003H10.2593C10.1323 18.7003 10.0291 18.597 10.0291 18.4701V17.5553Z" fill="#14B1E7"/>
<path d="M6.54875 19.1546H7.46917C7.84659 19.1546 8.1537 18.8475 8.1537 18.4701V17.5553C8.1537 17.1779 7.84665 16.8708 7.46917 16.8708H6.54875C6.17133 16.8708 5.86422 17.1778 5.86422 17.5553V18.4701C5.86422 18.8475 6.17133 19.1546 6.54875 19.1546ZM6.31853 17.5553C6.31853 17.4284 6.42182 17.3251 6.54875 17.3251H7.46917C7.5961 17.3251 7.69939 17.4283 7.69939 17.5553V18.4701C7.69939 18.597 7.59615 18.7003 7.46917 18.7003H6.54875C6.42177 18.7003 6.31853 18.597 6.31853 18.4701V17.5553Z" fill="#14B1E7"/>
<path d="M2.83941 19.1546H3.75983C4.13725 19.1546 4.44436 18.8475 4.44436 18.4701V17.5553C4.44436 17.1779 4.13731 16.8708 3.75983 16.8708H2.83941C2.46199 16.8708 2.15488 17.1778 2.15488 17.5553V18.4701C2.15488 18.8475 2.46193 19.1546 2.83941 19.1546ZM2.60919 17.5553C2.60919 17.4284 2.71248 17.3251 2.83941 17.3251H3.75983C3.88676 17.3251 3.99005 17.4283 3.99005 17.5553V18.4701C3.99005 18.597 3.88681 18.7003 3.75983 18.7003H2.83941C2.71248 18.7003 2.60919 18.597 2.60919 18.4701V17.5553Z" fill="#14B1E7"/>
<path d="M17.6772 19.1546H18.5976C18.9751 19.1546 19.2821 18.8475 19.2821 18.4701V17.5553C19.2821 17.1779 18.9751 16.8708 18.5976 16.8708H17.6772C17.2998 16.8708 16.9927 17.1778 16.9927 17.5553V18.4701C16.9927 18.8475 17.2998 19.1546 17.6772 19.1546ZM17.447 17.5553C17.447 17.4284 17.5503 17.3251 17.6772 17.3251H18.5977C18.7246 17.3251 18.8279 17.4283 18.8279 17.5553V18.4701C18.8279 18.597 18.7246 18.7003 18.5977 18.7003H17.6772C17.5503 18.7003 17.447 18.597 17.447 18.4701V17.5553Z" fill="#14B1E7"/>
<path d="M13.9673 19.1546H14.8878C15.2652 19.1546 15.5723 18.8475 15.5723 18.4701V17.5553C15.5723 17.1779 15.2652 16.8708 14.8878 16.8708H13.9673C13.5899 16.8708 13.2828 17.1778 13.2828 17.5553V18.4701C13.2828 18.8475 13.5899 19.1546 13.9673 19.1546ZM13.7371 17.5553C13.7371 17.4284 13.8404 17.3251 13.9673 17.3251H14.8878C15.0147 17.3251 15.118 17.4283 15.118 17.5553V18.4701C15.118 18.597 15.0147 18.7003 14.8878 18.7003H13.9673C13.8404 18.7003 13.7371 18.597 13.7371 18.4701V17.5553Z" fill="#14B1E7"/>
<path d="M25.0948 20.0296H26.0153C26.3927 20.0296 26.6998 19.7226 26.6998 19.3451V16.6805C26.6998 16.303 26.3927 15.9959 26.0153 15.9959H25.0948C24.7173 15.9959 24.4103 16.303 24.4103 16.6805V19.3451C24.4103 19.7226 24.7174 20.0296 25.0948 20.0296ZM24.8646 16.6805C24.8646 16.5536 24.9679 16.4503 25.0948 16.4503H26.0153C26.1422 16.4503 26.2455 16.5536 26.2455 16.6805V19.3451C26.2455 19.472 26.1423 19.5754 26.0153 19.5754H25.0948C24.9679 19.5754 24.8646 19.4721 24.8646 19.3451V16.6805Z" fill="#14B1E7"/>
<path d="M21.3868 19.1546H22.3073C22.6847 19.1546 22.9918 18.8475 22.9918 18.4701V17.5553C22.9918 17.1779 22.6847 16.8708 22.3073 16.8708H21.3868C21.0094 16.8708 20.7023 17.1778 20.7023 17.5553V18.4701C20.7023 18.8475 21.0094 19.1546 21.3868 19.1546ZM21.1566 17.5553C21.1566 17.4284 21.2599 17.3251 21.3868 17.3251H22.3073C22.4342 17.3251 22.5375 17.4283 22.5375 17.5553V18.4701C22.5375 18.597 22.4342 18.7003 22.3073 18.7003H21.3868C21.2599 18.7003 21.1566 18.597 21.1566 18.4701V17.5553Z" fill="#14B1E7"/>
<path d="M26.8536 13.2523C27.2314 13.2523 27.5376 12.9461 27.5376 12.5684C27.5376 12.1906 27.2314 11.8844 26.8536 11.8844C26.4759 11.8844 26.1697 12.1907 26.1697 12.5684C26.1697 12.9461 26.4759 13.2523 26.8536 13.2523Z" fill="#14B1E7"/>
</svg>
