<svg width="34" height="33" viewBox="0 0 34 33" fill="none" xmlns="http://www.w3.org/2000/svg">
<path d="M17.0778 32.328C20.0858 32.328 22.2618 30.088 22.2618 27.08V21.256H28.6618C31.9258 21.256 33.5898 18.76 33.5898 16.328C33.5898 13.832 31.9258 11.4 28.6618 11.4H22.2618V5.576C22.2618 2.568 20.0858 0.327999 17.0778 0.327999C14.0698 0.327999 11.8938 2.568 11.8938 5.576V11.4H5.42975C2.16575 11.4 0.50175 13.832 0.50175 16.328C0.50175 18.76 2.16575 21.256 5.42975 21.256H11.8938V27.08C11.8938 30.088 14.0698 32.328 17.0778 32.328Z" fill="#14B1E7"/>
</svg>
