<svg width="26" height="26" viewBox="0 0 26 26" fill="none" xmlns="http://www.w3.org/2000/svg">
<path d="M25.4928 0.935897L25.5139 0.664733C25.4654 0.680537 25.4188 0.746448 25.4188 0.804329C25.4188 0.857231 25.4529 0.907134 25.4928 0.935897Z" fill="white"/>
<path d="M25.0877 1.45294C25.175 1.45294 25.2458 1.38215 25.2458 1.29479C25.2458 1.20744 25.175 1.13665 25.0877 1.13665C25.0004 1.13665 24.9295 1.20744 24.9295 1.29479C24.9295 1.38215 25.0003 1.45294 25.0877 1.45294Z" fill="white"/>
<path d="M24.5571 1.98197C24.6445 1.98197 24.7153 1.91118 24.7153 1.82382C24.7153 1.73647 24.6445 1.66568 24.5571 1.66568C24.4698 1.66568 24.399 1.73647 24.399 1.82382C24.399 1.91118 24.4698 1.98197 24.5571 1.98197Z" fill="white"/>
<path d="M25.0877 2.47264C25.175 2.47264 25.2458 2.40185 25.2458 2.31449C25.2458 2.22719 25.175 2.15635 25.0877 2.15635C25.0004 2.15635 24.9295 2.22719 24.9295 2.31449C24.9295 2.4018 25.0003 2.47264 25.0877 2.47264Z" fill="white"/>
<path d="M24.5571 3.00167C24.6445 3.00167 24.7153 2.93088 24.7153 2.84352C24.7153 2.75617 24.6445 2.68538 24.5571 2.68538C24.4698 2.68538 24.399 2.75617 24.399 2.84352C24.399 2.93088 24.4698 3.00167 24.5571 3.00167Z" fill="white"/>
<path d="M25.0877 3.49218C25.175 3.49218 25.2458 3.42139 25.2458 3.33404C25.2458 3.24673 25.175 3.17589 25.0877 3.17589C25.0004 3.17589 24.9295 3.24673 24.9295 3.33404C24.9295 3.42134 25.0003 3.49218 25.0877 3.49218Z" fill="white"/>
<path d="M24.5571 4.02121C24.6445 4.02121 24.7153 3.95042 24.7153 3.86307C24.7153 3.77571 24.6445 3.70492 24.5571 3.70492C24.4698 3.70492 24.399 3.77576 24.399 3.86307C24.399 3.95042 24.4698 4.02121 24.5571 4.02121Z" fill="white"/>
<path d="M24.5571 5.0409C24.6445 5.0409 24.7153 4.97012 24.7153 4.88276C24.7153 4.7954 24.6445 4.72461 24.5571 4.72461C24.4698 4.72461 24.399 4.7954 24.399 4.88276C24.399 4.97006 24.4698 5.0409 24.5571 5.0409Z" fill="white"/>
<path d="M24.5571 6.06045C24.6445 6.06045 24.7153 5.98966 24.7153 5.90231C24.7153 5.81495 24.6445 5.74416 24.5571 5.74416C24.4698 5.74416 24.399 5.81495 24.399 5.90231C24.399 5.98966 24.4698 6.06045 24.5571 6.06045Z" fill="white"/>
<path d="M24.0679 2.47264C24.1552 2.47264 24.226 2.40185 24.226 2.31449C24.226 2.22719 24.1552 2.15635 24.0679 2.15635C23.9805 2.15635 23.9097 2.22719 23.9097 2.31449C23.9097 2.4018 23.9805 2.47264 24.0679 2.47264Z" fill="white"/>
<path d="M23.5385 3.00167C23.6259 3.00167 23.6967 2.93088 23.6967 2.84352C23.6967 2.75617 23.6259 2.68538 23.5385 2.68538C23.4512 2.68538 23.3804 2.75617 23.3804 2.84352C23.3804 2.93088 23.4512 3.00167 23.5385 3.00167Z" fill="white"/>
<path d="M24.0679 3.49218C24.1552 3.49218 24.226 3.42139 24.226 3.33404C24.226 3.24673 24.1552 3.17589 24.0679 3.17589C23.9805 3.17589 23.9097 3.24673 23.9097 3.33404C23.9097 3.42134 23.9805 3.49218 24.0679 3.49218Z" fill="white"/>
<path d="M23.5385 4.02121C23.6259 4.02121 23.6967 3.95042 23.6967 3.86307C23.6967 3.77571 23.6259 3.70492 23.5385 3.70492C23.4512 3.70492 23.3804 3.77576 23.3804 3.86307C23.3804 3.95042 23.4512 4.02121 23.5385 4.02121Z" fill="white"/>
<path d="M24.0679 4.51193C24.1552 4.51193 24.226 4.44113 24.226 4.35379C24.226 4.26645 24.1552 4.19564 24.0679 4.19564C23.9805 4.19564 23.9097 4.26645 23.9097 4.35379C23.9097 4.44113 23.9805 4.51193 24.0679 4.51193Z" fill="white"/>
<path d="M23.5385 5.0409C23.6259 5.0409 23.6967 4.97012 23.6967 4.88276C23.6967 4.7954 23.6259 4.72461 23.5385 4.72461C23.4512 4.72461 23.3804 4.7954 23.3804 4.88276C23.3804 4.97006 23.4512 5.0409 23.5385 5.0409Z" fill="white"/>
<path d="M24.0679 5.53147C24.1552 5.53147 24.226 5.46068 24.226 5.37333C24.226 5.28597 24.1552 5.21518 24.0679 5.21518C23.9805 5.21518 23.9097 5.28602 23.9097 5.37333C23.9097 5.46068 23.9805 5.53147 24.0679 5.53147Z" fill="white"/>
<path d="M23.5385 6.06045C23.6259 6.06045 23.6967 5.98966 23.6967 5.90231C23.6967 5.81495 23.6259 5.74416 23.5385 5.74416C23.4512 5.74416 23.3804 5.81495 23.3804 5.90231C23.3804 5.98966 23.4512 6.06045 23.5385 6.06045Z" fill="white"/>
<path d="M24.0679 6.55118C24.1552 6.55118 24.226 6.48039 24.226 6.39303C24.226 6.30573 24.1552 6.23489 24.0679 6.23489C23.9805 6.23489 23.9097 6.30568 23.9097 6.39303C23.9097 6.48039 23.9805 6.55118 24.0679 6.55118Z" fill="white"/>
<path d="M23.5385 7.0802C23.6259 7.0802 23.6967 7.00941 23.6967 6.92206C23.6967 6.8347 23.6259 6.76391 23.5385 6.76391C23.4512 6.76391 23.3804 6.8347 23.3804 6.92206C23.3804 7.00936 23.4512 7.0802 23.5385 7.0802Z" fill="white"/>
<path d="M23.048 3.49218C23.1353 3.49218 23.2061 3.42139 23.2061 3.33404C23.2061 3.24673 23.1353 3.17589 23.048 3.17589C22.9606 3.17589 22.8898 3.24673 22.8898 3.33404C22.8898 3.42134 22.9606 3.49218 23.048 3.49218Z" fill="white"/>
<path d="M22.5187 4.02121C22.606 4.02121 22.6768 3.95042 22.6768 3.86307C22.6768 3.77571 22.606 3.70492 22.5187 3.70492C22.4313 3.70492 22.3605 3.77576 22.3605 3.86307C22.3605 3.95042 22.4313 4.02121 22.5187 4.02121Z" fill="white"/>
<path d="M23.048 4.51193C23.1353 4.51193 23.2061 4.44113 23.2061 4.35379C23.2061 4.26645 23.1353 4.19564 23.048 4.19564C22.9606 4.19564 22.8898 4.26645 22.8898 4.35379C22.8898 4.44113 22.9606 4.51193 23.048 4.51193Z" fill="white"/>
<path d="M22.5187 5.0409C22.606 5.0409 22.6768 4.97012 22.6768 4.88276C22.6768 4.7954 22.606 4.72461 22.5187 4.72461C22.4313 4.72461 22.3605 4.7954 22.3605 4.88276C22.3605 4.97006 22.4313 5.0409 22.5187 5.0409Z" fill="white"/>
<path d="M23.048 5.53147C23.1353 5.53147 23.2061 5.46068 23.2061 5.37333C23.2061 5.28597 23.1353 5.21518 23.048 5.21518C22.9606 5.21518 22.8898 5.28602 22.8898 5.37333C22.8898 5.46068 22.9606 5.53147 23.048 5.53147Z" fill="white"/>
<path d="M22.5187 6.06045C22.606 6.06045 22.6768 5.98966 22.6768 5.90231C22.6768 5.81495 22.606 5.74416 22.5187 5.74416C22.4313 5.74416 22.3605 5.81495 22.3605 5.90231C22.3605 5.98966 22.4313 6.06045 22.5187 6.06045Z" fill="white"/>
<path d="M23.048 6.55118C23.1353 6.55118 23.2061 6.48039 23.2061 6.39303C23.2061 6.30573 23.1353 6.23489 23.048 6.23489C22.9606 6.23489 22.8898 6.30568 22.8898 6.39303C22.8898 6.48039 22.9606 6.55118 23.048 6.55118Z" fill="white"/>
<path d="M22.5187 7.0802C22.606 7.0802 22.6768 7.00941 22.6768 6.92206C22.6768 6.8347 22.606 6.76391 22.5187 6.76391C22.4313 6.76391 22.3605 6.8347 22.3605 6.92206C22.3605 7.00936 22.4313 7.0802 22.5187 7.0802Z" fill="white"/>
<path d="M23.048 7.57073C23.1353 7.57073 23.2061 7.49994 23.2061 7.41259C23.2061 7.32523 23.1353 7.25444 23.048 7.25444C22.9606 7.25444 22.8898 7.32523 22.8898 7.41259C22.8898 7.49994 22.9606 7.57073 23.048 7.57073Z" fill="white"/>
<path d="M22.5187 8.0997C22.606 8.0997 22.6768 8.02891 22.6768 7.94155C22.6768 7.8542 22.606 7.78341 22.5187 7.78341C22.4313 7.78341 22.3605 7.8542 22.3605 7.94155C22.3605 8.02886 22.4313 8.0997 22.5187 8.0997Z" fill="white"/>
<path d="M22.0281 4.51193C22.1154 4.51193 22.1862 4.44113 22.1862 4.35379C22.1862 4.26645 22.1154 4.19564 22.0281 4.19564C21.9408 4.19564 21.87 4.26645 21.87 4.35379C21.87 4.44113 21.9408 4.51193 22.0281 4.51193Z" fill="white"/>
<path d="M21.4988 5.0409C21.5862 5.0409 21.657 4.97012 21.657 4.88276C21.657 4.7954 21.5861 4.72461 21.4988 4.72461C21.4115 4.72461 21.3407 4.7954 21.3407 4.88276C21.3407 4.97006 21.4115 5.0409 21.4988 5.0409Z" fill="white"/>
<path d="M22.0281 5.53147C22.1155 5.53147 22.1862 5.46068 22.1862 5.37333C22.1862 5.28597 22.1154 5.21518 22.0281 5.21518C21.9407 5.21518 21.87 5.28602 21.87 5.37333C21.8699 5.46068 21.9407 5.53147 22.0281 5.53147Z" fill="white"/>
<path d="M21.4988 6.06045C21.5862 6.06045 21.657 5.98966 21.657 5.90231C21.657 5.81495 21.5861 5.74416 21.4988 5.74416C21.4115 5.74416 21.3407 5.81495 21.3407 5.90231C21.3407 5.98966 21.4115 6.06045 21.4988 6.06045Z" fill="white"/>
<path d="M22.0281 6.55118C22.1155 6.55118 22.1862 6.48039 22.1862 6.39303C22.1862 6.30573 22.1154 6.23489 22.0281 6.23489C21.9407 6.23489 21.87 6.30568 21.87 6.39303C21.8699 6.48039 21.9407 6.55118 22.0281 6.55118Z" fill="white"/>
<path d="M21.4988 7.0802C21.5862 7.0802 21.657 7.00941 21.657 6.92206C21.657 6.8347 21.5861 6.76391 21.4988 6.76391C21.4115 6.76391 21.3407 6.8347 21.3407 6.92206C21.3407 7.00936 21.4115 7.0802 21.4988 7.0802Z" fill="white"/>
<path d="M22.0281 7.57073C22.1155 7.57073 22.1862 7.49994 22.1862 7.41259C22.1862 7.32523 22.1154 7.25444 22.0281 7.25444C21.9407 7.25444 21.87 7.32523 21.87 7.41259C21.8699 7.49994 21.9407 7.57073 22.0281 7.57073Z" fill="white"/>
<path d="M21.4988 8.0997C21.5862 8.0997 21.657 8.02891 21.657 7.94155C21.657 7.8542 21.5861 7.78341 21.4988 7.78341C21.4115 7.78341 21.3407 7.8542 21.3407 7.94155C21.3407 8.02886 21.4115 8.0997 21.4988 8.0997Z" fill="white"/>
<path d="M22.0281 8.59026C22.1155 8.59026 22.1862 8.51947 22.1862 8.43212C22.1862 8.34481 22.1154 8.27397 22.0281 8.27397C21.9407 8.27397 21.87 8.34481 21.87 8.43212C21.8699 8.51947 21.9407 8.59026 22.0281 8.59026Z" fill="white"/>
<path d="M21.4988 9.11945C21.5862 9.11945 21.657 9.04866 21.657 8.9613C21.657 8.87395 21.5861 8.80316 21.4988 8.80316C21.4115 8.80316 21.3407 8.874 21.3407 8.9613C21.3407 9.04866 21.4115 9.11945 21.4988 9.11945Z" fill="white"/>
<path d="M21.0082 5.53147C21.0956 5.53147 21.1664 5.46068 21.1664 5.37333C21.1664 5.28597 21.0956 5.21518 21.0082 5.21518C20.9209 5.21518 20.8501 5.28602 20.8501 5.37333C20.85 5.46068 20.9209 5.53147 21.0082 5.53147Z" fill="white"/>
<path d="M20.4789 6.06045C20.5663 6.06045 20.6371 5.98966 20.6371 5.90231C20.6371 5.81495 20.5663 5.74416 20.4789 5.74416C20.3916 5.74416 20.3208 5.81495 20.3208 5.90231C20.3208 5.98966 20.3916 6.06045 20.4789 6.06045Z" fill="white"/>
<path d="M21.0082 6.55118C21.0956 6.55118 21.1664 6.48039 21.1664 6.39303C21.1664 6.30573 21.0956 6.23489 21.0082 6.23489C20.9209 6.23489 20.8501 6.30568 20.8501 6.39303C20.85 6.48039 20.9209 6.55118 21.0082 6.55118Z" fill="white"/>
<path d="M20.4789 7.0802C20.5663 7.0802 20.6371 7.00941 20.6371 6.92206C20.6371 6.8347 20.5663 6.76391 20.4789 6.76391C20.3916 6.76391 20.3208 6.8347 20.3208 6.92206C20.3208 7.00936 20.3916 7.0802 20.4789 7.0802Z" fill="white"/>
<path d="M21.0082 7.57073C21.0956 7.57073 21.1664 7.49994 21.1664 7.41259C21.1664 7.32523 21.0956 7.25444 21.0082 7.25444C20.9209 7.25444 20.8501 7.32523 20.8501 7.41259C20.85 7.49994 20.9209 7.57073 21.0082 7.57073Z" fill="white"/>
<path d="M20.4789 8.0997C20.5663 8.0997 20.6371 8.02891 20.6371 7.94155C20.6371 7.8542 20.5663 7.78341 20.4789 7.78341C20.3916 7.78341 20.3208 7.8542 20.3208 7.94155C20.3208 8.02886 20.3916 8.0997 20.4789 8.0997Z" fill="white"/>
<path d="M21.0082 8.59026C21.0956 8.59026 21.1664 8.51947 21.1664 8.43212C21.1664 8.34481 21.0956 8.27397 21.0082 8.27397C20.9209 8.27397 20.8501 8.34481 20.8501 8.43212C20.85 8.51947 20.9209 8.59026 21.0082 8.59026Z" fill="white"/>
<path d="M20.4789 9.11945C20.5663 9.11945 20.6371 9.04866 20.6371 8.9613C20.6371 8.87395 20.5663 8.80316 20.4789 8.80316C20.3916 8.80316 20.3208 8.874 20.3208 8.9613C20.3208 9.04866 20.3916 9.11945 20.4789 9.11945Z" fill="white"/>
<path d="M21.0082 9.61001C21.0956 9.61001 21.1664 9.53922 21.1664 9.45187C21.1664 9.36451 21.0956 9.29373 21.0082 9.29373C20.9209 9.29373 20.8501 9.36451 20.8501 9.45187C20.85 9.53922 20.9209 9.61001 21.0082 9.61001Z" fill="white"/>
<path d="M20.4789 10.139C20.5663 10.139 20.6371 10.0682 20.6371 9.98085C20.6371 9.8935 20.5663 9.82271 20.4789 9.82271C20.3916 9.82271 20.3208 9.8935 20.3208 9.98085C20.3208 10.0682 20.3916 10.139 20.4789 10.139Z" fill="white"/>
<path d="M19.9897 6.55118C20.077 6.55118 20.1478 6.48039 20.1478 6.39303C20.1478 6.30573 20.077 6.23489 19.9897 6.23489C19.9023 6.23489 19.8315 6.30568 19.8315 6.39303C19.8315 6.48039 19.9023 6.55118 19.9897 6.55118Z" fill="white"/>
<path d="M19.3009 6.92206C19.3009 7.00941 19.3717 7.0802 19.4591 7.0802C19.5464 7.0802 19.6172 7.00941 19.6172 6.92206C19.6172 6.8347 19.5464 6.76391 19.4591 6.76391C19.3717 6.76386 19.3009 6.8347 19.3009 6.92206Z" fill="white"/>
<path d="M19.9897 7.57073C20.077 7.57073 20.1478 7.49994 20.1478 7.41259C20.1478 7.32523 20.077 7.25444 19.9897 7.25444C19.9023 7.25444 19.8315 7.32523 19.8315 7.41259C19.8315 7.49994 19.9023 7.57073 19.9897 7.57073Z" fill="white"/>
<path d="M19.4591 7.78347C19.3717 7.78347 19.3009 7.85426 19.3009 7.94162C19.3009 8.02897 19.3717 8.09976 19.4591 8.09976C19.5464 8.09976 19.6172 8.02897 19.6172 7.94162C19.6172 7.85431 19.5464 7.78347 19.4591 7.78347Z" fill="white"/>
<path d="M19.9897 8.59026C20.077 8.59026 20.1478 8.51947 20.1478 8.43212C20.1478 8.34481 20.077 8.27397 19.9897 8.27397C19.9023 8.27397 19.8315 8.34481 19.8315 8.43212C19.8315 8.51947 19.9023 8.59026 19.9897 8.59026Z" fill="white"/>
<path d="M19.4591 8.803C19.3717 8.803 19.3009 8.87384 19.3009 8.96114C19.3009 9.0485 19.3717 9.11929 19.4591 9.11929C19.5464 9.11929 19.6172 9.0485 19.6172 8.96114C19.6172 8.87384 19.5464 8.803 19.4591 8.803Z" fill="white"/>
<path d="M19.9897 9.61001C20.077 9.61001 20.1478 9.53922 20.1478 9.45187C20.1478 9.36451 20.077 9.29373 19.9897 9.29373C19.9023 9.29373 19.8315 9.36451 19.8315 9.45187C19.8315 9.53922 19.9023 9.61001 19.9897 9.61001Z" fill="white"/>
<path d="M19.4591 9.82271C19.3717 9.82271 19.3009 9.8935 19.3009 9.98085C19.3009 10.0682 19.3717 10.139 19.4591 10.139C19.5464 10.139 19.6172 10.0682 19.6172 9.98085C19.6172 9.8935 19.5464 9.82271 19.4591 9.82271Z" fill="white"/>
<path d="M19.9897 10.6295C20.077 10.6295 20.1478 10.5587 20.1478 10.4714C20.1478 10.384 20.077 10.3132 19.9897 10.3132C19.9023 10.3132 19.8315 10.384 19.8315 10.4714C19.8315 10.5587 19.9023 10.6295 19.9897 10.6295Z" fill="white"/>
<path d="M19.4591 10.8422C19.3717 10.8422 19.3009 10.913 19.3009 11.0004C19.3009 11.0877 19.3717 11.1585 19.4591 11.1585C19.5464 11.1585 19.6172 11.0877 19.6172 11.0004C19.6172 10.913 19.5464 10.8422 19.4591 10.8422Z" fill="white"/>
<path d="M18.9698 7.25444C18.8825 7.25444 18.8117 7.32523 18.8117 7.41259C18.8117 7.49994 18.8825 7.57073 18.9698 7.57073C19.0572 7.57073 19.128 7.49994 19.128 7.41259C19.128 7.32523 19.0571 7.25444 18.9698 7.25444Z" fill="white"/>
<path d="M18.4405 7.78347C18.3531 7.78347 18.2824 7.85426 18.2824 7.94162C18.2824 8.02897 18.3531 8.09976 18.4405 8.09976C18.5279 8.09976 18.5987 8.02897 18.5987 7.94162C18.5987 7.85431 18.5279 7.78347 18.4405 7.78347Z" fill="white"/>
<path d="M18.9698 8.27397C18.8825 8.27397 18.8117 8.34481 18.8117 8.43212C18.8117 8.51947 18.8825 8.59026 18.9698 8.59026C19.0572 8.59026 19.128 8.51947 19.128 8.43212C19.128 8.34476 19.0571 8.27397 18.9698 8.27397Z" fill="white"/>
<path d="M18.4405 8.803C18.3531 8.803 18.2824 8.87384 18.2824 8.96114C18.2824 9.0485 18.3531 9.11929 18.4405 9.11929C18.5279 9.11929 18.5987 9.0485 18.5987 8.96114C18.5987 8.87384 18.5279 8.803 18.4405 8.803Z" fill="white"/>
<path d="M18.9698 9.29373C18.8825 9.29373 18.8117 9.36451 18.8117 9.45187C18.8117 9.53922 18.8825 9.61001 18.9698 9.61001C19.0572 9.61001 19.128 9.53922 19.128 9.45187C19.128 9.36451 19.0571 9.29373 18.9698 9.29373Z" fill="white"/>
<path d="M18.4405 9.82271C18.3531 9.82271 18.2824 9.8935 18.2824 9.98085C18.2824 10.0682 18.3531 10.139 18.4405 10.139C18.5279 10.139 18.5987 10.0682 18.5987 9.98085C18.5987 9.8935 18.5279 9.82271 18.4405 9.82271Z" fill="white"/>
<path d="M18.9698 10.3132C18.8825 10.3132 18.8117 10.384 18.8117 10.4714C18.8117 10.5587 18.8825 10.6295 18.9698 10.6295C19.0572 10.6295 19.128 10.5587 19.128 10.4714C19.128 10.384 19.0571 10.3132 18.9698 10.3132Z" fill="white"/>
<path d="M18.4405 10.8422C18.3531 10.8422 18.2824 10.913 18.2824 11.0004C18.2824 11.0877 18.3531 11.1585 18.4405 11.1585C18.5279 11.1585 18.5987 11.0877 18.5987 11.0004C18.5987 10.913 18.5279 10.8422 18.4405 10.8422Z" fill="white"/>
<path d="M18.9698 11.333C18.8825 11.333 18.8117 11.4038 18.8117 11.4911C18.8117 11.5785 18.8825 11.6493 18.9698 11.6493C19.0572 11.6493 19.128 11.5785 19.128 11.4911C19.128 11.4038 19.0571 11.333 18.9698 11.333Z" fill="white"/>
<path d="M18.4405 11.862C18.3531 11.862 18.2824 11.9327 18.2824 12.0201C18.2824 12.1075 18.3531 12.1782 18.4405 12.1782C18.5279 12.1782 18.5987 12.1075 18.5987 12.0201C18.5987 11.9327 18.5279 11.862 18.4405 11.862Z" fill="white"/>
<path d="M17.9502 8.27397C17.8629 8.27397 17.7921 8.34481 17.7921 8.43212C17.7921 8.51947 17.8629 8.59026 17.9502 8.59026C18.0376 8.59026 18.1084 8.51947 18.1084 8.43212C18.1084 8.34476 18.0376 8.27397 17.9502 8.27397Z" fill="white"/>
<path d="M17.4207 8.803C17.3333 8.803 17.2625 8.87384 17.2625 8.96114C17.2625 9.0485 17.3334 9.11929 17.4207 9.11929C17.508 9.11929 17.5788 9.0485 17.5788 8.96114C17.5788 8.87384 17.508 8.803 17.4207 8.803Z" fill="white"/>
<path d="M17.9502 9.29373C17.8629 9.29373 17.7921 9.36451 17.7921 9.45187C17.7921 9.53922 17.8629 9.61001 17.9502 9.61001C18.0376 9.61001 18.1084 9.53922 18.1084 9.45187C18.1084 9.36451 18.0376 9.29373 17.9502 9.29373Z" fill="white"/>
<path d="M17.4207 9.82271C17.3333 9.82271 17.2625 9.8935 17.2625 9.98085C17.2625 10.0682 17.3334 10.139 17.4207 10.139C17.508 10.139 17.5788 10.0682 17.5788 9.98085C17.5788 9.8935 17.508 9.82271 17.4207 9.82271Z" fill="white"/>
<path d="M17.9502 10.3132C17.8629 10.3132 17.7921 10.384 17.7921 10.4714C17.7921 10.5587 17.8629 10.6295 17.9502 10.6295C18.0376 10.6295 18.1084 10.5587 18.1084 10.4714C18.1084 10.384 18.0376 10.3132 17.9502 10.3132Z" fill="white"/>
<path d="M17.4207 10.8422C17.3333 10.8422 17.2625 10.913 17.2625 11.0004C17.2625 11.0877 17.3334 11.1585 17.4207 11.1585C17.508 11.1585 17.5788 11.0877 17.5788 11.0004C17.5788 10.913 17.508 10.8422 17.4207 10.8422Z" fill="white"/>
<path d="M17.9502 11.333C17.8629 11.333 17.7921 11.4038 17.7921 11.4911C17.7921 11.5785 17.8629 11.6493 17.9502 11.6493C18.0376 11.6493 18.1084 11.5785 18.1084 11.4911C18.1084 11.4038 18.0376 11.333 17.9502 11.333Z" fill="white"/>
<path d="M17.4207 11.862C17.3333 11.862 17.2625 11.9327 17.2625 12.0201C17.2625 12.1075 17.3334 12.1782 17.4207 12.1782C17.508 12.1782 17.5788 12.1075 17.5788 12.0201C17.5788 11.9327 17.508 11.862 17.4207 11.862Z" fill="white"/>
<path d="M16.9304 10.3132C16.843 10.3132 16.7722 10.384 16.7722 10.4714C16.7722 10.5587 16.843 10.6295 16.9304 10.6295C17.0177 10.6295 17.0885 10.5587 17.0885 10.4714C17.0886 10.384 17.0177 10.3132 16.9304 10.3132Z" fill="white"/>
<path d="M16.4008 10.8422C16.3135 10.8422 16.2427 10.913 16.2427 11.0004C16.2427 11.0877 16.3135 11.1585 16.4008 11.1585C16.4882 11.1585 16.559 11.0877 16.559 11.0004C16.559 10.913 16.4882 10.8422 16.4008 10.8422Z" fill="white"/>
<path d="M16.9304 11.333C16.843 11.333 16.7722 11.4038 16.7722 11.4911C16.7722 11.5785 16.843 11.6493 16.9304 11.6493C17.0177 11.6493 17.0885 11.5785 17.0885 11.4911C17.0886 11.4038 17.0177 11.333 16.9304 11.333Z" fill="white"/>
<path d="M16.4008 11.862C16.3135 11.862 16.2427 11.9327 16.2427 12.0201C16.2427 12.1075 16.3135 12.1782 16.4008 12.1782C16.4882 12.1782 16.559 12.1075 16.559 12.0201C16.559 11.9327 16.4882 11.862 16.4008 11.862Z" fill="white"/>
<path d="M16.9304 12.3525C16.843 12.3525 16.7722 12.4233 16.7722 12.5106C16.7722 12.598 16.843 12.6688 16.9304 12.6688C17.0177 12.6688 17.0885 12.598 17.0885 12.5106C17.0886 12.4233 17.0177 12.3525 16.9304 12.3525Z" fill="white"/>
<path d="M16.4008 12.8815C16.3135 12.8815 16.2427 12.9523 16.2427 13.0396C16.2427 13.127 16.3135 13.1978 16.4008 13.1978C16.4882 13.1978 16.559 13.127 16.559 13.0396C16.559 12.9523 16.4882 12.8815 16.4008 12.8815Z" fill="white"/>
<path d="M15.9105 11.333C15.8232 11.333 15.7524 11.4038 15.7524 11.4911C15.7524 11.5785 15.8232 11.6493 15.9105 11.6493C15.9979 11.6493 16.0687 11.5785 16.0687 11.4911C16.0687 11.4038 15.9979 11.333 15.9105 11.333Z" fill="white"/>
<path d="M15.3809 11.862C15.2936 11.862 15.2228 11.9327 15.2228 12.0201C15.2228 12.1075 15.2936 12.1782 15.3809 12.1782C15.4683 12.1782 15.5391 12.1075 15.5391 12.0201C15.5391 11.9327 15.4683 11.862 15.3809 11.862Z" fill="white"/>
<path d="M15.9105 12.3525C15.8232 12.3525 15.7524 12.4233 15.7524 12.5106C15.7524 12.598 15.8232 12.6688 15.9105 12.6688C15.9979 12.6688 16.0687 12.598 16.0687 12.5106C16.0687 12.4233 15.9979 12.3525 15.9105 12.3525Z" fill="white"/>
<path d="M15.3809 12.8815C15.2936 12.8815 15.2228 12.9523 15.2228 13.0396C15.2228 13.127 15.2936 13.1978 15.3809 13.1978C15.4683 13.1978 15.5391 13.127 15.5391 13.0396C15.5391 12.9523 15.4683 12.8815 15.3809 12.8815Z" fill="white"/>
<path d="M15.9105 13.3722C15.8232 13.3722 15.7524 13.443 15.7524 13.5303C15.7524 13.6177 15.8232 13.6885 15.9105 13.6885C15.9979 13.6885 16.0687 13.6177 16.0687 13.5303C16.0687 13.443 15.9979 13.3722 15.9105 13.3722Z" fill="white"/>
<path d="M15.3809 13.901C15.2936 13.901 15.2228 13.9719 15.2228 14.0592C15.2228 14.1465 15.2936 14.2173 15.3809 14.2173C15.4683 14.2173 15.5391 14.1465 15.5391 14.0592C15.5391 13.9718 15.4683 13.901 15.3809 13.901Z" fill="white"/>
<path d="M14.8906 12.3525C14.8033 12.3525 14.7325 12.4233 14.7325 12.5106C14.7325 12.598 14.8033 12.6688 14.8906 12.6688C14.978 12.6688 15.0488 12.598 15.0488 12.5106C15.0488 12.4233 14.978 12.3525 14.8906 12.3525Z" fill="white"/>
<path d="M14.3623 12.8815C14.275 12.8815 14.2042 12.9523 14.2042 13.0396C14.2042 13.127 14.275 13.1978 14.3623 13.1978C14.4497 13.1978 14.5205 13.127 14.5205 13.0396C14.5205 12.9523 14.4497 12.8815 14.3623 12.8815Z" fill="white"/>
<path d="M14.8906 13.3722C14.8033 13.3722 14.7325 13.443 14.7325 13.5303C14.7325 13.6177 14.8033 13.6885 14.8906 13.6885C14.978 13.6885 15.0488 13.6177 15.0488 13.5303C15.0488 13.443 14.978 13.3722 14.8906 13.3722Z" fill="white"/>
<path d="M14.3623 13.901C14.275 13.901 14.2042 13.9719 14.2042 14.0592C14.2042 14.1465 14.275 14.2173 14.3623 14.2173C14.4497 14.2173 14.5205 14.1465 14.5205 14.0592C14.5205 13.9718 14.4497 13.901 14.3623 13.901Z" fill="white"/>
<path d="M14.8906 14.3917C14.8033 14.3917 14.7325 14.4625 14.7325 14.5499C14.7325 14.6372 14.8033 14.708 14.8906 14.708C14.978 14.708 15.0488 14.6372 15.0488 14.5499C15.0488 14.4626 14.978 14.3917 14.8906 14.3917Z" fill="white"/>
<path d="M14.3623 14.9207C14.275 14.9207 14.2042 14.9915 14.2042 15.0789C14.2042 15.1662 14.275 15.237 14.3623 15.237C14.4497 15.237 14.5205 15.1662 14.5205 15.0789C14.5205 14.9915 14.4497 14.9207 14.3623 14.9207Z" fill="white"/>
<path d="M13.8708 13.3722C13.7834 13.3722 13.7126 13.443 13.7126 13.5303C13.7126 13.6177 13.7835 13.6885 13.8708 13.6885C13.9581 13.6885 14.0289 13.6177 14.0289 13.5303C14.029 13.443 13.9581 13.3722 13.8708 13.3722Z" fill="white"/>
<path d="M13.3425 13.901C13.2551 13.901 13.1843 13.9719 13.1843 14.0592C13.1843 14.1465 13.2551 14.2173 13.3425 14.2173C13.4298 14.2173 13.5006 14.1465 13.5006 14.0592C13.5006 13.9718 13.4298 13.901 13.3425 13.901Z" fill="white"/>
<path d="M13.8708 14.3917C13.7834 14.3917 13.7126 14.4625 13.7126 14.5499C13.7126 14.6372 13.7835 14.708 13.8708 14.708C13.9581 14.708 14.0289 14.6372 14.0289 14.5499C14.029 14.4626 13.9581 14.3917 13.8708 14.3917Z" fill="white"/>
<path d="M13.3425 15.237C13.4298 15.237 13.5006 15.1662 13.5006 15.0789C13.5006 14.9915 13.4298 14.9207 13.3425 14.9207C13.2551 14.9207 13.1843 14.9915 13.1843 15.0789C13.1843 15.1662 13.2551 15.237 13.3425 15.237Z" fill="white"/>
<path d="M13.8708 15.4113C13.7834 15.4113 13.7126 15.4821 13.7126 15.5695C13.7126 15.6568 13.7835 15.7276 13.8708 15.7276C13.9581 15.7276 14.0289 15.6568 14.0289 15.5695C14.029 15.4821 13.9581 15.4113 13.8708 15.4113Z" fill="white"/>
<path d="M13.3425 15.9405C13.2551 15.9405 13.1843 16.0112 13.1843 16.0986C13.1843 16.186 13.2551 16.2567 13.3425 16.2567C13.4298 16.2567 13.5006 16.186 13.5006 16.0986C13.5006 16.0112 13.4298 15.9405 13.3425 15.9405Z" fill="white"/>
<path d="M12.8522 14.3917C12.7648 14.3917 12.694 14.4625 12.694 14.5499C12.694 14.6372 12.7648 14.708 12.8522 14.708C12.9395 14.708 13.0103 14.6372 13.0103 14.5499C13.0104 14.4626 12.9395 14.3917 12.8522 14.3917Z" fill="white"/>
<path d="M12.3216 14.9207C12.2343 14.9207 12.1635 14.9915 12.1635 15.0789C12.1635 15.1662 12.2343 15.237 12.3216 15.237C12.409 15.237 12.4798 15.1662 12.4798 15.0789C12.4798 14.9915 12.409 14.9207 12.3216 14.9207Z" fill="white"/>
<path d="M12.8522 15.4113C12.7648 15.4113 12.694 15.4821 12.694 15.5695C12.694 15.6568 12.7648 15.7276 12.8522 15.7276C12.9395 15.7276 13.0103 15.6568 13.0103 15.5695C13.0104 15.4821 12.9395 15.4113 12.8522 15.4113Z" fill="white"/>
<path d="M12.3216 15.9405C12.2343 15.9405 12.1635 16.0112 12.1635 16.0986C12.1635 16.186 12.2343 16.2567 12.3216 16.2567C12.409 16.2567 12.4798 16.186 12.4798 16.0986C12.4798 16.0112 12.409 15.9405 12.3216 15.9405Z" fill="white"/>
<path d="M12.8522 16.4311C12.7648 16.4311 12.694 16.5019 12.694 16.5892C12.694 16.6766 12.7648 16.7474 12.8522 16.7474C12.9395 16.7474 13.0103 16.6766 13.0103 16.5892C13.0104 16.5019 12.9395 16.4311 12.8522 16.4311Z" fill="white"/>
<path d="M12.3216 16.96C12.2343 16.96 12.1635 17.0308 12.1635 17.1182C12.1635 17.2055 12.2343 17.2763 12.3216 17.2763C12.409 17.2763 12.4798 17.2055 12.4798 17.1182C12.4798 17.0308 12.409 16.96 12.3216 16.96Z" fill="white"/>
<path d="M11.8323 15.4113C11.745 15.4113 11.6742 15.4821 11.6742 15.5695C11.6742 15.6568 11.745 15.7276 11.8323 15.7276C11.9197 15.7276 11.9905 15.6568 11.9905 15.5695C11.9905 15.4821 11.9197 15.4113 11.8323 15.4113Z" fill="white"/>
<path d="M11.303 15.9405C11.2157 15.9405 11.1449 16.0112 11.1449 16.0986C11.1449 16.186 11.2157 16.2567 11.303 16.2567C11.3904 16.2567 11.4612 16.186 11.4612 16.0986C11.4612 16.0112 11.3904 15.9405 11.303 15.9405Z" fill="white"/>
<path d="M11.8323 16.4311C11.745 16.4311 11.6742 16.5019 11.6742 16.5892C11.6742 16.6766 11.745 16.7474 11.8323 16.7474C11.9197 16.7474 11.9905 16.6766 11.9905 16.5892C11.9905 16.5019 11.9197 16.4311 11.8323 16.4311Z" fill="white"/>
<path d="M25.9015 0.0588055C25.8585 0.0164232 25.7987 -0.00481876 25.7389 0.000923684L19.4381 0.601034C19.386 0.605964 19.3379 0.630712 19.3036 0.670198L8.05549 13.5979L7.51565 13.058C6.77548 12.3178 5.70089 12.0676 4.70912 12.404C3.75389 12.6512 3.08741 13.5121 3.08741 14.5006C3.08741 15.6948 4.0589 16.6663 5.25303 16.6663C5.68173 16.6663 6.10301 16.5371 6.45777 16.2998L6.60321 16.4452L2.34669 20.7018C2.19586 20.662 2.03904 20.641 1.87891 20.641C1.39233 20.641 0.934963 20.8305 0.590976 21.1745L0.570648 21.1948C0.226559 21.5389 0.0371094 21.9963 0.0371094 22.4828C0.0371094 22.9694 0.22661 23.4268 0.570648 23.7708L2.2663 25.4665C2.61033 25.8105 3.0677 26 3.55428 26C4.04081 26 4.49828 25.8105 4.84231 25.4665L4.86259 25.4462C5.33723 24.9716 5.49416 24.2981 5.33439 23.6915L9.59197 19.4339L9.73798 19.58C9.50055 19.9348 9.37147 20.3561 9.37147 20.7847C9.37147 21.9788 10.343 22.9503 11.5371 22.9503C12.4608 22.9503 13.2824 22.3645 13.5839 21.4919C14.0089 20.4796 13.7826 19.325 13.0062 18.5486L12.5059 18.0483L25.3679 6.7329C25.4076 6.69804 25.4321 6.64915 25.4364 6.5965L25.9614 0.220661C25.9665 0.160543 25.9445 0.101239 25.9015 0.0588055ZM4.57425 25.1579L4.55397 25.1781C4.28692 25.4451 3.93196 25.5922 3.55433 25.5922C3.17675 25.5922 2.82174 25.4451 2.55474 25.1781L0.859092 23.4824C0.592094 23.2154 0.445026 22.8604 0.445026 22.4828C0.445026 22.1052 0.592094 21.7502 0.859041 21.4833L0.879368 21.463C1.14637 21.196 1.50138 21.049 1.87896 21.049C2.25659 21.049 2.61155 21.196 2.8786 21.463L4.5743 23.1586C5.12542 23.7098 5.12542 24.6067 4.57425 25.1579ZM5.16973 23.2795C5.08893 23.1327 4.98689 22.9945 4.86264 22.8702L3.16699 21.1746C3.04407 21.0517 2.9064 20.9488 2.75837 20.867L3.6797 19.9456L6.09163 22.3576L5.16973 23.2795ZM6.38002 22.0691L3.96804 19.6572L4.93374 18.6915L7.34571 21.1034L6.38002 22.0691ZM7.63411 20.815L5.22213 18.4031L6.89165 16.7336L9.30363 19.1456L7.63411 20.815ZM12.7179 18.837C13.378 19.4971 13.5694 20.4794 13.2055 21.3397C13.2037 21.3441 13.2019 21.3486 13.2004 21.3532C12.9572 22.0645 12.2888 22.5424 11.5371 22.5424C10.5679 22.5424 9.77929 21.7539 9.77929 20.7847C9.77929 20.3813 9.91264 20.0016 10.1649 19.6868C10.2299 19.6057 10.2234 19.4886 10.1499 19.4151L6.62257 15.8877C6.58299 15.8481 6.53074 15.828 6.47835 15.828C6.43338 15.828 6.38835 15.8428 6.3509 15.8728C6.03613 16.125 5.65647 16.2583 5.25303 16.2583C4.28377 16.2583 3.49528 15.4698 3.49528 14.5006C3.49528 13.6959 4.03908 12.9955 4.81777 12.7972C4.8231 12.7958 4.82834 12.7942 4.83352 12.7925C5.67873 12.503 6.5961 12.7151 7.22726 13.3464L12.7179 18.837ZM25.219 4.26705C25.1907 4.22406 25.1422 4.19555 25.0869 4.19555C24.9996 4.19555 24.9288 4.26634 24.9288 4.35369C24.9288 4.44105 24.9996 4.51184 25.0869 4.51184C25.1331 4.51184 25.1742 4.49177 25.2031 4.46026L25.1401 5.22502C25.1234 5.21903 25.1057 5.21516 25.0869 5.21516C24.9996 5.21516 24.9288 5.286 24.9288 5.37331C24.9288 5.46066 24.9996 5.53145 25.0869 5.53145C25.0966 5.53145 25.1059 5.53029 25.1151 5.52861L25.0567 6.23783C24.9839 6.25195 24.9288 6.31593 24.9288 6.39292C24.9288 6.44491 24.9542 6.49065 24.993 6.51951L24.6661 6.80709C24.6378 6.78041 24.5999 6.76379 24.5579 6.76379C24.4706 6.76379 24.3998 6.83458 24.3998 6.92194C24.3998 6.95665 24.4113 6.98846 24.4302 7.01453L24.1379 7.27172C24.1166 7.261 24.0929 7.25439 24.0674 7.25439C23.98 7.25439 23.9092 7.32518 23.9092 7.41254C23.9092 7.43088 23.9129 7.44821 23.9187 7.46463L23.5545 7.78498C23.5491 7.78442 23.5439 7.78341 23.5383 7.78341C23.4522 7.78341 23.3825 7.85237 23.3805 7.93805L18.0764 12.6044C18.0959 12.5781 18.1078 12.5459 18.1078 12.5107C18.1078 12.4233 18.037 12.3525 17.9496 12.3525C17.8623 12.3525 17.7915 12.4233 17.7915 12.5107C17.7915 12.598 17.8623 12.6688 17.9496 12.6688C17.978 12.6688 18.0041 12.6608 18.0272 12.6477L17.5785 13.0424L17.5787 13.0397C17.5787 12.9523 17.508 12.8815 17.4206 12.8815C17.3332 12.8815 17.2625 12.9523 17.2625 13.0397C17.2625 13.1212 17.3245 13.1876 17.4038 13.1961L17.0796 13.4813C17.0589 13.4181 17.0001 13.3722 16.93 13.3722C16.8426 13.3722 16.7718 13.443 16.7718 13.5303C16.7718 13.5933 16.8089 13.6472 16.8622 13.6727L16.5283 13.9663C16.4996 13.927 16.4534 13.9012 16.401 13.9012C16.3136 13.9012 16.2428 13.972 16.2428 14.0593C16.2428 14.1046 16.262 14.1451 16.2924 14.1739L16.0066 14.4253C15.9799 14.4046 15.9468 14.3918 15.9103 14.3918C15.823 14.3918 15.7522 14.4626 15.7522 14.55C15.7522 14.5792 15.7607 14.6061 15.7745 14.6296L15.4329 14.9302C15.4166 14.9246 15.3995 14.9209 15.3814 14.9209C15.294 14.9209 15.2232 14.9916 15.2232 15.079C15.2232 15.0902 15.2244 15.1011 15.2266 15.1116L14.8851 15.412C14.8092 15.4147 14.7472 15.4707 14.7352 15.5439L12.2169 17.7593L10.3341 15.8765L10.6556 15.555C10.6551 15.5599 10.6541 15.5646 10.6541 15.5695C10.6541 15.6569 10.725 15.7277 10.8123 15.7277C10.8996 15.7277 10.9704 15.6569 10.9704 15.5695C10.9704 15.4822 10.8996 15.4114 10.8123 15.4114C10.8073 15.4114 10.8026 15.4124 10.7977 15.4129L11.1462 15.0644C11.1457 15.0692 11.1447 15.074 11.1447 15.079C11.1447 15.1663 11.2155 15.2371 11.3029 15.2371C11.3902 15.2371 11.461 15.1663 11.461 15.079C11.461 14.9916 11.3902 14.9208 11.3029 14.9208C11.2979 14.9208 11.2932 14.9218 11.2883 14.9223L11.6752 14.5355C11.6747 14.5403 11.6737 14.545 11.6737 14.55C11.6737 14.6373 11.7445 14.7081 11.8318 14.7081C11.9192 14.7081 11.99 14.6373 11.99 14.55C11.99 14.4626 11.9192 14.3918 11.8318 14.3918C11.8269 14.3918 11.8222 14.3929 11.8173 14.3933L12.1658 14.0449C12.1653 14.0497 12.1643 14.0544 12.1643 14.0594C12.1643 14.1467 12.2351 14.2175 12.3224 14.2175C12.4098 14.2175 12.4806 14.1467 12.4806 14.0594C12.4806 13.972 12.4098 13.9012 12.3224 13.9012C12.3174 13.9012 12.3128 13.9023 12.3079 13.9027L12.6947 13.5159C12.6943 13.5207 12.6932 13.5254 12.6932 13.5304C12.6932 13.6177 12.764 13.6885 12.8514 13.6885C12.9388 13.6885 13.0095 13.6177 13.0095 13.5304C13.0095 13.443 12.9387 13.3722 12.8514 13.3722C12.8464 13.3722 12.8417 13.3732 12.8369 13.3737L13.1853 13.0253C13.1849 13.0301 13.1838 13.0348 13.1838 13.0398C13.1838 13.1272 13.2546 13.198 13.342 13.198C13.4293 13.198 13.5001 13.1272 13.5001 13.0398C13.5001 12.9525 13.4293 12.8817 13.342 12.8817C13.337 12.8817 13.3323 12.8827 13.3275 12.8832L13.7143 12.4963C13.7138 12.5012 13.7128 12.5059 13.7128 12.5108C13.7128 12.5982 13.7837 12.669 13.871 12.669C13.9583 12.669 14.0291 12.5982 14.0291 12.5108C14.0291 12.4235 13.9583 12.3527 13.871 12.3527C13.866 12.3527 13.8613 12.3537 13.8564 12.3541L14.2049 12.0057C14.2044 12.0106 14.2034 12.0152 14.2034 12.0202C14.2034 12.1076 14.2742 12.1784 14.3616 12.1784C14.4489 12.1784 14.5197 12.1076 14.5197 12.0202C14.5197 11.9329 14.4489 11.8621 14.3616 11.8621C14.3566 11.8621 14.3519 11.8631 14.3471 11.8635L14.7339 11.4767C14.7334 11.4815 14.7324 11.4863 14.7324 11.4912C14.7324 11.5786 14.8033 11.6493 14.8906 11.6493C14.9779 11.6493 15.0487 11.5786 15.0487 11.4912C15.0487 11.4038 14.9779 11.333 14.8906 11.333C14.8856 11.333 14.8809 11.3341 14.8761 11.3345L15.2245 10.9861C15.2241 10.991 15.2231 10.9957 15.2231 11.0006C15.2231 11.088 15.2939 11.1587 15.3812 11.1587C15.4686 11.1587 15.5394 11.088 15.5394 11.0006C15.5394 10.9132 15.4686 10.8425 15.3812 10.8425C15.3762 10.8425 15.3716 10.8435 15.3667 10.8439L15.7535 10.4571C15.7531 10.4619 15.752 10.4667 15.752 10.4716C15.752 10.5589 15.8229 10.6297 15.9102 10.6297C15.9975 10.6297 16.0683 10.5589 16.0683 10.4716C16.0683 10.3842 15.9975 10.3134 15.9102 10.3134C15.9052 10.3134 15.9005 10.3145 15.8957 10.3149L16.2441 9.9665C16.2436 9.97133 16.2426 9.97606 16.2426 9.98098C16.2426 10.0683 16.3134 10.1391 16.4007 10.1391C16.4881 10.1391 16.5589 10.0683 16.5589 9.98098C16.5589 9.89363 16.4881 9.82284 16.4007 9.82284C16.3958 9.82284 16.3911 9.82385 16.3862 9.82431L16.7731 9.43748C16.7726 9.44231 16.7716 9.44704 16.7716 9.45197C16.7716 9.53932 16.8424 9.61011 16.9297 9.61011C17.0171 9.61011 17.0879 9.53932 17.0879 9.45197C17.0879 9.36461 17.0171 9.29382 16.9297 9.29382C16.9248 9.29382 16.9201 9.29484 16.9153 9.2953L17.1775 9.03302C17.2572 8.95334 17.2572 8.82426 17.1775 8.74463C17.098 8.66505 16.9687 8.66505 16.8892 8.74463L10.0457 15.588L8.34459 13.8869L19.5579 0.999296L25.535 0.430032L25.219 4.26705Z" fill="white"/>
</svg>
