<svg width="272" height="840" viewBox="0 0 272 840" fill="none" xmlns="http://www.w3.org/2000/svg">
<path d="M14.1135 112.577L7.57539 113.428C6.48 113.549 5.42302 113.903 4.47462 114.464C3.52621 115.026 2.70807 115.782 2.07452 116.684C0.102026 119.414 0 124.261 0 127.05C0 128.274 0 129.796 0.0680169 131.522L0.0595148 336.165C-0.0120153 337.583 0.0192409 339.004 0.153038 340.417C1.84496 357.245 20.0565 368.358 39.9089 366.368C59.7614 364.379 72.268 351.777 70.5676 334.958C70.3214 331.696 69.408 328.519 67.8841 325.625C66.3602 322.73 64.2582 320.179 61.7084 318.13C53.9544 311.77 43.4458 312.799 43.4458 312.799L31.0922 313.36C30.9307 313.36 30.8117 313.479 30.8287 313.598L32.5291 340.383C32.5471 340.447 32.5886 340.502 32.6454 340.537C32.7022 340.571 32.77 340.583 32.8352 340.57L45.3078 339.456C45.4693 339.456 45.5883 339.329 45.5713 339.21L44.7721 328.929C50.9277 328.309 53.6654 332.399 54.031 334.609C55.5273 344.065 46.7616 350.323 35.2583 349.949C27.3428 349.702 18.7557 345.187 18.101 338.648C17.7184 334.83 19.2658 332.194 21.4423 329.933C22.4201 328.649 24.8432 326.957 26.144 325.979C26.1722 325.962 26.1957 325.939 26.2119 325.91C26.2282 325.882 26.2368 325.85 26.2368 325.817C26.2368 325.785 26.2282 325.752 26.2119 325.724C26.1957 325.696 26.1722 325.672 26.144 325.656L12.192 314.372C12.1331 314.341 12.0674 314.324 12.0007 314.324C11.934 314.324 11.8684 314.341 11.8094 314.372C9.33428 315.899 7.2057 317.926 5.56038 320.324L5.56038 310.75C6.03799 310.8 6.51963 310.8 6.99724 310.75L66.5716 308.318L66.0019 299.619L65.1517 290.785L43.4288 291.771L42.9782 286.533L63.3153 275.853L61.3343 259.187L41.0992 270.139C39.976 267.65 38.277 265.464 36.1425 263.762C31.5684 260.871 26.8412 259.264 19.0362 260.233C13.0848 260.964 8.63815 263.065 5.56038 266.415L5.56038 253.107C7.71732 254.502 10.2673 255.161 12.8297 254.987L60.5691 252.725L56.114 215.473L45.4183 212.922L47.1187 235.166L39.5944 235.523L37.7409 210.677L23.1513 207.727L25.0982 236.271L17.0127 236.561L16.4346 206.264L5.52638 203.416L5.52638 195.975L55.0937 206.97L52.9937 189.301L48.292 188.297L46.3705 172.898L50.8597 171.027L48.8022 153.724L5.56038 171.835L5.56038 165.279L15.6099 160.943L15.1848 146.403L47.4928 142.585L45.3503 124.567L14.6236 127.602L14.1135 112.577ZM28.7287 284.008L29.3663 292.885L14.9722 293.472L14.4536 286.576C14.2857 284.627 14.8948 282.69 16.1481 281.188C17.4014 279.686 19.1974 278.741 21.1448 278.557C25.5574 278.021 28.4991 281.355 28.7287 284.008ZM35.8109 185.755L17.9565 183.102L35.0457 177.303L35.8109 185.755Z" fill="#ED0677"/>
<path d="M279.858 40.0826C279.715 34.0216 278.086 17.8971 268.794 9.4632C262.646 4.17737 254.773 1.32935 246.666 1.45819H222.908L228.883 67.9573L197.263 68.3289L191.545 8.51978L140.256 8.89148L147.289 70.1015L117.098 71.1878L109.551 0.00012207H54.373L68.0674 137.229L263.476 131.512L263.476 148.151L69.068 154.383L75.9581 218.767L125.075 257.277L83.5629 298.188L90.1956 363.344L263.476 354.223V362L96.9427 422.038L105.52 508.178L263.362 544V550.576L217.619 577.621C205.383 547.974 178.537 546.173 163.042 547.688C137.311 550.033 114.439 576.707 117.298 616.303L123.874 684.26L126.733 707.532L140.227 706.846L263.305 699.327V775.861L241.92 777.662L237.631 737.379L198.292 740.238L202.581 780.549L182.425 782.408L176.021 718.282L127.791 721.14L137.883 823.348C138.451 827.693 140.465 831.721 143.601 834.784C147.304 837.751 151.953 839.283 156.695 839.101L280.001 830.838L279.858 40.0826ZM204.439 252.702L167.444 213.135L263.476 210.276V291.098L171.79 295.729L204.439 252.702ZM148.118 463.492L147.632 463.035L196.72 445.481L200.065 475.557L148.118 463.492ZM243.807 482.247L238.718 434.731L263.476 427.898V485.506L243.807 482.247ZM263.476 647.265L230.799 650.124L227.625 627.253L263.476 607.726V647.265ZM159.554 624.794C158.124 613.358 164.099 606.668 169.989 606.097C171.86 605.895 173.753 606.082 175.549 606.648C177.344 607.213 179.003 608.144 180.421 609.382C181.839 610.62 182.986 612.139 183.788 613.841C184.59 615.544 185.032 617.395 185.084 619.276L189.773 653.927L163.327 655.899L159.554 624.794Z" fill="white"/>
</svg>
