<svg width="1509" height="1100" viewBox="0 0 1509 1100" fill="none" xmlns="http://www.w3.org/2000/svg">
<circle cx="231.5" cy="-36.5" r="129.5" fill="#ED0677"/>
<g filter="url(#filter0_f)">
<circle cx="1600" cy="634" r="253" fill="#14B1E7"/>
</g>
<path d="M18.0828 93.9358C20.1933 88.9777 26.8796 88.1635 30.1182 92.4703L39.4871 104.929C42.7257 109.236 40.0876 115.434 34.7385 116.085L19.2643 117.969C13.9152 118.621 9.86697 113.237 11.9775 108.279L18.0828 93.9358Z" fill="#042A8C"/>
<path d="M352.825 656.834L360.173 651.636L352.825 656.834C356.978 662.704 363.23 666.752 370.286 668.138L371.102 668.298C377.455 669.547 380.966 676.412 378.258 682.293L377.91 683.049C374.902 689.58 374.523 697.018 376.85 703.822L377.12 704.609L385.635 701.696L377.12 704.609C379.215 710.735 375.025 717.208 368.578 717.803L367.749 717.88C360.589 718.541 353.958 721.932 349.23 727.349L348.683 727.975C344.425 732.854 336.725 732.461 332.985 727.175L332.505 726.496C328.352 720.626 322.1 716.578 315.044 715.192L314.228 715.032L312.493 723.863L314.228 715.032C307.875 713.783 304.365 706.918 307.073 701.037L299.5 697.55L307.073 701.037L307.42 700.281C310.428 693.75 310.807 686.312 308.48 679.508L300.086 682.38L308.48 679.508L308.21 678.721C306.115 672.595 310.305 666.122 316.753 665.527L315.942 656.752L316.753 665.527L317.581 665.45C324.741 664.789 331.372 661.399 336.1 655.981L336.647 655.355L329.867 649.436L336.647 655.355C340.905 650.477 348.606 650.869 352.345 656.155L352.825 656.834Z" stroke="#ED0677" stroke-width="18"/>
<path d="M1385.25 -14.9892C1388.38 -23.8434 1398.08 -28.4895 1406.94 -25.3665C1415.79 -22.2435 1420.44 -12.534 1417.32 -3.6798L1397.03 53.8467C1393.9 62.701 1384.19 67.347 1375.34 64.224C1366.49 61.101 1361.84 51.3916 1364.96 42.5374L1385.25 -14.9892Z" fill="#14B1E7"/>
<path d="M1357.19 25.4819C1348.34 22.3589 1343.69 12.6495 1346.82 3.79526C1349.94 -5.05896 1359.65 -9.70504 1368.5 -6.58205L1426.03 13.7083C1434.88 16.8313 1439.53 26.5407 1436.41 35.3949C1433.28 44.2492 1423.57 48.8952 1414.72 45.7723L1357.19 25.4819Z" fill="#14B1E7"/>
<defs>
<filter id="filter0_f" x="1134" y="168" width="932" height="932" filterUnits="userSpaceOnUse" color-interpolation-filters="sRGB">
<feFlood flood-opacity="0" result="BackgroundImageFix"/>
<feBlend mode="normal" in="SourceGraphic" in2="BackgroundImageFix" result="shape"/>
<feGaussianBlur stdDeviation="106.5" result="effect1_foregroundBlur"/>
</filter>
</defs>
</svg>
