<svg width="1640" height="776" viewBox="0 0 1640 776" fill="none" xmlns="http://www.w3.org/2000/svg">
<circle cx="999.5" cy="-36.5" r="129.5" fill="#ED0677"/>
<path d="M165 711C165 722.598 155.598 732 144 732C132.402 732 123 722.598 123 711C123 699.402 132.402 690 144 690C155.598 690 165 699.402 165 711Z" fill="#ED0677"/>
<circle cx="1267.5" cy="614.5" r="71" stroke="#14B1E7"/>
<path d="M1268.08 630.328C1271.09 630.328 1273.26 628.088 1273.26 625.08V619.256H1279.66C1282.93 619.256 1284.59 616.76 1284.59 614.328C1284.59 611.832 1282.93 609.4 1279.66 609.4H1273.26V603.576C1273.26 600.568 1271.09 598.328 1268.08 598.328C1265.07 598.328 1262.89 600.568 1262.89 603.576V609.4H1256.43C1253.17 609.4 1251.5 611.832 1251.5 614.328C1251.5 616.76 1253.17 619.256 1256.43 619.256H1262.89V625.08C1262.89 628.088 1265.07 630.328 1268.08 630.328Z" fill="#14B1E7"/>
<path d="M19.0662 223.919C21.1767 218.961 27.863 218.147 31.1016 222.454L40.4705 234.913C43.7091 239.219 41.071 245.417 35.7219 246.068L20.2477 247.953C14.8986 248.604 10.8504 243.22 12.9609 238.262L19.0662 223.919Z" fill="#042A8C"/>
<path d="M881.825 656.834L889.173 651.636L881.825 656.834C885.978 662.704 892.23 666.752 899.286 668.138L900.102 668.298C906.455 669.547 909.966 676.412 907.258 682.293L906.91 683.049C903.902 689.58 903.523 697.018 905.85 703.822L906.12 704.609L914.635 701.696L906.12 704.609C908.215 710.735 904.025 717.208 897.578 717.803L896.749 717.88C889.589 718.541 882.958 721.932 878.23 727.349L877.683 727.975C873.425 732.854 865.725 732.461 861.985 727.175L861.505 726.496C857.352 720.626 851.1 716.578 844.044 715.192L843.228 715.032L841.493 723.863L843.228 715.032C836.875 713.783 833.365 706.918 836.073 701.037L828.5 697.55L836.073 701.037L836.42 700.281C839.428 693.75 839.807 686.312 837.48 679.508L829.086 682.38L837.48 679.508L837.21 678.721C835.115 672.595 839.305 666.122 845.753 665.527L844.942 656.752L845.753 665.527L846.581 665.45C853.741 664.789 860.372 661.399 865.1 655.981L865.647 655.355L858.867 649.436L865.647 655.355C869.905 650.477 877.606 650.869 881.345 656.155L881.825 656.834Z" stroke="#ED0677" stroke-width="18"/>
<path d="M1572.24 -25.9892C1575.36 -34.8434 1585.07 -39.4895 1593.92 -36.3665C1602.78 -33.2435 1607.42 -23.534 1604.3 -14.6798L1584.01 42.8467C1580.89 51.701 1571.18 56.347 1562.32 53.224C1553.47 50.101 1548.82 40.3916 1551.95 31.5374L1572.24 -25.9892Z" fill="#14B1E7"/>
<path d="M1544.18 14.4819C1535.32 11.3589 1530.68 1.64948 1533.8 -7.20474C1536.92 -16.059 1546.63 -20.705 1555.49 -17.582L1613.01 2.70828C1621.87 5.83127 1626.51 15.5407 1623.39 24.3949C1620.27 33.2492 1610.56 37.8952 1601.7 34.7723L1544.18 14.4819Z" fill="#14B1E7"/>
</svg>
