<svg width="289" height="245" viewBox="0 0 289 245" fill="none" xmlns="http://www.w3.org/2000/svg">
<path d="M64.344 42.4026L63.626 40.5359L63.5605 40.5611L63.4969 40.5909L64.344 42.4026ZM19.992 63.1386L20.8378 64.951L20.8391 64.9504L19.992 63.1386ZM38.712 106.051L39.5243 107.878L39.5372 107.873L39.5501 107.867L38.712 106.051ZM49.944 100.867H51.944V97.7408L49.1059 99.0507L49.944 100.867ZM74.712 38.0986C71.1982 38.0986 67.4818 39.053 63.626 40.5359L65.062 44.2693C68.6942 42.8723 71.8898 42.0986 74.712 42.0986V38.0986ZM63.4969 40.5909L19.1449 61.3269L20.8391 64.9504L65.1911 44.2144L63.4969 40.5909ZM19.1462 61.3263C9.84934 65.6648 4.168 74.1188 4.168 84.1626H8.168C8.168 75.7745 12.8547 68.6765 20.8378 64.951L19.1462 61.3263ZM4.168 84.1626C4.168 98.1468 15.0647 110.067 29.496 110.067V106.067C17.4313 106.067 8.168 96.0984 8.168 84.1626H4.168ZM29.496 110.067C33.5831 110.067 36.7415 109.115 39.5243 107.878L37.8997 104.223C35.4985 105.29 32.8969 106.067 29.496 106.067V110.067ZM39.5501 107.867L50.7821 102.683L49.1059 99.0507L37.8739 104.235L39.5501 107.867ZM47.944 100.867V212.035H51.944V100.867H47.944ZM47.944 212.035C47.944 220.441 50.1998 227.278 54.8538 232.013C59.5132 236.753 66.2873 239.091 74.712 239.091V235.091C67.0087 235.091 61.3988 232.965 57.7062 229.209C54.0082 225.447 51.944 219.756 51.944 212.035H47.944ZM74.712 239.091C83.1367 239.091 89.9108 236.753 94.5703 232.013C99.2242 227.278 101.48 220.441 101.48 212.035H97.48C97.48 219.756 95.4158 225.447 91.7178 229.209C88.0252 232.965 82.4153 235.091 74.712 235.091V239.091ZM101.48 212.035V64.8666H97.48V212.035H101.48ZM101.48 64.8666C101.48 50.2261 89.3526 38.0986 74.712 38.0986V42.0986C87.1434 42.0986 97.48 52.4352 97.48 64.8666H101.48ZM228.227 113.251L226.963 111.701L223.981 114.135L227.686 115.176L228.227 113.251ZM256.451 90.2106L257.716 91.76L257.726 91.7514L256.451 90.2106ZM197.987 88.1946L199.248 89.7474L203.624 86.1946H197.987V88.1946ZM173.507 108.067L172.247 106.514L172.241 106.519L173.507 108.067ZM167.459 177.763L165.954 179.08L165.978 179.107L166.003 179.133L167.459 177.763ZM133.187 206.563L131.543 207.701L131.564 207.732L131.587 207.763L133.187 206.563ZM229.492 114.8L257.716 91.76L255.187 88.6613L226.963 111.701L229.492 114.8ZM257.726 91.7514C266.374 84.595 270.547 77.4548 270.547 68.3226H266.547C266.547 75.8945 263.233 82.0023 255.176 88.6698L257.726 91.7514ZM270.547 68.3226C270.547 53.6821 258.42 41.5546 243.779 41.5546V45.5546C256.211 45.5546 266.547 55.8912 266.547 68.3226H270.547ZM243.779 41.5546H157.379V45.5546H243.779V41.5546ZM157.379 41.5546C143.366 41.5546 132.627 51.9037 132.627 65.7306H136.627C136.627 54.2136 145.473 45.5546 157.379 45.5546V41.5546ZM132.627 65.7306C132.627 79.8287 143.349 90.1946 157.379 90.1946V86.1946C145.49 86.1946 136.627 77.5525 136.627 65.7306H132.627ZM157.379 90.1946H197.987V86.1946H157.379V90.1946ZM196.727 86.6419L172.247 106.514L174.768 109.619L199.248 89.7474L196.727 86.6419ZM172.241 106.519C167.43 110.455 164.056 113.864 161.901 117.392C159.703 120.987 158.835 124.598 158.835 128.803H162.835C162.835 125.231 163.551 122.362 165.314 119.478C167.118 116.525 170.08 113.455 174.774 109.615L172.241 106.519ZM158.835 128.803C158.835 142.613 169.269 152.979 183.587 152.979V148.979C171.41 148.979 162.835 140.336 162.835 128.803H158.835ZM183.587 152.979H187.907V148.979H183.587V152.979ZM187.907 152.979C199.039 152.979 206.8 154.492 211.727 157.415C214.151 158.853 215.874 160.624 217.005 162.736C218.141 164.858 218.739 167.435 218.739 170.563H222.739C222.739 166.922 222.041 163.667 220.531 160.848C219.016 158.019 216.743 155.74 213.768 153.975C207.894 150.49 199.24 148.979 187.907 148.979V152.979ZM218.739 170.563C218.739 176.477 216.463 181.15 212.492 184.384C208.477 187.654 202.558 189.587 195.107 189.587V193.587C203.209 193.587 210.105 191.487 215.018 187.485C219.976 183.448 222.739 177.609 222.739 170.563H218.739ZM195.107 189.587C185.442 189.587 177.872 185.908 168.916 176.392L166.003 179.133C175.479 189.201 184.036 193.587 195.107 193.587V189.587ZM168.964 176.446C164.538 171.387 158.797 168.851 151.907 168.851V172.851C157.689 172.851 162.317 174.923 165.954 179.08L168.964 176.446ZM151.907 168.851C138.147 168.851 127.155 179.809 127.155 193.315H131.155C131.155 182.052 140.323 172.851 151.907 172.851V168.851ZM127.155 193.315C127.155 198.602 128.711 203.61 131.543 207.701L134.832 205.424C132.48 202.027 131.155 197.819 131.155 193.315H127.155ZM131.587 207.763C146.686 227.894 170.343 239.091 197.123 239.091V235.091C171.488 235.091 149.065 224.399 134.787 205.363L131.587 207.763ZM197.123 239.091C240.36 239.091 273.427 209.589 273.427 170.275H269.427C269.427 206.993 238.559 235.091 197.123 235.091V239.091ZM273.427 170.275C273.427 141.71 255.244 118.762 228.768 111.325L227.686 115.176C252.475 122.139 269.427 143.543 269.427 170.275H273.427Z" fill="#ED0677"/>
<path d="M70.344 44.761L69.626 42.8943L69.5605 42.9195L69.4969 42.9493L70.344 44.761ZM25.992 65.497L26.8378 67.3094L26.8391 67.3088L25.992 65.497ZM44.712 108.409L45.5243 110.237L45.5372 110.231L45.5501 110.225L44.712 108.409ZM55.944 103.225H57.944V100.099L55.1059 101.409L55.944 103.225ZM80.712 40.457C77.1982 40.457 73.4818 41.4114 69.626 42.8943L71.062 46.6277C74.6942 45.2307 77.8898 44.457 80.712 44.457V40.457ZM69.4969 42.9493L25.1449 63.6853L26.8391 67.3088L71.1911 46.5728L69.4969 42.9493ZM25.1462 63.6847C15.8493 68.0232 10.168 76.4772 10.168 86.521H14.168C14.168 78.1329 18.8547 71.0349 26.8378 67.3094L25.1462 63.6847ZM10.168 86.521C10.168 100.505 21.0647 112.425 35.496 112.425V108.425C23.4313 108.425 14.168 98.4568 14.168 86.521H10.168ZM35.496 112.425C39.5831 112.425 42.7415 111.473 45.5243 110.237L43.8997 106.581C41.4985 107.649 38.8969 108.425 35.496 108.425V112.425ZM45.5501 110.225L56.7821 105.041L55.1059 101.409L43.8739 106.593L45.5501 110.225ZM53.944 103.225V214.393H57.944V103.225H53.944ZM53.944 214.393C53.944 222.8 56.1998 229.637 60.8538 234.371C65.5132 239.111 72.2873 241.449 80.712 241.449V237.449C73.0087 237.449 67.3988 235.323 63.7062 231.567C60.0082 227.805 57.944 222.114 57.944 214.393H53.944ZM80.712 241.449C89.1367 241.449 95.9108 239.111 100.57 234.371C105.224 229.637 107.48 222.8 107.48 214.393H103.48C103.48 222.114 101.416 227.805 97.7178 231.567C94.0252 235.323 88.4153 237.449 80.712 237.449V241.449ZM107.48 214.393V67.225H103.48V214.393H107.48ZM107.48 67.225C107.48 52.5845 95.3526 40.457 80.712 40.457V44.457C93.1434 44.457 103.48 54.7936 103.48 67.225H107.48ZM234.227 115.609L232.963 114.06L229.981 116.494L233.686 117.535L234.227 115.609ZM262.451 92.569L263.716 94.1184L263.726 94.1098L262.451 92.569ZM203.987 90.553L205.248 92.1058L209.624 88.553H203.987V90.553ZM179.507 110.425L178.247 108.872L178.241 108.877L179.507 110.425ZM173.459 180.121L171.954 181.438L171.978 181.465L172.003 181.492L173.459 180.121ZM139.187 208.921L137.543 210.059L137.564 210.091L137.587 210.121L139.187 208.921ZM235.492 117.158L263.716 94.1184L261.187 91.0197L232.963 114.06L235.492 117.158ZM263.726 94.1098C272.374 86.9534 276.547 79.8132 276.547 70.681H272.547C272.547 78.2529 269.233 84.3607 261.176 91.0282L263.726 94.1098ZM276.547 70.681C276.547 56.0405 264.42 43.913 249.779 43.913V47.913C262.211 47.913 272.547 58.2496 272.547 70.681H276.547ZM249.779 43.913H163.379V47.913H249.779V43.913ZM163.379 43.913C149.366 43.913 138.627 54.2621 138.627 68.089H142.627C142.627 56.572 151.473 47.913 163.379 47.913V43.913ZM138.627 68.089C138.627 82.1871 149.349 92.553 163.379 92.553V88.553C151.49 88.553 142.627 79.9109 142.627 68.089H138.627ZM163.379 92.553H203.987V88.553H163.379V92.553ZM202.727 89.0003L178.247 108.872L180.768 111.978L205.248 92.1058L202.727 89.0003ZM178.241 108.877C173.43 112.813 170.056 116.223 167.901 119.75C165.703 123.346 164.835 126.957 164.835 131.161H168.835C168.835 127.589 169.551 124.72 171.314 121.836C173.118 118.883 176.08 115.813 180.774 111.973L178.241 108.877ZM164.835 131.161C164.835 144.971 175.269 155.337 189.587 155.337V151.337C177.41 151.337 168.835 142.695 168.835 131.161H164.835ZM189.587 155.337H193.907V151.337H189.587V155.337ZM193.907 155.337C205.039 155.337 212.8 156.85 217.727 159.773C220.151 161.212 221.874 162.982 223.005 165.095C224.141 167.216 224.739 169.793 224.739 172.921H228.739C228.739 169.281 228.041 166.026 226.531 163.206C225.016 160.378 222.743 158.099 219.768 156.333C213.894 152.848 205.24 151.337 193.907 151.337V155.337ZM224.739 172.921C224.739 178.835 222.463 183.508 218.492 186.742C214.477 190.013 208.558 191.945 201.107 191.945V195.945C209.209 195.945 216.105 193.845 221.018 189.844C225.976 185.806 228.739 179.967 228.739 172.921H224.739ZM201.107 191.945C191.442 191.945 183.872 188.266 174.916 178.75L172.003 181.492C181.479 191.56 190.036 195.945 201.107 195.945V191.945ZM174.964 178.804C170.538 173.745 164.797 171.209 157.907 171.209V175.209C163.689 175.209 168.317 177.281 171.954 181.438L174.964 178.804ZM157.907 171.209C144.147 171.209 133.155 182.168 133.155 195.673H137.155C137.155 184.41 146.323 175.209 157.907 175.209V171.209ZM133.155 195.673C133.155 200.961 134.711 205.969 137.543 210.059L140.832 207.783C138.48 204.385 137.155 200.177 137.155 195.673H133.155ZM137.587 210.121C152.686 230.252 176.343 241.449 203.123 241.449V237.449C177.488 237.449 155.065 226.758 140.787 207.721L137.587 210.121ZM203.123 241.449C246.36 241.449 279.427 211.947 279.427 172.633H275.427C275.427 209.351 244.559 237.449 203.123 237.449V241.449ZM279.427 172.633C279.427 144.069 261.244 121.121 234.768 113.684L233.686 117.535C258.475 124.498 275.427 145.901 275.427 172.633H279.427Z" fill="#ED0677"/>
<path d="M71.712 39.464C68.544 39.464 65.088 40.328 61.344 41.768L16.992 62.504C8.352 66.536 3.168 74.312 3.168 83.528C3.168 96.488 13.248 107.432 26.496 107.432C30.24 107.432 33.12 106.568 35.712 105.416L46.944 100.232V211.4C46.944 227.528 55.584 236.456 71.712 236.456C87.84 236.456 96.48 227.528 96.48 211.4V64.232C96.48 50.696 85.248 39.464 71.712 39.464ZM225.227 112.616L253.451 89.576C261.803 82.664 265.547 76.04 265.547 67.688C265.547 54.152 254.315 42.92 240.779 42.92H154.379C141.419 42.92 131.627 52.424 131.627 65.096C131.627 78.056 141.419 87.56 154.379 87.56H194.987L170.507 107.432C161.003 115.208 157.835 120.392 157.835 128.168C157.835 140.84 167.339 150.344 180.587 150.344H184.907C207.371 150.344 217.739 156.392 217.739 169.928C217.739 182.888 207.659 190.952 192.107 190.952C181.739 190.952 173.675 186.92 164.459 177.128C160.427 172.52 155.243 170.216 148.907 170.216C136.235 170.216 126.155 180.296 126.155 192.68C126.155 197.576 127.595 202.184 130.187 205.928C144.875 225.512 167.915 236.456 194.123 236.456C236.459 236.456 268.427 207.656 268.427 169.64C268.427 141.992 250.859 119.816 225.227 112.616Z" fill="#ED0677"/>
</svg>
