<svg width="32" height="33" viewBox="0 0 32 33" fill="none" xmlns="http://www.w3.org/2000/svg">
<path d="M0.590171 31.4957C0.199647 31.1052 0.199647 30.472 0.590171 30.0815L29.5815 1.0901C29.9721 0.699574 30.6052 0.699574 30.9958 1.0901C31.3863 1.48062 31.3863 2.11379 30.9958 2.50431L2.00439 31.4957C1.61386 31.8862 0.980695 31.8862 0.590171 31.4957Z" fill="#ED0677"/>
<path d="M31.7029 32.2028C31.3123 32.5933 30.6792 32.5933 30.2887 32.2028L1.29728 3.21142C0.906754 2.82089 0.906754 2.18773 1.29728 1.7972C1.6878 1.40668 2.32097 1.40668 2.71149 1.7972L31.7029 30.7886C32.0934 31.1791 32.0934 31.8123 31.7029 32.2028Z" fill="#ED0677"/>
</svg>
