<svg width="35" height="25" viewBox="0 0 35 25" fill="none" xmlns="http://www.w3.org/2000/svg">
<path d="M31.6514 20.0486C31.6514 20.1679 31.7481 20.2646 31.8674 20.2646C31.9867 20.2646 32.0835 20.1679 32.0835 20.0486C32.0835 19.9293 31.9867 19.8325 31.8674 19.8325C31.7481 19.8325 31.6514 19.9293 31.6514 20.0486Z" fill="#14B1E7"/>
<path d="M31.8674 21.2255C31.7481 21.2255 31.6514 21.3222 31.6514 21.4415C31.6514 21.5608 31.7481 21.6576 31.8674 21.6576C31.9867 21.6576 32.0835 21.5608 32.0835 21.4415C32.0835 21.3222 31.9867 21.2255 31.8674 21.2255Z" fill="#14B1E7"/>
<path d="M31.1974 20.935C31.3167 20.935 31.4134 20.8382 31.4134 20.7189C31.4134 20.5996 31.3167 20.5028 31.1974 20.5028C31.078 20.5028 30.9813 20.5996 30.9813 20.7189C30.9813 20.8382 31.078 20.935 31.1974 20.935Z" fill="#14B1E7"/>
<path d="M30.4747 21.2255C30.3554 21.2255 30.2587 21.3222 30.2587 21.4415C30.2587 21.5608 30.3554 21.6576 30.4747 21.6576C30.594 21.6576 30.6908 21.5608 30.6908 21.4415C30.6908 21.3222 30.594 21.2255 30.4747 21.2255Z" fill="#14B1E7"/>
<path d="M31.1974 21.8957C31.0781 21.8957 30.9813 21.9924 30.9813 22.1117C30.9813 22.2311 31.078 22.3278 31.1974 22.3278C31.3167 22.3278 31.4134 22.2311 31.4134 22.1117C31.4134 21.9924 31.3167 21.8957 31.1974 21.8957Z" fill="#14B1E7"/>
<path d="M30.4747 22.6183C30.3554 22.6183 30.2587 22.7151 30.2587 22.8344C30.2587 22.9537 30.3554 23.0505 30.4747 23.0505C30.594 23.0505 30.6908 22.9537 30.6908 22.8344C30.6908 22.7151 30.594 22.6183 30.4747 22.6183Z" fill="#14B1E7"/>
<path d="M29.083 21.2255C28.9637 21.2255 28.8669 21.3222 28.8669 21.4415C28.8669 21.5608 28.9637 21.6576 29.083 21.6576C29.2023 21.6576 29.299 21.5608 29.299 21.4415C29.2991 21.3222 29.2023 21.2255 29.083 21.2255Z" fill="#14B1E7"/>
<path d="M29.8046 21.8957C29.6853 21.8957 29.5885 21.9924 29.5885 22.1117C29.5885 22.2311 29.6853 22.3278 29.8046 22.3278C29.9239 22.3278 30.0207 22.2311 30.0207 22.1117C30.0207 21.9924 29.924 21.8957 29.8046 21.8957Z" fill="#14B1E7"/>
<path d="M29.083 22.6183C28.9637 22.6183 28.8669 22.7151 28.8669 22.8344C28.8669 22.9537 28.9637 23.0505 29.083 23.0505C29.2023 23.0505 29.299 22.9537 29.299 22.8344C29.2991 22.7151 29.2023 22.6183 29.083 22.6183Z" fill="#14B1E7"/>
<path d="M27.6903 21.2255C27.571 21.2255 27.4743 21.3222 27.4743 21.4415C27.4743 21.5608 27.571 21.6576 27.6903 21.6576C27.8097 21.6576 27.9064 21.5608 27.9064 21.4415C27.9064 21.3222 27.8097 21.2255 27.6903 21.2255Z" fill="#14B1E7"/>
<path d="M28.4129 21.8957C28.2936 21.8957 28.1968 21.9924 28.1968 22.1117C28.1968 22.2311 28.2935 22.3278 28.4129 22.3278C28.5322 22.3278 28.6289 22.2311 28.6289 22.1117C28.6289 21.9924 28.5322 21.8957 28.4129 21.8957Z" fill="#14B1E7"/>
<path d="M27.6903 22.6183C27.571 22.6183 27.4743 22.7151 27.4743 22.8344C27.4743 22.9537 27.571 23.0505 27.6903 23.0505C27.8097 23.0505 27.9064 22.9537 27.9064 22.8344C27.9064 22.7151 27.8097 22.6183 27.6903 22.6183Z" fill="#14B1E7"/>
<path d="M28.4129 23.2887C28.2936 23.2887 28.1968 23.3854 28.1968 23.5047C28.1968 23.624 28.2935 23.7208 28.4129 23.7208C28.5322 23.7208 28.6289 23.624 28.6289 23.5047C28.6289 23.3853 28.5322 23.2887 28.4129 23.2887Z" fill="#14B1E7"/>
<path d="M26.2958 21.2255C26.1765 21.2255 26.0798 21.3222 26.0798 21.4415C26.0798 21.5608 26.1765 21.6576 26.2958 21.6576C26.4151 21.6576 26.5119 21.5608 26.5119 21.4415C26.5118 21.3222 26.4151 21.2255 26.2958 21.2255Z" fill="#14B1E7"/>
<path d="M27.0193 21.8957C26.9 21.8957 26.8032 21.9924 26.8032 22.1117C26.8032 22.2311 26.9 22.3278 27.0193 22.3278C27.1386 22.3278 27.2354 22.2311 27.2354 22.1117C27.2354 21.9924 27.1387 21.8957 27.0193 21.8957Z" fill="#14B1E7"/>
<path d="M26.2958 22.6183C26.1765 22.6183 26.0798 22.7151 26.0798 22.8344C26.0798 22.9537 26.1765 23.0505 26.2958 23.0505C26.4151 23.0505 26.5119 22.9537 26.5119 22.8344C26.5118 22.7151 26.4151 22.6183 26.2958 22.6183Z" fill="#14B1E7"/>
<path d="M27.0193 23.2887C26.9 23.2887 26.8032 23.3854 26.8032 23.5047C26.8032 23.624 26.9 23.7208 27.0193 23.7208C27.1386 23.7208 27.2354 23.624 27.2354 23.5047C27.2354 23.3853 27.1387 23.2887 27.0193 23.2887Z" fill="#14B1E7"/>
<path d="M24.9032 21.2255C24.7839 21.2255 24.6872 21.3222 24.6872 21.4415C24.6872 21.5608 24.7839 21.6576 24.9032 21.6576C25.0225 21.6576 25.1193 21.5608 25.1193 21.4415C25.1193 21.3222 25.0225 21.2255 24.9032 21.2255Z" fill="#14B1E7"/>
<path d="M25.6267 21.8957C25.5074 21.8957 25.4107 21.9924 25.4107 22.1117C25.4107 22.2311 25.5074 22.3278 25.6267 22.3278C25.746 22.3278 25.8428 22.2311 25.8428 22.1117C25.8428 21.9924 25.746 21.8957 25.6267 21.8957Z" fill="#14B1E7"/>
<path d="M24.9032 22.6183C24.7839 22.6183 24.6872 22.7151 24.6872 22.8344C24.6872 22.9537 24.7839 23.0505 24.9032 23.0505C25.0225 23.0505 25.1193 22.9537 25.1193 22.8344C25.1193 22.7151 25.0225 22.6183 24.9032 22.6183Z" fill="#14B1E7"/>
<path d="M25.6267 23.2887C25.5074 23.2887 25.4107 23.3854 25.4107 23.5047C25.4107 23.624 25.5074 23.7208 25.6267 23.7208C25.746 23.7208 25.8428 23.624 25.8428 23.5047C25.8428 23.3853 25.746 23.2887 25.6267 23.2887Z" fill="#14B1E7"/>
<path d="M23.5105 21.2255C23.3912 21.2255 23.2945 21.3222 23.2945 21.4415C23.2945 21.5608 23.3912 21.6576 23.5105 21.6576C23.6299 21.6576 23.7266 21.5608 23.7266 21.4415C23.7266 21.3222 23.6299 21.2255 23.5105 21.2255Z" fill="#14B1E7"/>
<path d="M24.234 21.8957C24.1147 21.8957 24.0179 21.9924 24.0179 22.1117C24.0179 22.2311 24.1146 22.3278 24.234 22.3278C24.3533 22.3278 24.4501 22.2311 24.4501 22.1117C24.4501 21.9924 24.3533 21.8957 24.234 21.8957Z" fill="#14B1E7"/>
<path d="M23.5105 22.6183C23.3912 22.6183 23.2945 22.7151 23.2945 22.8344C23.2945 22.9537 23.3912 23.0505 23.5105 23.0505C23.6299 23.0505 23.7266 22.9537 23.7266 22.8344C23.7266 22.7151 23.6299 22.6183 23.5105 22.6183Z" fill="#14B1E7"/>
<path d="M24.234 23.2887C24.1147 23.2887 24.0179 23.3854 24.0179 23.5047C24.0179 23.624 24.1146 23.7208 24.234 23.7208C24.3533 23.7208 24.4501 23.624 24.4501 23.5047C24.4501 23.3853 24.3533 23.2887 24.234 23.2887Z" fill="#14B1E7"/>
<path d="M22.1179 21.6575C22.2372 21.6575 22.3339 21.5608 22.3339 21.4415C22.3339 21.3222 22.2372 21.2255 22.1179 21.2255C21.9986 21.2255 21.9019 21.3222 21.9019 21.4415C21.9019 21.5608 21.9986 21.6575 22.1179 21.6575Z" fill="#14B1E7"/>
<path d="M22.8404 21.8957C22.7211 21.8957 22.6243 21.9924 22.6243 22.1117C22.6243 22.2311 22.7211 22.3278 22.8404 22.3278C22.9597 22.3278 23.0565 22.2311 23.0565 22.1117C23.0564 21.9924 22.9597 21.8957 22.8404 21.8957Z" fill="#14B1E7"/>
<path d="M22.1188 22.6183C21.9994 22.6183 21.9027 22.7151 21.9027 22.8344C21.9027 22.9537 21.9994 23.0505 22.1188 23.0505C22.2381 23.0505 22.3348 22.9537 22.3348 22.8344C22.3348 22.7151 22.2381 22.6183 22.1188 22.6183Z" fill="#14B1E7"/>
<path d="M20.7252 19.8325C20.6059 19.8325 20.5091 19.9293 20.5091 20.0486C20.5091 20.1679 20.6058 20.2646 20.7252 20.2646C20.8446 20.2646 20.9412 20.1679 20.9412 20.0486C20.9412 19.9293 20.8445 19.8325 20.7252 19.8325Z" fill="#14B1E7"/>
<path d="M21.4478 20.935C21.5671 20.935 21.6638 20.8382 21.6638 20.7189C21.6638 20.5996 21.5671 20.5029 21.4478 20.5029C21.3285 20.5029 21.2318 20.5996 21.2318 20.7189C21.2318 20.8382 21.3285 20.935 21.4478 20.935Z" fill="#14B1E7"/>
<path d="M21.4478 21.8957C21.3285 21.8957 21.2318 21.9924 21.2318 22.1117C21.2318 22.2311 21.3285 22.3278 21.4478 22.3278C21.5671 22.3278 21.6639 22.2311 21.6639 22.1117C21.6638 21.9924 21.5671 21.8957 21.4478 21.8957Z" fill="#14B1E7"/>
<path d="M19.3325 18.4398C19.2132 18.4398 19.1164 18.5365 19.1164 18.6558C19.1164 18.7751 19.2131 18.8719 19.3325 18.8719C19.4518 18.8719 19.5485 18.7752 19.5485 18.6558C19.5485 18.5364 19.4518 18.4398 19.3325 18.4398Z" fill="#14B1E7"/>
<path d="M20.0551 19.1099C19.9358 19.1099 19.839 19.2067 19.839 19.326C19.839 19.4453 19.9357 19.5421 20.0551 19.5421C20.1745 19.5421 20.2712 19.4453 20.2712 19.326C20.2712 19.2067 20.1744 19.1099 20.0551 19.1099Z" fill="#14B1E7"/>
<path d="M18.6616 17.7171C18.5423 17.7171 18.4455 17.8138 18.4455 17.9332C18.4455 18.0525 18.5423 18.1492 18.6616 18.1492C18.7809 18.1492 18.8776 18.0525 18.8776 17.9332C18.8776 17.8138 18.7809 17.7171 18.6616 17.7171Z" fill="#14B1E7"/>
<path d="M17.9432 17.0374C17.8239 17.0374 17.7271 17.1342 17.7271 17.2535C17.7271 17.3728 17.8239 17.4696 17.9432 17.4696C18.0625 17.4696 18.1593 17.3728 18.1593 17.2535C18.1592 17.1342 18.0625 17.0374 17.9432 17.0374Z" fill="#14B1E7"/>
<path d="M17.2688 18.1492C17.3881 18.1492 17.4849 18.0525 17.4849 17.9332C17.4849 17.8138 17.3881 17.7171 17.2688 17.7171C17.1495 17.7171 17.0527 17.8138 17.0527 17.9332C17.0527 18.0525 17.1495 18.1492 17.2688 18.1492Z" fill="#14B1E7"/>
<path d="M15.877 17.7171C15.7577 17.7171 15.6609 17.8138 15.6609 17.9332C15.6609 18.0525 15.7577 18.1492 15.877 18.1492C15.9963 18.1492 16.0931 18.0525 16.0931 17.9332C16.0931 17.8138 15.9963 17.7171 15.877 17.7171Z" fill="#14B1E7"/>
<path d="M16.5455 17.0475C16.4262 17.0475 16.3295 17.1442 16.3295 17.2636C16.3295 17.383 16.4262 17.4797 16.5455 17.4797C16.6648 17.4797 16.7616 17.383 16.7616 17.2636C16.7616 17.1442 16.6648 17.0475 16.5455 17.0475Z" fill="#14B1E7"/>
<path d="M15.1536 18.4398C15.0343 18.4398 14.9375 18.5365 14.9375 18.6558C14.9375 18.7751 15.0342 18.8719 15.1536 18.8719C15.273 18.8719 15.3697 18.7752 15.3697 18.6558C15.3697 18.5364 15.2729 18.4398 15.1536 18.4398Z" fill="#14B1E7"/>
<path d="M14.4826 19.1099C14.3633 19.1099 14.2666 19.2067 14.2666 19.326C14.2666 19.4453 14.3633 19.5421 14.4826 19.5421C14.6019 19.5421 14.6987 19.4453 14.6987 19.326C14.6987 19.2067 14.6019 19.1099 14.4826 19.1099Z" fill="#14B1E7"/>
<path d="M13.761 19.8325C13.6416 19.8325 13.5449 19.9293 13.5449 20.0486C13.5449 20.1679 13.6416 20.2646 13.761 20.2646C13.8803 20.2646 13.977 20.1679 13.977 20.0486C13.977 19.9293 13.8803 19.8325 13.761 19.8325Z" fill="#14B1E7"/>
<path d="M14.4826 20.935C14.6019 20.935 14.6986 20.8382 14.6986 20.7189C14.6986 20.5996 14.6019 20.5029 14.4826 20.5029C14.3633 20.5029 14.2666 20.5996 14.2666 20.7189C14.2666 20.8382 14.3633 20.935 14.4826 20.935Z" fill="#14B1E7"/>
<path d="M13.761 21.6575C13.8803 21.6575 13.977 21.5608 13.977 21.4415C13.977 21.3222 13.8803 21.2255 13.761 21.2255C13.6416 21.2255 13.5449 21.3222 13.5449 21.4415C13.5449 21.5608 13.6416 21.6575 13.761 21.6575Z" fill="#14B1E7"/>
<path d="M13.0899 20.5028C12.9706 20.5028 12.8738 20.5995 12.8738 20.7189C12.8738 20.8383 12.9705 20.935 13.0899 20.935C13.2092 20.935 13.306 20.8383 13.306 20.7189C13.306 20.5995 13.2092 20.5028 13.0899 20.5028Z" fill="#14B1E7"/>
<path d="M12.3683 21.2255C12.249 21.2255 12.1522 21.3222 12.1522 21.4415C12.1522 21.5608 12.2489 21.6576 12.3683 21.6576C12.4876 21.6576 12.5843 21.5608 12.5843 21.4415C12.5843 21.3222 12.4876 21.2255 12.3683 21.2255Z" fill="#14B1E7"/>
<path d="M13.0899 21.8957C12.9706 21.8957 12.8738 21.9924 12.8738 22.1117C12.8738 22.2311 12.9705 22.3278 13.0899 22.3278C13.2092 22.3278 13.306 22.2311 13.306 22.1117C13.306 21.9924 13.2092 21.8957 13.0899 21.8957Z" fill="#14B1E7"/>
<path d="M12.3683 22.6183C12.249 22.6183 12.1522 22.7151 12.1522 22.8344C12.1522 22.9537 12.2489 23.0505 12.3683 23.0505C12.4876 23.0505 12.5843 22.9537 12.5843 22.8344C12.5843 22.7151 12.4876 22.6183 12.3683 22.6183Z" fill="#14B1E7"/>
<path d="M10.9756 21.6575C11.0949 21.6575 11.1916 21.5608 11.1916 21.4415C11.1916 21.3222 11.0949 21.2255 10.9756 21.2255C10.8563 21.2255 10.7596 21.3222 10.7596 21.4415C10.7596 21.5608 10.8563 21.6575 10.9756 21.6575Z" fill="#14B1E7"/>
<path d="M11.6982 21.8957C11.5789 21.8957 11.4821 21.9924 11.4821 22.1117C11.4821 22.2311 11.5788 22.3278 11.6982 22.3278C11.8175 22.3278 11.9142 22.2311 11.9142 22.1117C11.9142 21.9924 11.8175 21.8957 11.6982 21.8957Z" fill="#14B1E7"/>
<path d="M10.9747 22.6183C10.8554 22.6183 10.7586 22.7151 10.7586 22.8344C10.7586 22.9537 10.8553 23.0505 10.9747 23.0505C11.094 23.0505 11.1907 22.9537 11.1907 22.8344C11.1907 22.7151 11.094 22.6183 10.9747 22.6183Z" fill="#14B1E7"/>
<path d="M9.58194 21.2255C9.46263 21.2255 9.36585 21.3222 9.36585 21.4415C9.36585 21.5608 9.46256 21.6576 9.58194 21.6576C9.70132 21.6576 9.79803 21.5608 9.79803 21.4415C9.79803 21.3222 9.70132 21.2255 9.58194 21.2255Z" fill="#14B1E7"/>
<path d="M10.3055 21.8957C10.1862 21.8957 10.0895 21.9924 10.0895 22.1117C10.0895 22.2311 10.1862 22.3278 10.3055 22.3278C10.4248 22.3278 10.5216 22.2311 10.5216 22.1117C10.5215 21.9924 10.4248 21.8957 10.3055 21.8957Z" fill="#14B1E7"/>
<path d="M9.58194 22.6183C9.46263 22.6183 9.36585 22.7151 9.36585 22.8344C9.36585 22.9537 9.46256 23.0505 9.58194 23.0505C9.70132 23.0505 9.79803 22.9537 9.79803 22.8344C9.79803 22.7151 9.70132 22.6183 9.58194 22.6183Z" fill="#14B1E7"/>
<path d="M10.3055 23.2887C10.1862 23.2887 10.0895 23.3854 10.0895 23.5047C10.0895 23.624 10.1862 23.7208 10.3055 23.7208C10.4248 23.7208 10.5216 23.624 10.5216 23.5047C10.5215 23.3853 10.4248 23.2887 10.3055 23.2887Z" fill="#14B1E7"/>
<path d="M8.18838 21.2255C8.06908 21.2255 7.9723 21.3222 7.9723 21.4415C7.9723 21.5608 8.06901 21.6576 8.18838 21.6576C8.30769 21.6576 8.40447 21.5608 8.40447 21.4415C8.40447 21.3222 8.30776 21.2255 8.18838 21.2255Z" fill="#14B1E7"/>
<path d="M8.91284 21.8957C8.79353 21.8957 8.69675 21.9924 8.69675 22.1117C8.69675 22.2311 8.79346 22.3278 8.91284 22.3278C9.03214 22.3278 9.12892 22.2311 9.12892 22.1117C9.12885 21.9924 9.03214 21.8957 8.91284 21.8957Z" fill="#14B1E7"/>
<path d="M8.18838 22.6183C8.06908 22.6183 7.9723 22.7151 7.9723 22.8344C7.9723 22.9537 8.06901 23.0505 8.18838 23.0505C8.30769 23.0505 8.40447 22.9537 8.40447 22.8344C8.40447 22.7151 8.30776 22.6183 8.18838 22.6183Z" fill="#14B1E7"/>
<path d="M8.91284 23.2887C8.79353 23.2887 8.69675 23.3854 8.69675 23.5047C8.69675 23.624 8.79346 23.7208 8.91284 23.7208C9.03214 23.7208 9.12892 23.624 9.12892 23.5047C9.12885 23.3853 9.03214 23.2887 8.91284 23.2887Z" fill="#14B1E7"/>
<path d="M6.79575 21.6575C6.91505 21.6575 7.01177 21.5608 7.01177 21.4415C7.01177 21.3222 6.91505 21.2255 6.79575 21.2255C6.67645 21.2255 6.57973 21.3222 6.57973 21.4415C6.57973 21.5608 6.67645 21.6575 6.79575 21.6575Z" fill="#14B1E7"/>
<path d="M7.51927 21.8957C7.39996 21.8957 7.30318 21.9924 7.30318 22.1117C7.30318 22.2311 7.39996 22.3278 7.51927 22.3278C7.63858 22.3278 7.73536 22.2311 7.73536 22.1117C7.73529 21.9924 7.63858 21.8957 7.51927 21.8957Z" fill="#14B1E7"/>
<path d="M6.79663 22.6183C6.67733 22.6183 6.58055 22.7151 6.58055 22.8344C6.58055 22.9537 6.67726 23.0505 6.79663 23.0505C6.91594 23.0505 7.01272 22.9537 7.01272 22.8344C7.01272 22.7151 6.91594 22.6183 6.79663 22.6183Z" fill="#14B1E7"/>
<path d="M7.51927 23.2887C7.39996 23.2887 7.30318 23.3854 7.30318 23.5047C7.30318 23.624 7.39996 23.7208 7.51927 23.7208C7.63858 23.7208 7.73536 23.624 7.73536 23.5047C7.73529 23.3853 7.63858 23.2887 7.51927 23.2887Z" fill="#14B1E7"/>
<path d="M5.40306 21.2255C5.28376 21.2255 5.18698 21.3222 5.18698 21.4415C5.18698 21.5608 5.28369 21.6576 5.40306 21.6576C5.52237 21.6576 5.61915 21.5608 5.61915 21.4415C5.61915 21.3222 5.52237 21.2255 5.40306 21.2255Z" fill="#14B1E7"/>
<path d="M6.12652 21.8957C6.00721 21.8957 5.91043 21.9924 5.91043 22.1117C5.91043 22.2311 6.00721 22.3278 6.12652 22.3278C6.24583 22.3278 6.34261 22.2311 6.34261 22.1117C6.34261 21.9924 6.2459 21.8957 6.12652 21.8957Z" fill="#14B1E7"/>
<path d="M5.40306 22.6183C5.28376 22.6183 5.18698 22.7151 5.18698 22.8344C5.18698 22.9537 5.28369 23.0505 5.40306 23.0505C5.52237 23.0505 5.61915 22.9537 5.61915 22.8344C5.61915 22.7151 5.52237 22.6183 5.40306 22.6183Z" fill="#14B1E7"/>
<path d="M4.73295 20.5028C4.61364 20.5028 4.51686 20.5995 4.51686 20.7189C4.51686 20.8383 4.61357 20.935 4.73295 20.935C4.85233 20.935 4.94904 20.8383 4.94904 20.7189C4.94904 20.5995 4.85226 20.5028 4.73295 20.5028Z" fill="#14B1E7"/>
<path d="M4.01131 21.2255C3.892 21.2255 3.79523 21.3222 3.79523 21.4415C3.79523 21.5608 3.892 21.6576 4.01131 21.6576C4.13062 21.6576 4.2274 21.5608 4.2274 21.4415C4.22733 21.3222 4.13062 21.2255 4.01131 21.2255Z" fill="#14B1E7"/>
<path d="M4.73295 21.8957C4.61364 21.8957 4.51686 21.9924 4.51686 22.1117C4.51686 22.2311 4.61357 22.3278 4.73295 22.3278C4.85233 22.3278 4.94904 22.2311 4.94904 22.1117C4.94904 21.9924 4.85226 21.8957 4.73295 21.8957Z" fill="#14B1E7"/>
<path d="M3.3412 20.5028C3.2219 20.5028 3.12512 20.5995 3.12512 20.7189C3.12512 20.8383 3.2219 20.935 3.3412 20.935C3.46051 20.935 3.55729 20.8383 3.55729 20.7189C3.55729 20.5995 3.46051 20.5028 3.3412 20.5028Z" fill="#14B1E7"/>
<path d="M2.62105 18.4347C2.50175 18.4347 2.40497 18.5315 2.40497 18.6508C2.40497 18.7701 2.50168 18.8668 2.62105 18.8668C2.74036 18.8668 2.83714 18.7701 2.83714 18.6508C2.83714 18.5314 2.74036 18.4347 2.62105 18.4347Z" fill="#14B1E7"/>
<path d="M33.427 8.46365H32.9759C32.3793 7.33474 31.1934 6.56313 29.83 6.56313H21.4799V2.98908C21.4799 1.67409 20.41 0.604248 19.095 0.604248H16.1031C14.7881 0.604248 13.7183 1.67409 13.7183 2.98908V6.56313H5.25032C3.88705 6.56313 2.70106 7.33467 2.10445 8.46365H1.57304C0.705675 8.46365 0 9.16926 0 10.0366V19.1634C0 20.0308 0.705675 20.7364 1.57304 20.7364H2.1118C2.24835 21.1907 2.43023 21.6182 2.6731 22.0038C3.70077 23.6355 5.66539 24.3954 8.8559 24.3954C14.0728 24.3954 14.5106 23.0707 15.0174 21.5368C15.1758 21.0575 15.3395 20.5619 15.6768 20.0807C16.1074 19.4666 16.7852 19.1146 17.5366 19.1146C18.2934 19.1149 18.9773 19.4706 19.4113 20.0906C19.7275 20.5422 19.9106 21.0071 20.0878 21.4566C20.3845 22.2094 20.6912 22.9878 21.6086 23.5388C22.5816 24.1232 24.1501 24.3954 26.5447 24.3954C30.9331 24.3954 32.4989 22.9063 33.0622 20.7364H33.427C34.2944 20.7364 35 20.0308 35 19.1634V10.0366C34.9999 9.16926 34.2943 8.46365 33.427 8.46365ZM32.8317 16.6573C32.8282 17.5624 32.8247 18.413 32.7576 19.1901C32.718 19.1416 32.6584 19.1099 32.5909 19.1099C32.4715 19.1099 32.3748 19.2066 32.3748 19.3259C32.3748 19.4452 32.4715 19.542 32.5909 19.542C32.6431 19.542 32.6903 19.5227 32.7277 19.4919C32.6878 19.8475 32.6321 20.1863 32.554 20.5065C32.4523 20.5241 32.3748 20.6121 32.3748 20.7188C32.3748 20.7837 32.404 20.8412 32.4493 20.8808C32.0875 22.0164 31.3773 22.8819 29.9779 23.3759C29.9384 23.3231 29.8761 23.2885 29.8052 23.2885C29.6881 23.2885 29.5933 23.3817 29.5898 23.498C28.7894 23.7225 27.7913 23.8425 26.5447 23.8425C24.9773 23.8425 23.8638 23.7265 23.055 23.5219C23.0555 23.5162 23.0568 23.5106 23.0568 23.5046C23.0568 23.3853 22.9601 23.2886 22.8407 23.2886C22.7578 23.2886 22.6866 23.3359 22.6504 23.4045C21.476 23.0122 21.0759 22.3869 20.7638 21.6537C20.8647 21.6355 20.9413 21.5477 20.9413 21.4416C20.9413 21.3223 20.8446 21.2256 20.7253 21.2256C20.6809 21.2256 20.6397 21.239 20.6054 21.262C20.6043 21.2593 20.6033 21.2567 20.6022 21.254C20.4133 20.7746 20.2178 20.2788 19.8642 19.7736C19.4532 19.1865 18.8389 18.7836 18.153 18.6308C18.1405 18.5234 18.0503 18.4398 17.9395 18.4398C17.8507 18.4398 17.7746 18.4934 17.7414 18.57C17.6738 18.5651 17.6059 18.5618 17.5375 18.5618C17.5379 18.5618 17.5372 18.5618 17.5375 18.5618C17.2698 18.5618 17.0091 18.5989 16.7615 18.6683C16.7617 18.6641 16.7627 18.6602 16.7627 18.6559C16.7627 18.5366 16.666 18.4399 16.5467 18.4399C16.4274 18.4399 16.3306 18.5366 16.3306 18.6559C16.3306 18.7121 16.3526 18.7628 16.3877 18.8012C15.9277 19.0045 15.5268 19.3319 15.2241 19.7635C15.2074 19.7873 15.1917 19.8111 15.1757 19.8349C15.1684 19.8341 15.1612 19.8327 15.1537 19.8327C15.0344 19.8327 14.9377 19.9295 14.9377 20.0488C14.9377 20.0932 14.9512 20.1345 14.9742 20.1689C14.7506 20.5825 14.6152 20.9916 14.4924 21.3634C14.3358 21.8375 14.1903 22.2774 13.8737 22.6511C13.8408 22.6307 13.8024 22.6184 13.7608 22.6184C13.6415 22.6184 13.5448 22.7152 13.5448 22.8345C13.5448 22.8733 13.5558 22.9091 13.5737 22.9406C13.2106 23.2282 12.6847 23.4604 11.8814 23.6173C11.9015 23.5844 11.9138 23.5461 11.9138 23.5047C11.9138 23.3854 11.817 23.2887 11.6977 23.2887C11.5784 23.2887 11.4816 23.3854 11.4816 23.5047C11.4816 23.5732 11.5141 23.6335 11.5639 23.6732C10.8663 23.7827 9.98309 23.8426 8.85583 23.8426C7.88537 23.8426 7.03916 23.7704 6.3065 23.6233C6.32896 23.5892 6.34221 23.5486 6.34221 23.5047C6.34221 23.3854 6.2455 23.2887 6.12613 23.2887C6.00682 23.2887 5.91004 23.3854 5.91004 23.5047C5.91004 23.5148 5.91169 23.5245 5.91307 23.5344C5.24908 23.3663 4.68902 23.1281 4.22484 22.8169C4.21578 22.7059 4.12388 22.6184 4.01055 22.6184C3.99365 22.6184 3.97737 22.6208 3.96164 22.6245C3.80435 22.4991 3.65929 22.3641 3.52714 22.2185C3.5452 22.1869 3.5564 22.1508 3.5564 22.1118C3.5564 21.9925 3.45962 21.8958 3.34031 21.8958C3.31751 21.8958 3.29601 21.9003 3.27541 21.9069C3.22884 21.8424 3.1835 21.777 3.14085 21.7092C2.87085 21.2806 2.68313 20.7939 2.55194 20.2535C2.57282 20.2603 2.59459 20.2649 2.61767 20.2649C2.73698 20.2649 2.83376 20.1681 2.83376 20.0488C2.83376 19.9295 2.73705 19.8328 2.61767 19.8328C2.56176 19.8328 2.51135 19.8545 2.47295 19.8894C2.28173 18.8846 2.25364 17.7109 2.24746 16.3888C2.24746 16.3838 2.24732 16.3788 2.24698 16.3738V10.1193C2.24698 8.46331 3.59424 7.11611 5.25025 7.11611H29.83C31.486 7.11611 32.8332 8.46331 32.8332 10.1193L32.8317 16.6573Z" fill="#14B1E7"/>
<path d="M24.9433 9.45273C24.9433 9.30005 24.8195 9.17628 24.6668 9.17628H11.3631C11.2104 9.17628 11.0867 9.30005 11.0867 9.45273C11.0867 9.60535 11.2104 9.72912 11.3631 9.72912H24.6669C24.8195 9.72919 24.9433 9.60535 24.9433 9.45273Z" fill="#14B1E7"/>
<path d="M8.19553 11.4727C7.16978 11.4727 6.33532 12.3072 6.33532 13.333C6.33532 14.3587 7.16978 15.1932 8.19553 15.1932C9.22128 15.1932 10.0557 14.3587 10.0557 13.333C10.0557 12.3072 9.22121 11.4727 8.19553 11.4727ZM8.19553 14.6403C7.47468 14.6403 6.88817 14.0538 6.88817 13.3329C6.88817 12.6121 7.47468 12.0256 8.19553 12.0256C8.91639 12.0256 9.50289 12.612 9.50289 13.3329C9.50282 14.0538 8.91639 14.6403 8.19553 14.6403Z" fill="#14B1E7"/>
</svg>
