<svg width="192" height="190" viewBox="0 0 192 190" fill="none" xmlns="http://www.w3.org/2000/svg">
<path d="M15.1983 145.873L17.9086 149.807C18.2811 150.347 18.9432 150.469 19.4839 150.097L20.2003 149.603C23.8636 147.079 25.9165 146.442 27.2153 147.401C27.6112 147.687 28.0441 147.707 28.4496 147.428C28.9227 147.102 29.0143 146.54 28.679 146.054C28.4462 145.716 28.1332 145.493 27.6934 145.318C25.7842 144.34 23.0551 145.124 18.9989 147.859L17.4622 145.629L23.9641 141.149C24.4913 140.786 24.6267 140.114 24.2635 139.587C23.9096 139.074 23.234 138.961 22.7068 139.324L15.4884 144.298C14.9477 144.67 14.8258 145.332 15.1983 145.873Z" fill="#ED0677"/>
<path d="M8.71577 134.574C8.96149 135.057 9.33652 135.143 9.78495 135.227L17.864 136.733L12.4803 139.473C11.9098 139.764 11.6868 140.411 11.9772 140.982C12.2602 141.538 12.915 141.739 13.4855 141.448L21.4879 137.375C22.0438 137.092 22.2593 136.43 21.9838 135.889C21.8125 135.552 21.5543 135.371 21.1425 135.285L12.8648 133.715L18.2192 130.99C18.7898 130.699 19.0127 130.052 18.7298 129.496C18.4394 128.925 17.7845 128.724 17.214 129.015L9.21167 133.088C8.65575 133.371 8.43281 134.018 8.71577 134.574Z" fill="#ED0677"/>
<path d="M15.5882 121.44C15.0474 119.855 13.8757 118.607 12.4651 118.083C12.1059 117.945 11.8255 117.937 11.577 118.022C11.0643 118.197 10.7725 118.765 10.958 119.308C11.0641 119.619 11.294 119.835 11.643 119.994C12.653 120.412 13.3069 121.108 13.6409 122.087C14.2984 124.014 13.3721 125.873 11.4146 126.542C9.44159 127.215 7.55596 126.315 6.89849 124.388C6.55916 123.394 6.6457 122.428 7.19449 121.495C7.37906 121.172 7.42344 120.844 7.3227 120.549C7.13713 120.005 6.55367 119.719 6.041 119.894C5.76136 119.989 5.5499 120.183 5.37556 120.485C4.58536 121.778 4.42103 123.482 4.95654 125.051C6.00636 128.127 9.15323 129.724 12.1361 128.706C15.1189 127.688 16.638 124.516 15.5882 121.44Z" fill="#ED0677"/>
<path d="M12.8775 111.456C12.7455 110.83 12.1655 110.466 11.5391 110.598L3.81271 112.225L3.2816 109.703C3.16319 109.141 2.63815 108.798 2.09201 108.913C1.5298 109.032 1.20011 109.537 1.3219 110.116L2.84082 117.328C2.95923 117.89 3.46821 118.236 4.03041 118.117C4.57656 118.002 4.91893 117.477 4.80052 116.915L4.26941 114.393L11.9958 112.766C12.6222 112.634 13.006 112.067 12.8775 111.456Z" fill="#ED0677"/>
<path d="M9.43274 98.3423L1.04912 102.932C0.579791 103.179 0.356089 103.565 0.407259 104.055C0.458429 104.545 0.75718 104.877 1.26745 105.022L10.4203 107.795C10.6574 107.853 10.8585 107.882 11.0217 107.865C11.6095 107.803 12.0335 107.28 11.9687 106.66C11.9192 106.186 11.6041 105.856 11.0775 105.713L9.91957 105.372L9.44369 100.817L10.5061 100.244C10.9901 99.9786 11.2301 99.5905 11.1807 99.117C11.1158 98.4966 10.5946 98.0889 10.0069 98.1503C9.84359 98.1674 9.65108 98.2205 9.43274 98.3423ZM3.65626 103.716L7.70819 101.741L8.03227 104.843L3.65626 103.716Z" fill="#ED0677"/>
<path d="M11.1657 93.4537C11.1707 92.8135 10.6819 92.3336 10.0417 92.3287L2.14611 92.2677L2.16601 89.6906C2.17045 89.116 1.73066 88.6694 1.17255 88.6651C0.59803 88.6607 0.167945 89.0842 0.163383 89.6751L0.10648 97.0454C0.102044 97.62 0.525412 98.0665 1.09994 98.0709C1.65805 98.0752 2.10467 97.6354 2.10911 97.0609L2.129 94.4837L10.0246 94.5447C10.6648 94.5496 11.1609 94.0774 11.1657 93.4537Z" fill="#ED0677"/>
<path d="M0.227314 86.4713C0.155898 87.1075 0.594015 87.6192 1.23022 87.6907L9.94137 88.6685C10.5939 88.7418 11.1201 88.3218 11.1933 87.6693L11.5614 84.3904C11.8269 82.025 10.5509 80.296 8.46279 80.0616C6.40735 79.8308 4.76155 81.2484 4.49786 83.5975L4.25065 85.7997L1.47743 85.4884C0.841227 85.417 0.298731 85.8351 0.227314 86.4713ZM6.42279 83.8135C6.54365 82.7369 7.28024 82.2084 8.2264 82.3146C9.15624 82.419 9.741 83.0958 9.62014 84.1724L9.37293 86.3747L6.17558 86.0158L6.42279 83.8135Z" fill="#ED0677"/>
<path d="M9.33379 67.0935C9.0104 66.4501 8.4598 65.9964 7.68843 65.7684C5.97252 65.2613 4.39171 66.2662 3.81944 68.2025L3.05175 70.8C2.86565 71.4297 3.18725 72.0211 3.81694 72.2072L12.0344 74.6359C12.6641 74.822 13.2556 74.5004 13.4417 73.8707L14.4885 70.3287C15.0841 68.3137 14.2434 66.5246 12.4488 65.9942C11.2052 65.6267 10.0874 66.0495 9.33379 67.0935ZM5.59902 68.8996C5.84561 68.0653 6.43993 67.676 7.17982 67.8947C7.91971 68.1134 8.2227 68.7678 7.97611 69.6022L7.54342 71.0662L5.16633 70.3636L5.59902 68.8996ZM12.6159 69.9464L11.904 72.355L9.29081 71.5826L10.0027 69.1741C10.2772 68.2453 10.928 67.8385 11.7466 68.0805C12.581 68.327 12.8904 69.0176 12.6159 69.9464Z" fill="#ED0677"/>
<path d="M16.8391 63.8372C17.0949 63.2683 16.841 62.6322 16.2421 62.3629L12.8435 60.8349L14.809 56.4631L18.2076 57.9911C18.8065 58.2604 19.4509 58.0281 19.7134 57.4442C19.9692 56.8753 19.7153 56.2392 19.1164 55.9699L10.9567 52.3013C10.3578 52.0321 9.73518 52.2561 9.47266 52.84C9.2034 53.4389 9.44911 54.0533 10.048 54.3225L12.9825 55.6419L11.0169 60.0137L8.09739 58.701C7.49852 58.4318 6.86088 58.6491 6.59836 59.233C6.3291 59.8318 6.58978 60.453 7.18866 60.7222L15.3333 64.3841C15.9322 64.6534 16.5766 64.4211 16.8391 63.8372Z" fill="#ED0677"/>
<path d="M16.2065 41.2078C15.9174 41.6659 16.0358 42.0319 16.1923 42.4606L19.0313 50.1728L13.9227 46.9487C13.3813 46.607 12.7108 46.7467 12.3691 47.2881C12.0362 47.8157 12.1985 48.4811 12.7399 48.8228L20.3334 53.6151C20.8609 53.9481 21.5402 53.7945 21.8643 53.2808C22.0659 52.9615 22.0899 52.6467 21.9524 52.2494L19.0674 44.3334L24.1481 47.54C24.6895 47.8817 25.3601 47.7419 25.693 47.2144C26.0347 46.673 25.8723 46.0076 25.3309 45.6659L17.7375 40.8735C17.21 40.5406 16.5394 40.6803 16.2065 41.2078Z" fill="#ED0677"/>
<path d="M27.2692 35.554C27.2849 34.7364 26.9584 33.9978 26.2879 33.4434C24.8836 32.2823 22.7958 32.6435 21.4569 34.2629C20.5992 35.3003 20.2388 36.6636 20.5062 37.8858C20.5683 38.1715 20.6909 38.358 20.868 38.5045C21.2855 38.8497 21.9095 38.7905 22.2651 38.3604C22.443 38.1453 22.524 37.8928 22.4828 37.5819C22.3874 36.8214 22.5781 36.127 23.0279 35.583C23.6032 34.8872 24.3928 34.7307 24.9875 35.2224C25.5694 35.7035 25.5933 36.4475 25.0598 37.0927L24.5055 37.7632C24.1707 38.168 24.2002 38.7249 24.605 39.0596C25.0099 39.3943 25.575 39.3291 25.9097 38.9243L26.757 37.8995C27.3323 37.2037 28.1346 37.0577 28.7419 37.5598C29.4124 38.1141 29.3658 39.098 28.6336 39.9836C28.0792 40.6541 27.3681 41.0246 26.4183 41.0914C26.0926 41.0989 25.8702 41.2133 25.6924 41.4284C25.3263 41.8711 25.3855 42.4952 25.8283 42.8613C25.9801 42.9868 26.2095 43.07 26.4786 43.0794C27.8932 43.1202 29.2317 42.4803 30.2254 41.2784C31.7421 39.444 31.7503 37.1929 30.2321 35.9377C29.3465 35.2055 28.2868 35.0961 27.2692 35.554Z" fill="#ED0677"/>
<path d="M42.5197 16.6311L38.6634 19.4503C38.1334 19.8379 38.03 20.5031 38.4175 21.0332L38.931 21.7355C41.5565 25.3268 42.2507 27.3611 41.3283 28.6861C41.0541 29.0899 41.0455 29.5232 41.3362 29.9207C41.6752 30.3846 42.239 30.4604 42.7161 30.1116C43.0474 29.8694 43.2614 29.5503 43.4245 29.1057C44.3478 27.17 43.4878 24.4639 40.6405 20.4858L42.827 18.8872L47.487 25.2613C47.8648 25.7782 48.5398 25.8947 49.0566 25.5169C49.5601 25.1488 49.6538 24.4703 49.276 23.9534L44.1025 16.877C43.715 16.3469 43.0498 16.2436 42.5197 16.6311Z" fill="#ED0677"/>
<path d="M53.6327 9.83513C53.157 10.0943 53.0821 10.4715 53.0098 10.9222L51.7306 19.0401L48.8409 13.7353C48.5346 13.173 47.881 12.9683 47.3188 13.2746C46.771 13.573 46.5885 14.2331 46.8948 14.7953L51.1901 22.6806C51.4885 23.2284 52.1566 23.4253 52.6899 23.1347C53.0215 22.9541 53.1959 22.6909 53.2695 22.2769L54.6078 13.9586L57.4818 19.2346C57.7881 19.7968 58.4417 20.0015 58.9895 19.7031C59.5517 19.3969 59.7341 18.7367 59.4279 18.1745L55.1325 10.2893C54.8341 9.74148 54.1805 9.53674 53.6327 9.83513Z" fill="#ED0677"/>
<path d="M66.9541 16.3374C68.523 15.7525 69.7376 14.5463 70.2226 13.1217C70.35 12.7588 70.3506 12.4783 70.2588 12.2322C70.0696 11.7246 69.4937 11.4487 68.9554 11.6495C68.6478 11.7642 68.4379 12.0001 68.2893 12.3533C67.8992 13.3747 67.2217 14.0478 66.2526 14.4091C64.3454 15.1202 62.4603 14.2462 61.7378 12.3082C61.0095 10.3548 61.8565 8.44471 63.7638 7.73361C64.7482 7.3666 65.7164 7.42608 66.6645 7.94855C66.9928 8.12401 67.3212 8.15921 67.6135 8.05026C68.1518 7.84954 68.4219 7.2583 68.2327 6.75072C68.1294 6.47386 67.93 6.2679 67.6229 6.10209C66.3083 5.34837 64.6005 5.23176 63.047 5.81096C60.0015 6.94642 58.493 10.1367 59.594 13.0899C60.6951 16.0431 63.9086 17.4729 66.9541 16.3374Z" fill="#ED0677"/>
<path d="M76.8587 13.3484C77.4813 13.199 77.8293 12.609 77.6798 11.9865L75.8372 4.3087L78.3432 3.70724C78.9019 3.57316 79.2294 3.03874 79.0992 2.49603C78.9651 1.93735 78.4505 1.62194 77.8758 1.75985L70.7088 3.47995C70.1501 3.61403 69.8188 4.13248 69.9529 4.69116C70.0831 5.23387 70.6175 5.56142 71.1762 5.42733L73.6823 4.82587L75.5249 12.5037C75.6744 13.1262 76.2522 13.494 76.8587 13.3484Z" fill="#ED0677"/>
<path d="M89.8707 9.53821L85.0486 1.28626C84.7885 0.824029 84.3959 0.611226 83.9077 0.676078C83.4195 0.74093 83.0961 1.04885 82.9657 1.56296L80.449 10.7899C80.3979 11.0285 80.375 11.2302 80.3966 11.393C80.4744 11.9788 81.009 12.388 81.6274 12.3058C82.0993 12.2431 82.4205 11.919 82.5488 11.3886L82.8574 10.2215L87.3974 9.61839L88.0001 10.6644C88.2786 11.1407 88.6734 11.3698 89.1453 11.3071C89.7636 11.225 90.1566 10.6925 90.0787 10.1067C90.0571 9.94401 89.9986 9.75306 89.8707 9.53821ZM84.3379 3.91431L86.4252 7.90941L83.3335 8.32014L84.3379 3.91431Z" fill="#ED0677"/>
<path d="M94.8066 11.1338C95.4467 11.1208 95.9127 10.6188 95.8997 9.97875L95.7398 2.08452L98.3165 2.03232C98.8909 2.02068 99.325 1.56858 99.3137 1.01057C99.3021 0.436142 98.8668 0.0180728 98.2759 0.0300434L90.9069 0.179343C90.3325 0.190982 89.898 0.626675 89.9096 1.2011C89.9209 1.75911 90.373 2.19326 90.9474 2.18162L93.5241 2.12941L93.6841 10.0236C93.6971 10.6637 94.183 11.1464 94.8066 11.1338Z" fill="#ED0677"/>
<path d="M101.48 0.00430701C100.842 -0.0492842 100.343 0.402976 100.289 1.04093L99.5554 9.77603C99.5004 10.4303 99.935 10.9446 100.589 10.9995L103.877 11.2757C106.249 11.475 107.942 10.1511 108.118 8.05725C108.291 5.99616 106.828 4.39066 104.472 4.19278L102.264 4.00728L102.497 1.22644C102.551 0.588484 102.118 0.0578982 101.48 0.00430701ZM104.31 6.12301C105.39 6.2137 105.939 6.93522 105.859 7.88397C105.781 8.81637 105.12 9.41984 104.041 9.32915L101.832 9.14364L102.102 5.9375L104.31 6.12301Z" fill="#ED0677"/>
<path d="M121.105 8.5651C121.739 8.22384 122.177 7.66077 122.383 6.88332C122.842 5.15389 121.793 3.60182 119.842 3.08393L117.224 2.38921C116.589 2.22079 116.007 2.55881 115.839 3.19347L113.641 11.4757C113.472 12.1103 113.81 12.6926 114.445 12.861L118.015 13.8083C120.046 14.3473 121.811 13.4569 122.291 11.6481C122.623 10.3947 122.169 9.28919 121.105 8.5651ZM119.195 4.88232C120.036 5.10547 120.441 5.68868 120.243 6.43439C120.046 7.18011 119.4 7.50129 118.559 7.27813L117.083 6.88656L117.719 4.49075L119.195 4.88232ZM118.345 11.9257L115.917 11.2815L116.616 8.64772L119.044 9.29192C119.98 9.54034 120.405 10.1796 120.186 11.0046C119.962 11.8455 119.281 12.1741 118.345 11.9257Z" fill="#ED0677"/>
<path d="M124.57 15.9764C125.146 16.2162 125.774 15.9445 126.027 15.3383L127.459 11.8983L131.884 13.7408L130.452 17.1808C130.199 17.787 130.45 18.4246 131.041 18.6707C131.616 18.9105 132.245 18.6388 132.498 18.0327L135.937 9.77358C136.189 9.16741 135.948 8.55125 135.357 8.30517C134.75 8.05277 134.143 8.31557 133.891 8.92174L132.654 11.892L128.229 10.0495L129.459 7.0944C129.712 6.48823 129.477 5.85692 128.886 5.61084C128.28 5.35844 127.666 5.63639 127.414 6.24256L123.981 14.4865C123.729 15.0927 123.979 15.7303 124.57 15.9764Z" fill="#ED0677"/>
<path d="M147.173 14.711C146.707 14.4348 146.344 14.5635 145.92 14.7319L138.29 17.7855L141.37 12.5887C141.697 12.038 141.538 11.3716 140.988 11.0452C140.451 10.7271 139.79 10.9081 139.464 11.4588L134.886 19.1833C134.568 19.72 134.74 20.3947 135.263 20.7044C135.588 20.8969 135.903 20.9121 136.296 20.7635L144.129 17.6582L141.065 22.8267C140.739 23.3774 140.897 24.0438 141.434 24.3618C141.985 24.6882 142.645 24.5073 142.972 23.9566L147.55 16.232C147.868 15.6954 147.709 15.029 147.173 14.711Z" fill="#ED0677"/>
<path d="M153.134 25.6112C153.951 25.6041 154.68 25.257 155.216 24.5713C156.337 23.1351 155.918 21.0582 154.262 19.7651C153.201 18.9367 151.828 18.6146 150.613 18.9161C150.33 18.9861 150.147 19.1139 150.005 19.2951C149.672 19.7221 149.748 20.3442 150.188 20.6876C150.408 20.8594 150.663 20.9333 150.973 20.8835C151.73 20.7668 152.43 20.938 152.986 21.3724C153.698 21.928 153.876 22.713 153.401 23.3211C152.937 23.9163 152.194 23.961 151.534 23.4458L150.848 22.9104C150.434 22.5871 149.878 22.6322 149.555 23.0462C149.232 23.4602 149.313 24.0233 149.727 24.3466L150.775 25.1649C151.486 25.7205 151.655 26.5184 151.17 27.1395C150.634 27.8252 149.65 27.8061 148.744 27.099C148.058 26.5636 147.668 25.8631 147.575 24.9156C147.558 24.5902 147.437 24.3712 147.217 24.1994C146.765 23.8458 146.142 23.9224 145.789 24.3753C145.668 24.5306 145.591 24.7622 145.589 25.0314C145.588 26.4467 146.265 27.7668 147.494 28.7265C149.37 30.1913 151.621 30.1364 152.833 28.5837C153.54 27.678 153.62 26.6156 153.134 25.6112Z" fill="#ED0677"/>
<path d="M175.372 44.7827L172.597 40.8944C172.216 40.3599 171.552 40.249 171.017 40.6304L170.309 41.1358C166.688 43.72 164.646 44.3909 163.332 43.4534C162.931 43.1746 162.498 43.1611 162.097 43.4472C161.629 43.7809 161.547 44.3438 161.89 44.8249C162.129 45.1589 162.445 45.3766 162.888 45.5447C164.813 46.4901 167.529 45.6611 171.539 42.8595L173.113 45.0642L166.686 49.6509C166.164 50.0228 166.04 50.6964 166.412 51.2175C166.774 51.7252 167.452 51.8266 167.973 51.4547L175.108 46.3626C175.643 45.9812 175.754 45.3171 175.372 44.7827Z" fill="#ED0677"/>
<path d="M182.042 55.9727C181.789 55.4941 181.412 55.4149 180.963 55.3374L172.86 53.9654L178.197 51.1365C178.763 50.8367 178.975 50.1855 178.675 49.6198C178.383 49.0687 177.725 48.8787 177.16 49.1785L169.226 53.3833C168.675 53.6754 168.47 54.3412 168.755 54.8778C168.931 55.2114 169.193 55.3888 169.606 55.4672L177.908 56.9005L172.6 59.714C172.034 60.0138 171.822 60.6651 172.114 61.2162C172.414 61.7819 173.072 61.9719 173.637 61.6721L181.571 57.4673C182.122 57.1751 182.335 56.5239 182.042 55.9727Z" fill="#ED0677"/>
<path d="M175.386 69.2188C175.953 70.7943 177.146 72.0226 178.565 72.5239C178.926 72.6555 179.206 72.6592 179.454 72.5703C179.963 72.3869 180.246 71.8142 180.051 71.2736C179.94 70.9647 179.706 70.7521 179.355 70.5995C178.338 70.1978 177.673 69.5126 177.323 68.5395C176.633 66.6242 177.529 64.7493 179.475 64.0489C181.437 63.343 183.337 64.2119 184.026 66.1272C184.382 67.1157 184.311 68.0832 183.778 69.0253C183.599 69.3514 183.56 69.6795 183.665 69.973C183.86 70.5136 184.448 70.7904 184.958 70.607C185.236 70.507 185.444 70.3099 185.613 70.0047C186.382 68.6988 186.518 66.9924 185.957 65.4324C184.856 62.3741 181.683 60.8292 178.718 61.8964C175.752 62.9636 174.286 66.1606 175.386 69.2188Z" fill="#ED0677"/>
<path d="M178.263 79.1562C178.405 79.7804 178.991 80.1351 179.615 79.9928L187.313 78.2381L187.886 80.7509C188.014 81.3111 188.544 81.6447 189.089 81.5207C189.649 81.393 189.97 80.882 189.839 80.3058L188.201 73.1196C188.073 72.5594 187.558 72.2221 186.998 72.3498C186.454 72.4739 186.12 73.0045 186.248 73.5647L186.821 76.0775L179.122 77.8322C178.498 77.9744 178.124 78.548 178.263 79.1562Z" fill="#ED0677"/>
<path d="M181.924 92.2116L190.231 87.4841C190.696 87.2293 190.913 86.8392 190.854 86.3503C190.795 85.8614 190.49 85.5345 189.978 85.3982L180.78 82.7761C180.542 82.7223 180.341 82.6971 180.178 82.7168C179.591 82.788 179.176 83.3178 179.251 83.9371C179.308 84.4097 179.629 84.7346 180.158 84.8689L181.321 85.1909L181.872 89.7375L180.819 90.3281C180.34 90.6012 180.106 90.9933 180.164 91.4659C180.239 92.0852 180.767 92.4842 181.353 92.4131C181.516 92.3933 181.708 92.337 181.924 92.2116ZM187.611 86.7434L183.592 88.7849L183.217 85.6887L187.611 86.7434Z" fill="#ED0677"/>
<path d="M180.272 97.1282C180.278 97.7684 180.774 98.2401 181.415 98.2344L189.31 98.1648L189.333 100.742C189.338 101.316 189.785 101.756 190.343 101.751C190.918 101.746 191.341 101.315 191.335 100.724L191.27 93.354C191.265 92.7795 190.835 92.3401 190.26 92.3451C189.702 92.3501 189.263 92.7972 189.268 93.3717L189.291 95.9488L181.395 96.0184C180.755 96.0241 180.267 96.5044 180.272 97.1282Z" fill="#ED0677"/>
<path d="M191.324 103.929C191.385 103.291 190.939 102.787 190.301 102.726L181.575 101.892C180.922 101.83 180.403 102.259 180.34 102.912L180.026 106.197C179.8 108.566 181.104 110.274 183.196 110.474C185.255 110.67 186.877 109.226 187.102 106.873L187.313 104.667L190.091 104.932C190.728 104.993 191.264 104.566 191.324 103.929ZM185.174 106.689C185.071 107.767 184.343 108.308 183.395 108.217C182.464 108.128 181.868 107.461 181.971 106.383L182.182 104.177L185.384 104.483L185.174 106.689Z" fill="#ED0677"/>
<path d="M182.538 123.455C182.872 124.092 183.43 124.537 184.205 124.752C185.929 125.231 187.493 124.2 188.034 122.254L188.758 119.645C188.934 119.012 188.603 118.426 187.97 118.25L179.713 115.958C179.081 115.782 178.495 116.113 178.319 116.746L177.331 120.305C176.769 122.33 177.639 124.104 179.442 124.605C180.691 124.952 181.802 124.511 182.538 123.455ZM186.243 121.587C186.01 122.425 185.422 122.824 184.679 122.618C183.935 122.411 183.622 121.762 183.854 120.924L184.263 119.453L186.651 120.116L186.243 121.587ZM179.209 120.656L179.881 118.236L182.507 118.965L181.835 121.385C181.576 122.318 180.932 122.736 180.109 122.508C179.271 122.275 178.95 121.589 179.209 120.656Z" fill="#ED0677"/>
<path d="M175.09 126.834C174.843 127.407 175.108 128.039 175.711 128.299L179.134 129.77L177.241 134.174L173.818 132.702C173.215 132.443 172.574 132.686 172.321 133.274C172.075 133.847 172.34 134.479 172.943 134.738L181.162 138.271C181.765 138.531 182.384 138.296 182.637 137.708C182.896 137.105 182.64 136.495 182.037 136.235L179.081 134.965L180.974 130.561L183.915 131.825C184.518 132.085 185.152 131.857 185.405 131.269C185.664 130.665 185.393 130.049 184.79 129.789L176.586 126.263C175.983 126.003 175.342 126.246 175.09 126.834Z" fill="#ED0677"/>
<path d="M176.094 149.45C176.376 148.987 176.251 148.623 176.088 148.197L173.122 140.533L178.283 143.672C178.83 144.005 179.498 143.854 179.831 143.307C180.155 142.774 179.982 142.112 179.435 141.779L171.763 137.113C171.23 136.789 170.553 136.954 170.238 137.472C170.042 137.795 170.023 138.11 170.167 138.505L173.182 146.372L168.049 143.25C167.502 142.918 166.834 143.068 166.51 143.601C166.177 144.148 166.351 144.811 166.898 145.144L174.569 149.81C175.102 150.134 175.77 149.983 176.094 149.45Z" fill="#ED0677"/>
<path d="M165.127 155.286C165.125 156.104 165.464 156.837 166.143 157.38C167.567 158.518 169.648 158.122 170.96 156.481C171.8 155.43 172.138 154.06 171.851 152.843C171.784 152.558 171.658 152.374 171.479 152.23C171.056 151.892 170.433 151.962 170.084 152.398C169.91 152.615 169.833 152.869 169.879 153.18C169.987 153.938 169.808 154.636 169.367 155.187C168.804 155.892 168.017 156.062 167.414 155.58C166.824 155.109 166.788 154.365 167.311 153.711L167.854 153.032C168.182 152.621 168.143 152.065 167.733 151.737C167.323 151.409 166.759 151.484 166.431 151.894L165.601 152.933C165.037 153.638 164.237 153.797 163.622 153.305C162.942 152.762 162.972 151.777 163.69 150.88C164.233 150.2 164.938 149.818 165.886 149.736C166.212 149.723 166.432 149.605 166.607 149.387C166.965 148.938 166.896 148.315 166.447 147.956C166.293 147.833 166.062 147.754 165.793 147.749C164.378 147.731 163.05 148.393 162.077 149.611C160.591 151.471 160.62 153.722 162.158 154.952C163.056 155.669 164.117 155.761 165.127 155.286Z" fill="#ED0677"/>
<path d="M145.792 175.788L149.774 173.149C150.321 172.786 150.455 172.126 150.092 171.579L149.611 170.854C147.154 167.146 146.554 165.081 147.536 163.8C147.828 163.409 147.857 162.977 147.585 162.567C147.267 162.088 146.708 161.986 146.215 162.312C145.873 162.539 145.644 162.848 145.461 163.285C144.45 165.176 145.185 167.919 147.846 172.023L145.589 173.52L141.226 166.938C140.873 166.405 140.204 166.257 139.67 166.611C139.15 166.956 139.025 167.629 139.379 168.163L144.222 175.469C144.585 176.017 145.245 176.151 145.792 175.788Z" fill="#ED0677"/>
<path d="M134.378 182.066C134.866 181.829 134.958 181.456 135.051 181.009L136.701 172.958L139.344 178.39C139.625 178.966 140.268 179.201 140.844 178.921C141.405 178.648 141.617 177.996 141.337 177.421L137.409 169.347C137.136 168.786 136.477 168.558 135.931 168.824C135.592 168.989 135.405 169.244 135.313 169.654L133.594 177.902L130.965 172.5C130.685 171.924 130.042 171.69 129.481 171.963C128.905 172.243 128.692 172.894 128.973 173.469L132.901 181.544C133.174 182.105 133.818 182.339 134.378 182.066Z" fill="#ED0677"/>
<path d="M121.37 174.959C119.776 175.471 118.507 176.62 117.957 178.021C117.813 178.378 117.8 178.658 117.88 178.908C118.046 179.424 118.608 179.726 119.155 179.55C119.468 179.449 119.688 179.223 119.853 178.877C120.29 177.875 120.997 177.234 121.982 176.917C123.92 176.295 125.763 177.254 126.396 179.223C127.033 181.208 126.1 183.077 124.162 183.7C123.161 184.021 122.197 183.918 121.274 183.352C120.954 183.162 120.628 183.112 120.331 183.207C119.784 183.383 119.487 183.961 119.652 184.477C119.743 184.758 119.932 184.973 120.232 185.153C121.51 185.966 123.211 186.161 124.789 185.654C127.884 184.659 129.537 181.542 128.573 178.541C127.609 175.54 124.464 173.964 121.37 174.959Z" fill="#ED0677"/>
<path d="M111.34 177.49C110.711 177.61 110.336 178.184 110.457 178.812L111.945 186.567L109.414 187.053C108.849 187.161 108.498 187.68 108.603 188.228C108.711 188.792 109.211 189.131 109.791 189.019L117.03 187.63C117.594 187.522 117.949 187.019 117.84 186.455C117.735 185.907 117.216 185.555 116.652 185.663L114.121 186.149L112.633 178.395C112.512 177.766 111.952 177.372 111.34 177.49Z" fill="#ED0677"/>
<path d="M98.1653 180.698L102.603 189.163C102.842 189.637 103.224 189.867 103.715 189.825C104.206 189.782 104.543 189.49 104.697 188.982L107.635 179.881C107.697 179.645 107.729 179.444 107.715 179.281C107.664 178.692 107.149 178.258 106.527 178.312C106.053 178.353 105.717 178.662 105.565 179.186L105.203 180.338L100.64 180.732L100.086 179.659C99.8293 179.17 99.4455 178.923 98.9713 178.964C98.3498 179.018 97.9328 179.532 97.9836 180.121C97.9977 180.284 98.0474 180.478 98.1653 180.698ZM103.434 186.57L101.532 182.483L104.64 182.215L103.434 186.57Z" fill="#ED0677"/>
<path d="M93.309 178.878C92.6691 178.861 92.1805 179.341 92.1641 179.981L91.9612 187.874L89.3848 187.808C88.8105 187.793 88.356 188.225 88.3417 188.783C88.3269 189.357 88.7426 189.795 89.3334 189.81L96.7015 190C97.2758 190.014 97.7299 189.599 97.7446 189.025C97.759 188.467 97.3273 188.012 96.7529 187.998L94.1766 187.931L94.3794 180.038C94.3959 179.398 93.9326 178.894 93.309 178.878Z" fill="#ED0677"/>
<path d="M86.1308 189.689C86.7657 189.772 87.2851 189.343 87.368 188.708L88.5023 180.016C88.5872 179.365 88.1768 178.831 87.5257 178.746L84.2539 178.319C81.8937 178.011 80.142 179.256 79.8701 181.339C79.6025 183.39 80.9902 185.061 83.3342 185.367L85.5316 185.654L85.1705 188.421C85.0877 189.056 85.496 189.606 86.1308 189.689ZM83.5848 183.446C82.5105 183.306 81.9953 182.56 82.1185 181.616C82.2396 180.688 82.9268 180.116 84.0011 180.256L86.1986 180.543L85.7823 183.733L83.5848 183.446Z" fill="#ED0677"/>
<path d="M66.9198 180.235C66.2708 180.547 65.8072 181.09 65.5654 181.857C65.0275 183.563 66.0038 185.162 67.9295 185.769L70.5128 186.583C71.139 186.78 71.7362 186.469 71.9336 185.843L74.5096 177.671C74.7069 177.044 74.396 176.447 73.7698 176.25L70.2472 175.14C68.2432 174.508 66.4393 175.316 65.8767 177.101C65.4869 178.338 65.8895 179.463 66.9198 180.235ZM68.6585 184.002C67.8288 183.74 67.4503 183.139 67.6822 182.403C67.9141 181.668 68.5739 181.376 69.4037 181.638L70.8597 182.097L70.1145 184.461L68.6585 184.002ZM69.8313 177.005L72.2267 177.76L71.4075 180.359L69.0121 179.604C68.0884 179.313 67.6934 178.655 67.95 177.841C68.2115 177.011 68.9076 176.714 69.8313 177.005Z" fill="#ED0677"/>
<path d="M63.7986 172.673C63.2343 172.407 62.5937 172.649 62.3138 173.243L60.7249 176.614L56.3892 174.57L57.978 171.199C58.258 170.605 58.0374 169.957 57.4583 169.684C56.894 169.418 56.2535 169.66 55.9735 170.254L52.1588 178.347C51.8788 178.941 52.0916 179.567 52.6707 179.84C53.2646 180.12 53.8834 179.886 54.1634 179.292L55.5352 176.381L59.871 178.425L58.5061 181.321C58.2261 181.915 58.4319 182.556 59.011 182.829C59.6049 183.109 60.2307 182.86 60.5106 182.266L64.3183 174.188C64.5983 173.594 64.3777 172.946 63.7986 172.673Z" fill="#ED0677"/>
<path d="M41.1611 172.899C41.614 173.196 41.982 173.084 42.4135 172.935L50.1754 170.235L46.86 175.285C46.5086 175.82 46.6363 176.493 47.1715 176.845C47.6929 177.187 48.3611 177.037 48.7125 176.501L53.6406 168.995C53.983 168.474 53.8416 167.792 53.3339 167.459C53.0182 167.251 52.7039 167.222 52.3041 167.352L44.3376 170.094L47.635 165.072C47.9863 164.537 47.8587 163.864 47.3372 163.522C46.8021 163.17 46.1338 163.321 45.7825 163.856L40.8544 171.362C40.512 171.883 40.6397 172.556 41.1611 172.899Z" fill="#ED0677"/>
<path d="M35.7082 161.736C34.8909 161.706 34.1466 162.019 33.5802 162.679C32.3941 164.062 32.7177 166.156 34.3127 167.524C35.3346 168.4 36.6912 168.785 37.918 168.54C38.2047 168.483 38.3935 168.364 38.5431 168.189C38.8957 167.778 38.8478 167.153 38.4241 166.79C38.2123 166.608 37.9612 166.522 37.6496 166.558C36.8876 166.64 36.1968 166.437 35.6609 165.977C34.9756 165.389 34.8333 164.597 35.3355 164.011C35.8271 163.438 36.5713 163.428 37.2069 163.973L37.8673 164.539C38.2661 164.881 38.8234 164.861 39.1653 164.463C39.5073 164.064 39.4522 163.498 39.0534 163.156L38.0441 162.29C37.3587 161.703 37.2271 160.898 37.74 160.3C38.3064 159.639 39.2892 159.703 40.1615 160.451C40.8219 161.018 41.1797 161.735 41.2293 162.686C41.231 163.012 41.3414 163.236 41.5532 163.418C41.9893 163.792 42.6143 163.744 42.9883 163.308C43.1165 163.158 43.2038 162.931 43.2181 162.662C43.2843 161.248 42.6686 159.898 41.4848 158.883C39.6779 157.334 37.4273 157.285 36.145 158.78C35.397 159.653 35.2686 160.71 35.7082 161.736Z" fill="#ED0677"/>
<path d="M96.5958 29.2483C132.699 29.8974 161.441 59.6912 160.792 95.7948C160.143 131.898 130.349 160.64 94.2455 159.991C58.1419 159.342 29.4003 129.548 30.0493 93.4445C30.6983 57.3409 60.4922 28.5993 96.5958 29.2483Z" stroke="#ED0677"/>
<path d="M95 70V117M95 117L108 104.254M95 117L82 104.254" stroke="#14B1E7" stroke-width="4" stroke-linecap="round"/>
</svg>
